<?xml version="1.0" encoding="UTF-8" standalone="no"?>
<!-- Created with Inkscape (http://www.inkscape.org/) -->

<svg
   xmlns:dc="http://purl.org/dc/elements/1.1/"
   xmlns:cc="http://creativecommons.org/ns#"
   xmlns:rdf="http://www.w3.org/1999/02/22-rdf-syntax-ns#"
   xmlns:svg="http://www.w3.org/2000/svg"
   xmlns="http://www.w3.org/2000/svg"
   xmlns:sodipodi="http://sodipodi.sourceforge.net/DTD/sodipodi-0.dtd"
   xmlns:inkscape="http://www.inkscape.org/namespaces/inkscape"
   width="283.18353"
   height="445.92694"
   id="svg2"
   version="1.1"
   inkscape:version="0.48.3.1 r9886"
   sodipodi:docname="checkoutcommit.svg">
  <defs
     id="defs4">
    <marker
       inkscape:stockid="Arrow2Mend"
       orient="auto"
       refY="0"
       refX="0"
       id="Arrow2Mend"
       style="overflow:visible">
      <path
         id="path3851"
         style="fill-rule:evenodd;stroke-width:0.625;stroke-linejoin:round"
         d="M 8.7185878,4.0337352 -2.2072895,0.01601326 8.7185884,-4.0017078 c -1.7454984,2.3720609 -1.7354408,5.6174519 -6e-7,8.035443 z"
         transform="scale(-0.6,-0.6)"
         inkscape:connector-curvature="0" />
    </marker>
    <marker
       inkscape:stockid="Arrow2Send"
       orient="auto"
       refY="0"
       refX="0"
       id="Arrow2Send"
       style="overflow:visible">
      <path
         id="path3857"
         style="fill-rule:evenodd;stroke-width:0.625;stroke-linejoin:round"
         d="M 8.7185878,4.0337352 -2.2072895,0.01601326 8.7185884,-4.0017078 c -1.7454984,2.3720609 -1.7354408,5.6174519 -6e-7,8.035443 z"
         transform="matrix(-0.3,0,0,-0.3,0.69,0)"
         inkscape:connector-curvature="0" />
    </marker>
    <marker
       inkscape:stockid="Arrow2Lend"
       orient="auto"
       refY="0"
       refX="0"
       id="Arrow2Lend"
       style="overflow:visible">
      <path
         id="path3845"
         style="fill-rule:evenodd;stroke-width:0.625;stroke-linejoin:round"
         d="M 8.7185878,4.0337352 -2.2072895,0.01601326 8.7185884,-4.0017078 c -1.7454984,2.3720609 -1.7354408,5.6174519 -6e-7,8.035443 z"
         transform="matrix(-1.1,0,0,-1.1,-1.1,0)"
         inkscape:connector-curvature="0" />
    </marker>
    <marker
       inkscape:stockid="Arrow2Lstart"
       orient="auto"
       refY="0"
       refX="0"
       id="Arrow2Lstart"
       style="overflow:visible">
      <path
         id="path3842"
         style="fill-rule:evenodd;stroke-width:0.625;stroke-linejoin:round"
         d="M 8.7185878,4.0337352 -2.2072895,0.01601326 8.7185884,-4.0017078 c -1.7454984,2.3720609 -1.7354408,5.6174519 -6e-7,8.035443 z"
         transform="matrix(1.1,0,0,1.1,1.1,0)"
         inkscape:connector-curvature="0" />
    </marker>
    <marker
       inkscape:stockid="Arrow2Mend"
       orient="auto"
       refY="0"
       refX="0"
       id="Arrow2Mend-8"
       style="overflow:visible">
      <path
         inkscape:connector-curvature="0"
         id="path3851-4"
         style="fill-rule:evenodd;stroke-width:0.625;stroke-linejoin:round"
         d="M 8.7185878,4.0337352 -2.2072895,0.01601326 8.7185884,-4.0017078 c -1.7454984,2.3720609 -1.7354408,5.6174519 -6e-7,8.035443 z"
         transform="scale(-0.6,-0.6)" />
    </marker>
    <marker
       inkscape:stockid="Arrow2Mend"
       orient="auto"
       refY="0"
       refX="0"
       id="Arrow2Mend-4"
       style="overflow:visible">
      <path
         inkscape:connector-curvature="0"
         id="path3851-5"
         style="fill-rule:evenodd;stroke-width:0.625;stroke-linejoin:round"
         d="M 8.7185878,4.0337352 -2.2072895,0.01601326 8.7185884,-4.0017078 c -1.7454984,2.3720609 -1.7354408,5.6174519 -6e-7,8.035443 z"
         transform="scale(-0.6,-0.6)" />
    </marker>
    <marker
       inkscape:stockid="Arrow2Mend"
       orient="auto"
       refY="0"
       refX="0"
       id="Arrow2Mend-6"
       style="overflow:visible">
      <path
         inkscape:connector-curvature="0"
         id="path3851-6"
         style="fill-rule:evenodd;stroke-width:0.625;stroke-linejoin:round"
         d="M 8.7185878,4.0337352 -2.2072895,0.01601326 8.7185884,-4.0017078 c -1.7454984,2.3720609 -1.7354408,5.6174519 -6e-7,8.035443 z"
         transform="scale(-0.6,-0.6)" />
    </marker>
    <marker
       inkscape:stockid="Arrow2Mend"
       orient="auto"
       refY="0"
       refX="0"
       id="Arrow2Mend-48"
       style="overflow:visible">
      <path
         inkscape:connector-curvature="0"
         id="path3851-8"
         style="fill-rule:evenodd;stroke-width:0.625;stroke-linejoin:round"
         d="M 8.7185878,4.0337352 -2.2072895,0.01601326 8.7185884,-4.0017078 c -1.7454984,2.3720609 -1.7354408,5.6174519 -6e-7,8.035443 z"
         transform="scale(-0.6,-0.6)" />
    </marker>
    <marker
       inkscape:stockid="Arrow2Mend"
       orient="auto"
       refY="0"
       refX="0"
       id="Arrow2Mend-5"
       style="overflow:visible">
      <path
         inkscape:connector-curvature="0"
         id="path3851-40"
         style="fill-rule:evenodd;stroke-width:0.625;stroke-linejoin:round"
         d="M 8.7185878,4.0337352 -2.2072895,0.01601326 8.7185884,-4.0017078 c -1.7454984,2.3720609 -1.7354408,5.6174519 -6e-7,8.035443 z"
         transform="scale(-0.6,-0.6)" />
    </marker>
    <marker
       inkscape:stockid="Arrow2Mend"
       orient="auto"
       refY="0"
       refX="0"
       id="Arrow2Mend-44"
       style="overflow:visible">
      <path
         inkscape:connector-curvature="0"
         id="path3851-59"
         style="fill-rule:evenodd;stroke-width:0.625;stroke-linejoin:round"
         d="M 8.7185878,4.0337352 -2.2072895,0.01601326 8.7185884,-4.0017078 c -1.7454984,2.3720609 -1.7354408,5.6174519 -6e-7,8.035443 z"
         transform="scale(-0.6,-0.6)" />
    </marker>
    <marker
       inkscape:stockid="Arrow2Mend"
       orient="auto"
       refY="0"
       refX="0"
       id="Arrow2Mend-3"
       style="overflow:visible">
      <path
         inkscape:connector-curvature="0"
         id="path3851-54"
         style="fill-rule:evenodd;stroke-width:0.625;stroke-linejoin:round"
         d="M 8.7185878,4.0337352 -2.2072895,0.01601326 8.7185884,-4.0017078 c -1.7454984,2.3720609 -1.7354408,5.6174519 -6e-7,8.035443 z"
         transform="scale(-0.6,-0.6)" />
    </marker>
    <marker
       inkscape:stockid="Arrow2Mend"
       orient="auto"
       refY="0"
       refX="0"
       id="marker5085"
       style="overflow:visible">
      <path
         inkscape:connector-curvature="0"
         id="path5087"
         style="fill-rule:evenodd;stroke-width:0.625;stroke-linejoin:round"
         d="M 8.7185878,4.0337352 -2.2072895,0.01601326 8.7185884,-4.0017078 c -1.7454984,2.3720609 -1.7354408,5.6174519 -6e-7,8.035443 z"
         transform="scale(-0.6,-0.6)" />
    </marker>
    <marker
       inkscape:stockid="Arrow2Mend"
       orient="auto"
       refY="0"
       refX="0"
       id="Arrow2Mend-32"
       style="overflow:visible">
      <path
         inkscape:connector-curvature="0"
         id="path3851-9"
         style="fill-rule:evenodd;stroke-width:0.625;stroke-linejoin:round"
         d="M 8.7185878,4.0337352 -2.2072895,0.01601326 8.7185884,-4.0017078 c -1.7454984,2.3720609 -1.7354408,5.6174519 -6e-7,8.035443 z"
         transform="scale(-0.6,-0.6)" />
    </marker>
    <marker
       inkscape:stockid="Arrow2Mend"
       orient="auto"
       refY="0"
       refX="0"
       id="marker5129"
       style="overflow:visible">
      <path
         inkscape:connector-curvature="0"
         id="path5131"
         style="fill-rule:evenodd;stroke-width:0.625;stroke-linejoin:round"
         d="M 8.7185878,4.0337352 -2.2072895,0.01601326 8.7185884,-4.0017078 c -1.7454984,2.3720609 -1.7354408,5.6174519 -6e-7,8.035443 z"
         transform="scale(-0.6,-0.6)" />
    </marker>
    <marker
       inkscape:stockid="Arrow2Mend"
       orient="auto"
       refY="0"
       refX="0"
       id="marker5129-0"
       style="overflow:visible">
      <path
         inkscape:connector-curvature="0"
         id="path5131-7"
         style="fill-rule:evenodd;stroke-width:0.625;stroke-linejoin:round"
         d="M 8.7185878,4.0337352 -2.2072895,0.01601326 8.7185884,-4.0017078 c -1.7454984,2.3720609 -1.7354408,5.6174519 -6e-7,8.035443 z"
         transform="scale(-0.6,-0.6)" />
    </marker>
    <marker
       inkscape:stockid="Arrow2Mend"
       orient="auto"
       refY="0"
       refX="0"
       id="marker5603"
       style="overflow:visible">
      <path
         inkscape:connector-curvature="0"
         id="path5605"
         style="fill-rule:evenodd;stroke-width:0.625;stroke-linejoin:round"
         d="M 8.7185878,4.0337352 -2.2072895,0.01601326 8.7185884,-4.0017078 c -1.7454984,2.3720609 -1.7354408,5.6174519 -6e-7,8.035443 z"
         transform="scale(-0.6,-0.6)" />
    </marker>
    <marker
       inkscape:stockid="Arrow2Mend"
       orient="auto"
       refY="0"
       refX="0"
       id="Arrow2Mend-1"
       style="overflow:visible">
      <path
         inkscape:connector-curvature="0"
         id="path3851-3"
         style="fill-rule:evenodd;stroke-width:0.625;stroke-linejoin:round"
         d="M 8.7185878,4.0337352 -2.2072895,0.01601326 8.7185884,-4.0017078 c -1.7454984,2.3720609 -1.7354408,5.6174519 -6e-7,8.035443 z"
         transform="scale(-0.6,-0.6)" />
    </marker>
    <marker
       inkscape:stockid="Arrow2Mend"
       orient="auto"
       refY="0"
       refX="0"
       id="marker5609"
       style="overflow:visible">
      <path
         inkscape:connector-curvature="0"
         id="path5611"
         style="fill-rule:evenodd;stroke-width:0.625;stroke-linejoin:round"
         d="M 8.7185878,4.0337352 -2.2072895,0.01601326 8.7185884,-4.0017078 c -1.7454984,2.3720609 -1.7354408,5.6174519 -6e-7,8.035443 z"
         transform="scale(-0.6,-0.6)" />
    </marker>
    <marker
       inkscape:stockid="Arrow2Mend"
       orient="auto"
       refY="0"
       refX="0"
       id="marker5613"
       style="overflow:visible">
      <path
         inkscape:connector-curvature="0"
         id="path5615"
         style="fill-rule:evenodd;stroke-width:0.625;stroke-linejoin:round"
         d="M 8.7185878,4.0337352 -2.2072895,0.01601326 8.7185884,-4.0017078 c -1.7454984,2.3720609 -1.7354408,5.6174519 -6e-7,8.035443 z"
         transform="scale(-0.6,-0.6)" />
    </marker>
    <marker
       inkscape:stockid="Arrow2Mend"
       orient="auto"
       refY="0"
       refX="0"
       id="marker5617"
       style="overflow:visible">
      <path
         inkscape:connector-curvature="0"
         id="path5619"
         style="fill-rule:evenodd;stroke-width:0.625;stroke-linejoin:round"
         d="M 8.7185878,4.0337352 -2.2072895,0.01601326 8.7185884,-4.0017078 c -1.7454984,2.3720609 -1.7354408,5.6174519 -6e-7,8.035443 z"
         transform="scale(-0.6,-0.6)" />
    </marker>
    <marker
       inkscape:stockid="Arrow2Mend"
       orient="auto"
       refY="0"
       refX="0"
       id="marker5621"
       style="overflow:visible">
      <path
         inkscape:connector-curvature="0"
         id="path5623"
         style="fill-rule:evenodd;stroke-width:0.625;stroke-linejoin:round"
         d="M 8.7185878,4.0337352 -2.2072895,0.01601326 8.7185884,-4.0017078 c -1.7454984,2.3720609 -1.7354408,5.6174519 -6e-7,8.035443 z"
         transform="scale(-0.6,-0.6)" />
    </marker>
    <marker
       inkscape:stockid="Arrow2Mend"
       orient="auto"
       refY="0"
       refX="0"
       id="marker5625"
       style="overflow:visible">
      <path
         inkscape:connector-curvature="0"
         id="path5627"
         style="fill-rule:evenodd;stroke-width:0.625;stroke-linejoin:round"
         d="M 8.7185878,4.0337352 -2.2072895,0.01601326 8.7185884,-4.0017078 c -1.7454984,2.3720609 -1.7354408,5.6174519 -6e-7,8.035443 z"
         transform="scale(-0.6,-0.6)" />
    </marker>
    <marker
       inkscape:stockid="Arrow2Mend"
       orient="auto"
       refY="0"
       refX="0"
       id="marker5629"
       style="overflow:visible">
      <path
         inkscape:connector-curvature="0"
         id="path5631"
         style="fill-rule:evenodd;stroke-width:0.625;stroke-linejoin:round"
         d="M 8.7185878,4.0337352 -2.2072895,0.01601326 8.7185884,-4.0017078 c -1.7454984,2.3720609 -1.7354408,5.6174519 -6e-7,8.035443 z"
         transform="scale(-0.6,-0.6)" />
    </marker>
    <marker
       inkscape:stockid="Arrow2Mend"
       orient="auto"
       refY="0"
       refX="0"
       id="marker5633"
       style="overflow:visible">
      <path
         inkscape:connector-curvature="0"
         id="path5635"
         style="fill-rule:evenodd;stroke-width:0.625;stroke-linejoin:round"
         d="M 8.7185878,4.0337352 -2.2072895,0.01601326 8.7185884,-4.0017078 c -1.7454984,2.3720609 -1.7354408,5.6174519 -6e-7,8.035443 z"
         transform="scale(-0.6,-0.6)" />
    </marker>
    <marker
       inkscape:stockid="Arrow2Mend"
       orient="auto"
       refY="0"
       refX="0"
       id="marker5637"
       style="overflow:visible">
      <path
         inkscape:connector-curvature="0"
         id="path5639"
         style="fill-rule:evenodd;stroke-width:0.625;stroke-linejoin:round"
         d="M 8.7185878,4.0337352 -2.2072895,0.01601326 8.7185884,-4.0017078 c -1.7454984,2.3720609 -1.7354408,5.6174519 -6e-7,8.035443 z"
         transform="scale(-0.6,-0.6)" />
    </marker>
    <marker
       inkscape:stockid="Arrow2Mend"
       orient="auto"
       refY="0"
       refX="0"
       id="marker5641"
       style="overflow:visible">
      <path
         inkscape:connector-curvature="0"
         id="path5643"
         style="fill-rule:evenodd;stroke-width:0.625;stroke-linejoin:round"
         d="M 8.7185878,4.0337352 -2.2072895,0.01601326 8.7185884,-4.0017078 c -1.7454984,2.3720609 -1.7354408,5.6174519 -6e-7,8.035443 z"
         transform="scale(-0.6,-0.6)" />
    </marker>
    <marker
       inkscape:stockid="Arrow2Mend"
       orient="auto"
       refY="0"
       refX="0"
       id="marker5641-1"
       style="overflow:visible">
      <path
         inkscape:connector-curvature="0"
         id="path5643-1"
         style="fill-rule:evenodd;stroke-width:0.625;stroke-linejoin:round"
         d="M 8.7185878,4.0337352 -2.2072895,0.01601326 8.7185884,-4.0017078 c -1.7454984,2.3720609 -1.7354408,5.6174519 -6e-7,8.035443 z"
         transform="scale(-0.6,-0.6)" />
    </marker>
    <marker
       inkscape:stockid="Arrow2Mend"
       orient="auto"
       refY="0"
       refX="0"
       id="marker4425"
       style="overflow:visible">
      <path
         inkscape:connector-curvature="0"
         id="path4427"
         style="fill-rule:evenodd;stroke-width:0.625;stroke-linejoin:round"
         d="M 8.7185878,4.0337352 -2.2072895,0.01601326 8.7185884,-4.0017078 c -1.7454984,2.3720609 -1.7354408,5.6174519 -6e-7,8.035443 z"
         transform="scale(-0.6,-0.6)" />
    </marker>
    <marker
       inkscape:stockid="Arrow2Mend"
       orient="auto"
       refY="0"
       refX="0"
       id="Arrow2Mend-0"
       style="overflow:visible">
      <path
         inkscape:connector-curvature="0"
         id="path3851-93"
         style="fill-rule:evenodd;stroke-width:0.625;stroke-linejoin:round"
         d="M 8.7185878,4.0337352 -2.2072895,0.01601326 8.7185884,-4.0017078 c -1.7454984,2.3720609 -1.7354408,5.6174519 -6e-7,8.035443 z"
         transform="scale(-0.6,-0.6)" />
    </marker>
    <marker
       inkscape:stockid="Arrow2Mend"
       orient="auto"
       refY="0"
       refX="0"
       id="marker4431"
       style="overflow:visible">
      <path
         inkscape:connector-curvature="0"
         id="path4433"
         style="fill-rule:evenodd;stroke-width:0.625;stroke-linejoin:round"
         d="M 8.7185878,4.0337352 -2.2072895,0.01601326 8.7185884,-4.0017078 c -1.7454984,2.3720609 -1.7354408,5.6174519 -6e-7,8.035443 z"
         transform="scale(-0.6,-0.6)" />
    </marker>
    <marker
       inkscape:stockid="Arrow2Mend"
       orient="auto"
       refY="0"
       refX="0"
       id="marker4435"
       style="overflow:visible">
      <path
         inkscape:connector-curvature="0"
         id="path4437"
         style="fill-rule:evenodd;stroke-width:0.625;stroke-linejoin:round"
         d="M 8.7185878,4.0337352 -2.2072895,0.01601326 8.7185884,-4.0017078 c -1.7454984,2.3720609 -1.7354408,5.6174519 -6e-7,8.035443 z"
         transform="scale(-0.6,-0.6)" />
    </marker>
    <marker
       inkscape:stockid="Arrow2Mend"
       orient="auto"
       refY="0"
       refX="0"
       id="marker4439"
       style="overflow:visible">
      <path
         inkscape:connector-curvature="0"
         id="path4441"
         style="fill-rule:evenodd;stroke-width:0.625;stroke-linejoin:round"
         d="M 8.7185878,4.0337352 -2.2072895,0.01601326 8.7185884,-4.0017078 c -1.7454984,2.3720609 -1.7354408,5.6174519 -6e-7,8.035443 z"
         transform="scale(-0.6,-0.6)" />
    </marker>
    <marker
       inkscape:stockid="Arrow2Mend"
       orient="auto"
       refY="0"
       refX="0"
       id="marker5129-8"
       style="overflow:visible">
      <path
         inkscape:connector-curvature="0"
         id="path5131-0"
         style="fill-rule:evenodd;stroke-width:0.625;stroke-linejoin:round"
         d="M 8.7185878,4.0337352 -2.2072895,0.01601326 8.7185884,-4.0017078 c -1.7454984,2.3720609 -1.7354408,5.6174519 -6e-7,8.035443 z"
         transform="scale(-0.6,-0.6)" />
    </marker>
    <marker
       inkscape:stockid="Arrow2Mend"
       orient="auto"
       refY="0"
       refX="0"
       id="marker5032"
       style="overflow:visible">
      <path
         inkscape:connector-curvature="0"
         id="path5034"
         style="fill-rule:evenodd;stroke-width:0.625;stroke-linejoin:round"
         d="M 8.7185878,4.0337352 -2.2072895,0.01601326 8.7185884,-4.0017078 c -1.7454984,2.3720609 -1.7354408,5.6174519 -6e-7,8.035443 z"
         transform="scale(-0.6,-0.6)" />
    </marker>
    <marker
       inkscape:stockid="Arrow2Mend"
       orient="auto"
       refY="0"
       refX="0"
       id="Arrow2Mend-9"
       style="overflow:visible">
      <path
         inkscape:connector-curvature="0"
         id="path3851-48"
         style="fill-rule:evenodd;stroke-width:0.625;stroke-linejoin:round"
         d="M 8.7185878,4.0337352 -2.2072895,0.01601326 8.7185884,-4.0017078 c -1.7454984,2.3720609 -1.7354408,5.6174519 -6e-7,8.035443 z"
         transform="scale(-0.6,-0.6)" />
    </marker>
    <marker
       inkscape:stockid="Arrow2Mend"
       orient="auto"
       refY="0"
       refX="0"
       id="marker5038"
       style="overflow:visible">
      <path
         inkscape:connector-curvature="0"
         id="path5040"
         style="fill-rule:evenodd;stroke-width:0.625;stroke-linejoin:round"
         d="M 8.7185878,4.0337352 -2.2072895,0.01601326 8.7185884,-4.0017078 c -1.7454984,2.3720609 -1.7354408,5.6174519 -6e-7,8.035443 z"
         transform="scale(-0.6,-0.6)" />
    </marker>
    <marker
       inkscape:stockid="Arrow2Mend"
       orient="auto"
       refY="0"
       refX="0"
       id="marker5042"
       style="overflow:visible">
      <path
         inkscape:connector-curvature="0"
         id="path5044"
         style="fill-rule:evenodd;stroke-width:0.625;stroke-linejoin:round"
         d="M 8.7185878,4.0337352 -2.2072895,0.01601326 8.7185884,-4.0017078 c -1.7454984,2.3720609 -1.7354408,5.6174519 -6e-7,8.035443 z"
         transform="scale(-0.6,-0.6)" />
    </marker>
    <marker
       inkscape:stockid="Arrow2Mend"
       orient="auto"
       refY="0"
       refX="0"
       id="marker5046"
       style="overflow:visible">
      <path
         inkscape:connector-curvature="0"
         id="path5048"
         style="fill-rule:evenodd;stroke-width:0.625;stroke-linejoin:round"
         d="M 8.7185878,4.0337352 -2.2072895,0.01601326 8.7185884,-4.0017078 c -1.7454984,2.3720609 -1.7354408,5.6174519 -6e-7,8.035443 z"
         transform="scale(-0.6,-0.6)" />
    </marker>
    <marker
       inkscape:stockid="Arrow2Mend"
       orient="auto"
       refY="0"
       refX="0"
       id="marker5050"
       style="overflow:visible">
      <path
         inkscape:connector-curvature="0"
         id="path5052"
         style="fill-rule:evenodd;stroke-width:0.625;stroke-linejoin:round"
         d="M 8.7185878,4.0337352 -2.2072895,0.01601326 8.7185884,-4.0017078 c -1.7454984,2.3720609 -1.7354408,5.6174519 -6e-7,8.035443 z"
         transform="scale(-0.6,-0.6)" />
    </marker>
    <marker
       inkscape:stockid="Arrow2Mend"
       orient="auto"
       refY="0"
       refX="0"
       id="marker5054"
       style="overflow:visible">
      <path
         inkscape:connector-curvature="0"
         id="path5056"
         style="fill-rule:evenodd;stroke-width:0.625;stroke-linejoin:round"
         d="M 8.7185878,4.0337352 -2.2072895,0.01601326 8.7185884,-4.0017078 c -1.7454984,2.3720609 -1.7354408,5.6174519 -6e-7,8.035443 z"
         transform="scale(-0.6,-0.6)" />
    </marker>
  </defs>
  <sodipodi:namedview
     id="base"
     pagecolor="#ffffff"
     bordercolor="#666666"
     borderopacity="1.0"
     inkscape:pageopacity="0.0"
     inkscape:pageshadow="2"
     inkscape:zoom="2.67"
     inkscape:cx="101.08421"
     inkscape:cy="318.63757"
     inkscape:document-units="px"
     inkscape:current-layer="layer1"
     showgrid="false"
     units="in"
     inkscape:window-width="1855"
     inkscape:window-height="1056"
     inkscape:window-x="65"
     inkscape:window-y="24"
     inkscape:window-maximized="1"
     fit-margin-top="0"
     fit-margin-left="0"
     fit-margin-right="0"
     fit-margin-bottom="0" />
  <metadata
     id="metadata7">
    <rdf:RDF>
      <cc:Work
         rdf:about="">
        <dc:format>image/svg+xml</dc:format>
        <dc:type
           rdf:resource="http://purl.org/dc/dcmitype/StillImage" />
      </cc:Work>
    </rdf:RDF>
  </metadata>
  <g
     inkscape:label="Layer 1"
     inkscape:groupmode="layer"
     id="layer1"
     transform="translate(-7.0299659,-772.85975)">
    <rect
       style="fill:none;stroke:#000000;stroke-width:1;stroke-miterlimit:4;stroke-opacity:1;stroke-dasharray:none;stroke-dashoffset:0"
       id="rect2985"
       width="137"
       height="215"
       x="8.5"
       y="13.5"
       transform="translate(0,759.85975)" />
    <path
       sodipodi:type="arc"
       style="fill:none;stroke:#000000;stroke-width:1;stroke-miterlimit:4;stroke-opacity:1;stroke-dasharray:none;stroke-dashoffset:0"
       id="path3796-7-8"
       sodipodi:cx="66.25"
       sodipodi:cy="28.75"
       sodipodi:rx="5.25"
       sodipodi:ry="5.25"
       d="M 71.5,28.75 C 71.5,31.649495 69.149495,34 66.25,34 63.350505,34 61,31.649495 61,28.75 c 0,-2.899495 2.350505,-5.25 5.25,-5.25 2.899495,0 5.25,2.350505 5.25,5.25 z"
       transform="matrix(-1.0347648,0,0,0.98011758,148.45177,767.57101)" />
    <path
       style="fill:none;stroke:#000000;stroke-width:1.12197495;stroke-linecap:butt;stroke-linejoin:miter;stroke-miterlimit:4;stroke-opacity:1;stroke-dasharray:none;marker-end:url(#Arrow2Mend)"
       d="m 84.03998,799.29825 16.81144,30.07104"
       id="path3816-6-9-1"
       inkscape:connector-type="polyline"
       inkscape:connector-curvature="3" />
    <path
       style="fill:none;stroke:#000000;stroke-width:1.23953712;stroke-linecap:butt;stroke-linejoin:miter;stroke-miterlimit:4;stroke-opacity:1;stroke-dasharray:none;marker-end:url(#Arrow2Mend)"
       d="M 75.23119,798.91022 55.447678,827.96931"
       id="path3816-6-4"
       inkscape:connector-type="polyline"
       inkscape:connector-curvature="3" />
    <path
       sodipodi:type="arc"
       style="fill:none;stroke:#000000;stroke-width:1;stroke-miterlimit:4;stroke-opacity:1;stroke-dasharray:none;stroke-dashoffset:0"
       id="path3796-7-6-1"
       sodipodi:cx="66.25"
       sodipodi:cy="28.75"
       sodipodi:rx="5.25"
       sodipodi:ry="5.25"
       d="M 71.5,28.75 C 71.5,31.649495 69.149495,34 66.25,34 63.350505,34 61,31.649495 61,28.75 c 0,-2.899495 2.350505,-5.25 5.25,-5.25 2.899495,0 5.25,2.350505 5.25,5.25 z"
       transform="translate(-12.954621,806.07035)" />
    <path
       sodipodi:type="arc"
       style="fill:none;stroke:#000000;stroke-width:1;stroke-miterlimit:4;stroke-opacity:1;stroke-dasharray:none;stroke-dashoffset:0"
       id="path3796-7-6-1-6"
       sodipodi:cx="66.25"
       sodipodi:cy="28.75"
       sodipodi:rx="5.25"
       sodipodi:ry="5.25"
       d="M 71.5,28.75 C 71.5,31.649495 69.149495,34 66.25,34 63.350505,34 61,31.649495 61,28.75 c 0,-2.899495 2.350505,-5.25 5.25,-5.25 2.899495,0 5.25,2.350505 5.25,5.25 z"
       transform="translate(35.526505,806.37527)" />
    <path
       sodipodi:type="arc"
       style="fill:none;stroke:#000000;stroke-width:1;stroke-miterlimit:4;stroke-opacity:1;stroke-dasharray:none;stroke-dashoffset:0"
       id="path3796-7-82"
       sodipodi:cx="66.25"
       sodipodi:cy="28.75"
       sodipodi:rx="5.25"
       sodipodi:ry="5.25"
       d="M 71.5,28.75 C 71.5,31.649495 69.149495,34 66.25,34 63.350505,34 61,31.649495 61,28.75 c 0,-2.899495 2.350505,-5.25 5.25,-5.25 2.899495,0 5.25,2.350505 5.25,5.25 z"
       transform="translate(-8.1489,859.21459)" />
    <path
       style="fill:none;stroke:#000000;stroke-width:1.09239173;stroke-linecap:butt;stroke-linejoin:miter;stroke-miterlimit:4;stroke-opacity:1;stroke-dasharray:none;marker-end:url(#Arrow2Mend)"
       d="m 55.189197,891.82818 -12.91766,34.56521"
       id="path3816-6-2"
       inkscape:connector-type="polyline"
       inkscape:connector-curvature="3" />
    <path
       sodipodi:type="arc"
       style="fill:none;stroke:#000000;stroke-width:1;stroke-miterlimit:4;stroke-opacity:1;stroke-dasharray:none;stroke-dashoffset:0"
       id="path3796-7-6-4"
       sodipodi:cx="66.25"
       sodipodi:cy="28.75"
       sodipodi:rx="5.25"
       sodipodi:ry="5.25"
       d="M 71.5,28.75 C 71.5,31.649495 69.149495,34 66.25,34 63.350505,34 61,31.649495 61,28.75 c 0,-2.899495 2.350505,-5.25 5.25,-5.25 2.899495,0 5.25,2.350505 5.25,5.25 z"
       transform="translate(-24.953813,903.54407)" />
    <path
       style="fill:none;stroke:#000000;stroke-width:1.21107292;stroke-linecap:butt;stroke-linejoin:miter;stroke-miterlimit:4;stroke-opacity:1;stroke-dasharray:none;marker-end:url(#Arrow2Mend)"
       d="m 61.752064,892.07817 15.27015,35.93879"
       id="path3816-6-9-2"
       inkscape:connector-type="polyline"
       inkscape:connector-curvature="3" />
    <path
       sodipodi:type="arc"
       style="fill:none;stroke:#000000;stroke-width:1;stroke-miterlimit:4;stroke-opacity:1;stroke-dasharray:none;stroke-dashoffset:0"
       id="path3796-7-6-7-5"
       sodipodi:cx="66.25"
       sodipodi:cy="28.75"
       sodipodi:rx="5.25"
       sodipodi:ry="5.25"
       d="M 71.5,28.75 C 71.5,31.649495 69.149495,34 66.25,34 63.350505,34 61,31.649495 61,28.75 c 0,-2.899495 2.350505,-5.25 5.25,-5.25 2.899495,0 5.25,2.350505 5.25,5.25 z"
       transform="translate(10.759957,905.6557)" />
    <path
       sodipodi:type="arc"
       style="fill:none;stroke:#000000;stroke-width:1;stroke-miterlimit:4;stroke-opacity:1;stroke-dasharray:none;stroke-dashoffset:0"
       id="path3796-7-82-1"
       sodipodi:cx="66.25"
       sodipodi:cy="28.75"
       sodipodi:rx="5.25"
       sodipodi:ry="5.25"
       d="M 71.5,28.75 C 71.5,31.649495 69.149495,34 66.25,34 63.350505,34 61,31.649495 61,28.75 c 0,-2.899495 2.350505,-5.25 5.25,-5.25 2.899495,0 5.25,2.350505 5.25,5.25 z"
       transform="translate(48.259957,859.82442)" />
    <path
       style="fill:none;stroke:#000000;stroke-width:1.09239173;stroke-linecap:butt;stroke-linejoin:miter;stroke-miterlimit:4;stroke-opacity:1;stroke-dasharray:none;marker-end:url(#Arrow2Mend)"
       d="M 111.59805,892.43801 98.680394,927.00322"
       id="path3816-6-2-9"
       inkscape:connector-type="polyline"
       inkscape:connector-curvature="3" />
    <path
       sodipodi:type="arc"
       style="fill:none;stroke:#000000;stroke-width:1;stroke-miterlimit:4;stroke-opacity:1;stroke-dasharray:none;stroke-dashoffset:0"
       id="path3796-7-6-4-3"
       sodipodi:cx="66.25"
       sodipodi:cy="28.75"
       sodipodi:rx="5.25"
       sodipodi:ry="5.25"
       d="M 71.5,28.75 C 71.5,31.649495 69.149495,34 66.25,34 63.350505,34 61,31.649495 61,28.75 c 0,-2.899495 2.350505,-5.25 5.25,-5.25 2.899495,0 5.25,2.350505 5.25,5.25 z"
       transform="translate(31.455044,904.1539)" />
    <path
       style="fill:none;stroke:#000000;stroke-width:1.21107292;stroke-linecap:butt;stroke-linejoin:miter;stroke-miterlimit:4;stroke-opacity:1;stroke-dasharray:none;marker-end:url(#Arrow2Mend)"
       d="m 118.16092,892.688 15.27015,35.93879"
       id="path3816-6-9-2-8"
       inkscape:connector-type="polyline"
       inkscape:connector-curvature="3" />
    <path
       sodipodi:type="arc"
       style="fill:none;stroke:#000000;stroke-width:1;stroke-miterlimit:4;stroke-opacity:1;stroke-dasharray:none;stroke-dashoffset:0"
       id="path3796-7-6-7-5-8"
       sodipodi:cx="66.25"
       sodipodi:cy="28.75"
       sodipodi:rx="5.25"
       sodipodi:ry="5.25"
       d="M 71.5,28.75 C 71.5,31.649495 69.149495,34 66.25,34 63.350505,34 61,31.649495 61,28.75 c 0,-2.899495 2.350505,-5.25 5.25,-5.25 2.899495,0 5.25,2.350505 5.25,5.25 z"
       transform="translate(67.168814,906.26553)" />
    <path
       style="fill:none;stroke:#000000;stroke-width:0.91426575px;stroke-linecap:butt;stroke-linejoin:miter;stroke-opacity:1;marker-end:url(#marker5129)"
       d="M 98.203606,839.69928 60.977371,883.13385"
       id="path5161"
       inkscape:connector-type="polyline"
       inkscape:connector-curvature="3" />
    <path
       style="fill:none;stroke:#000000;stroke-width:1.0450989px;stroke-linecap:butt;stroke-linejoin:miter;stroke-opacity:1;marker-end:url(#marker5129)"
       d="m 104.06189,840.5402 9.82872,41.65714"
       id="path5371"
       inkscape:connector-type="polyline"
       inkscape:connector-curvature="3" />
    <flowRoot
       xml:space="preserve"
       id="flowRoot5583"
       style="font-size:10px;font-style:normal;font-weight:normal;text-align:center;line-height:125%;letter-spacing:0px;word-spacing:0px;text-anchor:middle;fill:#000000;fill-opacity:1;stroke:none;font-family:Sans"
       transform="translate(10.06212,758.22239)"><flowRegion
         id="flowRegion5585"><rect
           id="rect5587"
           width="61.549198"
           height="26.925737"
           x="43.297611"
           y="201.636"
           style="text-align:center;text-anchor:middle" /></flowRegion><flowPara
         id="flowPara5589">Root Tree</flowPara><flowPara
         id="flowPara5719">(a)</flowPara><flowPara
         id="flowPara5715">(aaa</flowPara><flowPara
         id="flowPara5711">(</flowPara><flowPara
         id="flowPara5707">(a(a)(</flowPara><flowPara
         id="flowPara5709" /><flowPara
         id="flowPara5713" /><flowPara
         id="flowPara5717" /></flowRoot>    <rect
       style="fill:none;stroke:#000000;stroke-width:0.81470311;stroke-miterlimit:4;stroke-opacity:1;stroke-dasharray:none;stroke-dashoffset:0"
       id="rect2985-6"
       width="137"
       height="142.70436"
       x="151.34209"
       y="773.80371" />
    <path
       sodipodi:type="arc"
       style="fill:none;stroke:#000000;stroke-width:1;stroke-miterlimit:4;stroke-opacity:1;stroke-dasharray:none;stroke-dashoffset:0"
       id="path3796-7-6-1-6-7"
       sodipodi:cx="66.25"
       sodipodi:cy="28.75"
       sodipodi:rx="5.25"
       sodipodi:ry="5.25"
       d="M 71.5,28.75 C 71.5,31.649495 69.149495,34 66.25,34 63.350505,34 61,31.649495 61,28.75 c 0,-2.899495 2.350505,-5.25 5.25,-5.25 2.899495,0 5.25,2.350505 5.25,5.25 z"
       transform="translate(155.5645,761.82875)" />
    <path
       sodipodi:type="arc"
       style="fill:none;stroke:#000000;stroke-width:1;stroke-miterlimit:4;stroke-opacity:1;stroke-dasharray:none;stroke-dashoffset:0"
       id="path3796-7-82-0"
       sodipodi:cx="66.25"
       sodipodi:cy="28.75"
       sodipodi:rx="5.25"
       sodipodi:ry="5.25"
       d="M 71.5,28.75 C 71.5,31.649495 69.149495,34 66.25,34 63.350505,34 61,31.649495 61,28.75 c 0,-2.899495 2.350505,-5.25 5.25,-5.25 2.899495,0 5.25,2.350505 5.25,5.25 z"
       transform="translate(127.07037,799.28583)" />
    <path
       style="fill:none;stroke:#000000;stroke-width:1.09239173;stroke-linecap:butt;stroke-linejoin:miter;stroke-miterlimit:4;stroke-opacity:1;stroke-dasharray:none;marker-end:url(#Arrow2Mend)"
       d="m 190.40847,831.89938 -12.91766,34.5653"
       id="path3816-6-2-3"
       inkscape:connector-type="polyline"
       inkscape:connector-curvature="3" />
    <path
       sodipodi:type="arc"
       style="fill:none;stroke:#000000;stroke-width:1;stroke-miterlimit:4;stroke-opacity:1;stroke-dasharray:none;stroke-dashoffset:0"
       id="path3796-7-6-4-8"
       sodipodi:cx="66.25"
       sodipodi:cy="28.75"
       sodipodi:rx="5.25"
       sodipodi:ry="5.25"
       d="M 71.5,28.75 C 71.5,31.649495 69.149495,34 66.25,34 63.350505,34 61,31.649495 61,28.75 c 0,-2.899495 2.350505,-5.25 5.25,-5.25 2.899495,0 5.25,2.350505 5.25,5.25 z"
       transform="translate(110.26545,843.61528)" />
    <path
       style="fill:none;stroke:#000000;stroke-width:1.21107292;stroke-linecap:butt;stroke-linejoin:miter;stroke-miterlimit:4;stroke-opacity:1;stroke-dasharray:none;marker-end:url(#Arrow2Mend)"
       d="m 196.97133,832.14938 15.27015,35.9388"
       id="path3816-6-9-2-85"
       inkscape:connector-type="polyline"
       inkscape:connector-curvature="3" />
    <path
       sodipodi:type="arc"
       style="fill:none;stroke:#000000;stroke-width:1;stroke-miterlimit:4;stroke-opacity:1;stroke-dasharray:none;stroke-dashoffset:0"
       id="path3796-7-6-7-5-81"
       sodipodi:cx="66.25"
       sodipodi:cy="28.75"
       sodipodi:rx="5.25"
       sodipodi:ry="5.25"
       d="M 71.5,28.75 C 71.5,31.649495 69.149495,34 66.25,34 63.350505,34 61,31.649495 61,28.75 c 0,-2.899495 2.350505,-5.25 5.25,-5.25 2.899495,0 5.25,2.350505 5.25,5.25 z"
       transform="translate(145.97923,845.72698)" />
    <path
       sodipodi:type="arc"
       style="fill:none;stroke:#000000;stroke-width:1;stroke-miterlimit:4;stroke-opacity:1;stroke-dasharray:none;stroke-dashoffset:0"
       id="path3796-7-82-1-5"
       sodipodi:cx="66.25"
       sodipodi:cy="28.75"
       sodipodi:rx="5.25"
       sodipodi:ry="5.25"
       d="M 71.5,28.75 C 71.5,31.649495 69.149495,34 66.25,34 63.350505,34 61,31.649495 61,28.75 c 0,-2.899495 2.350505,-5.25 5.25,-5.25 2.899495,0 5.25,2.350505 5.25,5.25 z"
       transform="translate(183.47923,799.89566)" />
    <path
       style="fill:none;stroke:#000000;stroke-width:1.09239173;stroke-linecap:butt;stroke-linejoin:miter;stroke-miterlimit:4;stroke-opacity:1;stroke-dasharray:none;marker-end:url(#Arrow2Mend)"
       d="m 246.81732,832.50928 -12.91766,34.5652"
       id="path3816-6-2-9-2"
       inkscape:connector-type="polyline"
       inkscape:connector-curvature="3" />
    <path
       sodipodi:type="arc"
       style="fill:none;stroke:#000000;stroke-width:1;stroke-miterlimit:4;stroke-opacity:1;stroke-dasharray:none;stroke-dashoffset:0"
       id="path3796-7-6-4-3-0"
       sodipodi:cx="66.25"
       sodipodi:cy="28.75"
       sodipodi:rx="5.25"
       sodipodi:ry="5.25"
       d="M 71.5,28.75 C 71.5,31.649495 69.149495,34 66.25,34 63.350505,34 61,31.649495 61,28.75 c 0,-2.899495 2.350505,-5.25 5.25,-5.25 2.899495,0 5.25,2.350505 5.25,5.25 z"
       transform="translate(166.67431,844.22518)" />
    <path
       style="fill:none;stroke:#000000;stroke-width:1.21107292;stroke-linecap:butt;stroke-linejoin:miter;stroke-miterlimit:4;stroke-opacity:1;stroke-dasharray:none;marker-end:url(#Arrow2Mend)"
       d="m 253.38019,832.75928 15.27015,35.9388"
       id="path3816-6-9-2-8-6"
       inkscape:connector-type="polyline"
       inkscape:connector-curvature="3" />
    <path
       sodipodi:type="arc"
       style="fill:none;stroke:#000000;stroke-width:1;stroke-miterlimit:4;stroke-opacity:1;stroke-dasharray:none;stroke-dashoffset:0"
       id="path3796-7-6-7-5-8-2"
       sodipodi:cx="66.25"
       sodipodi:cy="28.75"
       sodipodi:rx="5.25"
       sodipodi:ry="5.25"
       d="M 71.5,28.75 C 71.5,31.649495 69.149495,34 66.25,34 63.350505,34 61,31.649495 61,28.75 c 0,-2.899495 2.350505,-5.25 5.25,-5.25 2.899495,0 5.25,2.350505 5.25,5.25 z"
       transform="translate(202.38808,846.33678)" />
    <flowRoot
       transform="translate(154.55127,684.55223)"
       xml:space="preserve"
       id="flowRoot5583-6"
       style="font-size:10px;font-style:normal;font-weight:normal;text-align:center;line-height:125%;letter-spacing:0px;word-spacing:0px;text-anchor:middle;fill:#000000;fill-opacity:1;stroke:none;font-family:Sans"><flowRegion
         id="flowRegion5585-3"><rect
           id="rect5587-3"
           width="50.31324"
           height="25.802143"
           x="43.297611"
           y="201.636"
           style="text-align:center;text-anchor:middle" /></flowRegion><flowPara
         id="flowPara6497">Workdir</flowPara><flowPara
         id="flowPara5740">(b)</flowPara></flowRoot>    <path
       style="fill:none;stroke:#000000;stroke-width:1px;stroke-linecap:butt;stroke-linejoin:miter;stroke-opacity:1;marker-end:url(#marker5641)"
       d="M 217.7077,33.629082 195.75398,62.900705"
       id="path5791"
       inkscape:connector-type="polyline"
       inkscape:connector-curvature="0"
       transform="translate(0,759.85975)" />
    <path
       style="fill:none;stroke:#000000;stroke-width:1px;stroke-linecap:butt;stroke-linejoin:miter;stroke-opacity:1;marker-end:url(#marker5641)"
       d="m 224.41578,33.933995 22.25863,30.491274"
       id="path6025"
       inkscape:connector-type="polyline"
       inkscape:connector-curvature="0"
       transform="translate(0,759.85975)" />
    <path
       style="fill:none;stroke:#000000;stroke-width:1;stroke-linecap:butt;stroke-linejoin:miter;stroke-miterlimit:4;stroke-opacity:1;stroke-dasharray:1, 1;stroke-dashoffset:0"
       d="m 98.876404,59.541199 c -0.83994,0.155136 -1.452689,0.858761 -2.247191,1.123595 -0.118437,0.03948 -0.256094,-0.03948 -0.374531,0 -0.264834,0.08828 -0.489871,0.270855 -0.749064,0.374532 -0.539527,0.215811 -1.370748,0.37263 -1.872659,0.749064 -1.393441,1.04508 -0.03958,0.581585 -1.872659,1.498127 -0.353112,0.176556 -0.807763,0.137657 -1.123596,0.374532 -0.223328,0.167495 -0.177136,0.551668 -0.374532,0.749063 -0.197395,0.197396 -0.509686,0.230906 -0.749063,0.374532 -0.385985,0.231591 -0.737612,0.517473 -1.123596,0.749064 -0.239377,0.143626 -0.525736,0.207036 -0.749064,0.374532 -0.282489,0.211867 -0.499375,0.499375 -0.749063,0.749063 -0.62422,0.62422 -1.24844,1.24844 -1.872659,1.87266 -0.249688,0.249687 -0.466574,0.537196 -0.749064,0.749063 -0.223328,0.167496 -0.551668,0.177136 -0.749064,0.374532 -0.909663,0.909664 0.111374,0.549971 -0.749063,1.123596 -0.232275,0.154849 -0.516789,0.219682 -0.749064,0.374531 -0.153868,0.102579 -1.021017,0.969728 -1.123596,1.123596 -0.154849,0.232275 -0.219682,0.516789 -0.374531,0.749064 -0.105834,0.15875 -0.968633,1.046114 -1.123596,1.123595 -0.111664,0.05583 -0.270655,-0.06925 -0.374532,0 -0.551113,0.367409 -0.947013,1.130718 -1.498127,1.498127 -2.715574,1.357787 0.592187,-0.394791 -1.123596,0.749064 -0.232274,0.15485 -0.551668,0.177136 -0.749063,0.374532 -0.197396,0.197396 -0.219682,0.516789 -0.374532,0.749064 -0.09794,0.146903 -0.276596,0.227628 -0.374532,0.374531 -0.15485,0.232275 -0.219682,0.516789 -0.374532,0.749064 -0.09794,0.146904 -0.249688,0.249688 -0.374532,0.374532 -0.124844,0.124844 -0.216615,0.295574 -0.374531,0.374532 -0.111664,0.05583 -0.286254,-0.08828 -0.374532,0 -0.08828,0.08828 0.08828,0.286254 0,0.374532 -0.08828,0.08828 -0.286254,-0.08828 -0.374532,0 -0.176556,0.176556 0.176556,0.572507 0,0.749063 -0.77492,0.77492 0.03029,-1.18418 -0.749064,0.374532 -0.111664,0.223328 0.176556,0.572508 0,0.749064 -0.08828,0.08828 -0.256094,-0.03948 -0.374532,0 -0.264834,0.08828 -0.551668,0.177136 -0.749063,0.374532 -0.08828,0.08828 0.05583,0.262868 0,0.374531 -0.07896,0.157917 -0.249688,0.249688 -0.374532,0.374532 -0.124844,0.124844 -0.216615,0.295574 -0.374532,0.374532 -0.111664,0.05583 -0.286254,-0.08828 -0.374532,0 -0.197395,0.197396 -0.219682,0.516789 -0.374532,0.749064 -0.09793,0.146903 -0.249688,0.249688 -0.374531,0.374532 -0.124844,0.124844 -0.249688,0.249688 -0.374532,0.374531 -0.124844,0 -0.286254,-0.08828 -0.374532,0 -0.08828,0.08828 0.05583,0.262868 0,0.374532 -0.07896,0.157917 -0.249688,0.249688 -0.374532,0.374532 -0.324914,0.324915 -1.339282,1.233384 -1.498127,1.498127 -0.406237,0.677062 -0.395952,1.540967 -0.749064,2.247191 -0.07896,0.157917 -0.276596,0.227629 -0.374532,0.374532 -0.564828,0.847242 -0.748473,1.872069 -1.498127,2.621723 -0.318291,0.318291 -0.853517,0.388959 -1.123596,0.749064 -0.149812,0.19975 0.111664,0.525736 0,0.749064 -0.157916,0.315832 -0.499375,0.499375 -0.749063,0.749063 -0.249688,0.249688 -0.466574,0.537197 -0.749064,0.749064 -0.223328,0.167496 -0.551668,0.177136 -0.749064,0.374532 -0.197395,0.197395 -0.207036,0.525736 -0.374532,0.749063 -0.3178,0.423735 -0.829788,0.682885 -1.123595,1.123596 -0.15485,0.232275 -0.200142,0.531077 -0.374532,0.749064 -0.839769,1.049712 -1.636756,1.400853 -2.247191,2.621722 -0.05583,0.11166 0,0.24969 0,0.37453 -0.249688,0.24969 -0.567389,0.44627 -0.749064,0.74907 -0.203118,0.33853 -0.171413,0.78506 -0.374531,1.12359 -0.181675,0.30279 -0.591148,0.43323 -0.749064,0.74907 -0.111664,0.22332 0.07896,0.51218 0,0.74906 -0.05583,0.16749 -0.276596,0.22763 -0.374532,0.37453 -0.124844,0.24969 -0.249688,0.49938 -0.374532,0.74906 0,0.12485 0.05583,0.26287 0,0.37454 -0.157916,0.31583 -0.591147,0.43323 -0.749063,0.74906 -0.05583,0.11166 0,0.24969 0,0.37453 0,0.24969 0.07896,0.51219 0,0.74907 -0.05583,0.16749 -0.276597,0.22762 -0.374532,0.37453 -0.15485,0.23227 -0.249688,0.49937 -0.374532,0.74906 -0.124844,0.24969 -0.270855,0.48987 -0.374532,0.74906 -0.215811,0.53953 -0.372631,1.37075 -0.749064,1.87266 -0.211867,0.28249 -0.537196,0.46658 -0.749063,0.74907 -0.167496,0.22332 -0.177136,0.55167 -0.374532,0.74906 -0.197396,0.1974 -0.551668,0.17714 -0.749064,0.37453 -0.249688,0.37453 -0.499376,0.74907 -0.749063,1.1236 0,0.12484 0.05583,0.26287 0,0.37453 -0.857043,1.71409 0.155233,-1.58929 -0.749064,1.1236 -0.03948,0.11843 0.05583,0.26286 0,0.37453 -0.07896,0.15791 -0.276596,0.22763 -0.374532,0.37453 -0.15485,0.23227 -0.219682,0.51679 -0.374532,0.74906 -0.09793,0.14691 -0.3187,0.20704 -0.374532,0.37453 -0.07896,0.23688 0.07896,0.51219 0,0.74907 -0.05583,0.16749 -0.295573,0.21661 -0.374531,0.37453 -0.05583,0.11166 0.03948,0.25609 0,0.37453 -0.08828,0.26484 -0.306826,0.47824 -0.374532,0.74907 -0.06056,0.24223 0.07896,0.51218 0,0.74906 -0.05583,0.1675 -0.276596,0.22763 -0.374532,0.37453 -0.15485,0.23228 -0.286254,0.48423 -0.374532,0.74906 -0.03948,0.11844 0.08828,0.28626 0,0.37454 -0.08828,0.0883 -0.286254,-0.0883 -0.374532,0 -0.176556,0.17655 0.111664,0.52573 0,0.74906 -0.779356,1.55871 0.02586,-0.40039 -0.749063,0.37453 -0.946032,0.94603 -0.143919,0.43176 -0.374532,1.1236 -0.08828,0.26483 -0.286254,0.48423 -0.374532,0.74906 -0.03948,0.11844 0.06925,0.27066 0,0.37453 -0.195871,0.29381 -0.567389,0.44628 -0.749064,0.74907 -1.447852,2.41308 0.905936,-0.18825 -1.123595,2.24719 -1.035394,1.24247 -1.175241,0.85235 -1.872659,2.24719 -0.176556,0.35311 -0.197976,0.77048 -0.374532,1.12359 -0.201305,0.40261 -0.547759,0.72099 -0.749064,1.1236 -0.05583,0.11166 0,0.24969 0,0.37453 0,0.37453 0.07345,0.75634 0,1.1236 -0.05475,0.27374 -0.270855,0.48987 -0.374532,0.74906 -0.146622,0.36656 -0.22791,0.75704 -0.374532,1.1236 -0.103677,0.25919 -0.270854,0.48987 -0.374531,0.74906 -0.146622,0.36655 -0.227911,0.75704 -0.374532,1.1236 -0.103678,0.25919 -0.270855,0.48987 -0.374532,0.74906 -0.146622,0.36655 -0.22791,0.75704 -0.374532,1.12359 -0.444989,1.11248 -1.344058,1.93906 -1.872659,2.99626 -0.353112,0.70622 -0.395952,1.54097 -0.749064,2.24719 -1.880697,3.76139 0.471724,-1.9746 -1.498127,2.62172 -0.155516,0.36287 -0.249688,0.74907 -0.374532,1.1236 -0.124844,0.37453 -0.325564,0.73185 -0.374532,1.12359 -0.07743,0.6194 0.12242,1.26057 0,1.87266 -0.13185,0.65925 -0.536462,1.23486 -0.749064,1.87266 -0.759629,0.78684 -0.160426,1.7653 -0.374531,2.62173 -0.04282,0.17128 -0.249688,0.24968 -0.374532,0.37453 -0.249688,0.24969 -0.6374,0.41407 -0.749064,0.74906 -0.157916,0.47375 0.09794,1.00845 0,1.49813 -0.15485,0.77425 -0.607819,1.47034 -0.749064,2.24719 -0.111663,0.61415 0,1.24844 0,1.87266 0,0.37453 0,0.74906 0,1.12359 0,2.12235 0,4.2447 0,6.36705 0,1.74781 0,3.49563 0,5.24344 0,0.46544 -0.07436,2.17556 0,2.62172 0.408947,2.45368 0.164467,-0.0456 1.123596,1.87266 0.593357,1.18672 -0.775057,0.34854 0.374532,1.49813 0.197395,0.1974 0.594214,0.14226 0.749063,0.37453 0.138502,0.20776 -0.07896,0.51219 0,0.74907 0.111664,0.33499 0.553193,0.45525 0.749064,0.74906 0.15485,0.23227 0.156545,0.57467 0.374532,0.74906 0.499376,0.24969 0.998752,0.49938 1.498127,0.74907 0.124844,0 0.262868,-0.0558 0.374532,0 0.40261,0.2013 0.720986,0.54776 1.123596,0.74906 0.706224,0.35311 1.540967,0.39595 2.247191,0.74906 4.562533,2.28127 -2.7227,-1.02644 2.247191,1.87266 1.062077,0.61955 2.173901,1.21651 3.370786,1.49813 0.972202,0.22875 2.01461,-0.18406 2.996255,0 1.048397,0.19658 1.941389,0.96537 2.996255,1.1236 5.287508,0.79312 2.974223,-0.39657 6.741573,0 4.155414,0.43741 8.268193,1.42892 12.35955,2.24719 1.24844,0.24969 2.486241,0.5602 3.745319,0.74906 1.240784,0.18612 2.504533,0.18842 3.745318,0.37453 1.259077,0.18886 2.502473,0.47288 3.745318,0.74907 1.004975,0.22332 1.973817,0.62877 2.996255,0.74906 1.115899,0.13128 2.254063,-0.12408 3.370786,0 6.638315,0.73759 0.230459,0.67992 6.367042,1.49813 0.866241,0.1155 1.747815,0 2.621722,0 1.87266,0 3.745319,0 5.617978,0 0.74906,0 1.49813,0 2.24719,0 0.49938,0 1.01366,0.12111 1.49813,0 4.86562,-1.21641 0.0884,-0.23146 1.87266,-1.1236 0.19351,-0.0968 2.05638,0.0318 2.24719,0 0.38942,-0.0649 0.73417,-0.30963 1.12359,-0.37453 1.33255,-0.22209 1.18052,0.2144 2.62173,0.37453 0.6204,0.0689 1.24844,0 1.87266,0 0.99875,0.24969 1.97873,0.59252 2.99625,0.74907 0.61696,0.0949 1.24844,0 1.87266,0 0.62422,0 1.24844,0 1.87266,0 2.12235,0 4.24469,0 6.36704,0 0.19585,0 1.39965,-0.0492 1.49813,0 0.15791,0.0789 0.21661,0.29557 0.37453,0.37453 0.0418,0.0209 1.83086,0.0209 1.87266,0 0.15792,-0.079 0.21661,-0.29558 0.37453,-0.37453 0.11166,-0.0558 0.24969,0 0.37453,0 0.12485,-0.12485 0.21662,-0.29558 0.37453,-0.37454 0.11167,-0.0558 0.26287,0.0558 0.37454,0 0.31583,-0.15791 0.45525,-0.55319 0.74906,-0.74906 0.46455,-0.3097 1.03358,-0.43936 1.49813,-0.74906 0.32318,-0.21546 0.83105,-0.83106 1.12359,-1.1236 0.12485,-0.12484 0.24969,-0.24969 0.37453,-0.37453 0.12485,-0.12484 0.29558,-0.21662 0.37454,-0.37453 0.0558,-0.11167 -0.11167,-0.3187 0,-0.37453 0.22332,-0.11167 0.52573,0.11166 0.74906,0 0.22333,-0.11167 -0.17656,-0.57251 0,-0.74907 0.17656,-0.17655 0.52574,0.11167 0.74906,0 0.15792,-0.079 0.21662,-0.29557 0.37454,-0.37453 0.11166,-0.0558 0.26286,0.0558 0.37453,0 1.55871,-0.77936 -0.40039,0.0259 0.37453,-0.74906 0.19739,-0.1974 0.51679,-0.21969 0.74906,-0.37454 0.15576,-0.10383 1.43115,-1.36417 1.49813,-1.49812 0.0558,-0.11167 -0.0558,-0.26287 0,-0.37453 0.079,-0.15792 0.29557,-0.21662 0.37453,-0.37454 0.0558,-0.11166 0,-0.24968 0,-0.37453 0.12485,-0.12484 0.29558,-0.21661 0.37453,-0.37453 0.0558,-0.11166 -0.0558,-0.26287 0,-0.37453 0.079,-0.15792 0.29558,-0.21662 0.37454,-0.37453 0.0558,-0.11167 -0.0558,-0.26287 0,-0.37454 0.0789,-0.15791 0.29557,-0.21661 0.37453,-0.37453 0.11166,-0.22333 -0.11167,-0.52573 0,-0.74906 0.079,-0.15792 0.29557,-0.21662 0.37453,-0.37453 0.11166,-0.22333 -0.11166,-0.52574 0,-0.74907 0.079,-0.15791 0.29557,-0.21661 0.37453,-0.37453 0.1177,-0.2354 -0.1177,-1.26272 0,-1.49813 0.079,-0.15791 0.29557,-0.21661 0.37453,-0.37453 0.0558,-0.11166 0,-0.24969 0,-0.37453 0,-0.24969 0,-0.49938 0,-0.74906 0,-1.1236 0,-2.24719 0,-3.37079 0,-0.089 -0.042,-1.41418 0,-1.49813 0.079,-0.15791 0.3187,-0.20703 0.37453,-0.37453 0.0572,-0.17145 0,-1.66361 0,-1.87266 0,-0.99875 0,-1.9975 0,-2.99625 0,-0.37453 0.0735,-0.75634 0,-1.1236 -0.0547,-0.27374 -0.28625,-0.48423 -0.37453,-0.74906 -0.079,-0.23688 0,-0.49938 0,-0.74907 0,-0.74906 0,-1.49812 0,-2.24719 0,-0.24968 0.0606,-0.50683 0,-0.74906 -0.0677,-0.27082 -0.28625,-0.48423 -0.37453,-0.74906 -0.0395,-0.11844 0.0303,-0.25342 0,-0.37454 -0.0957,-0.383 -0.3187,-0.73277 -0.37453,-1.12359 -0.0706,-0.49436 0.0821,-1.00555 0,-1.49813 -0.0459,-0.27536 -0.27086,-0.48987 -0.37453,-0.74906 -0.14662,-0.36656 -0.30963,-0.73418 -0.37453,-1.1236 -0.0616,-0.36943 0.13909,-0.77585 0,-1.12359 -0.13115,-0.32786 -0.56739,-0.44628 -0.74907,-0.74907 -0.81467,-1.35778 -0.1461,-0.7305 -0.37453,-1.87266 -0.0774,-0.38712 -0.22791,-0.75704 -0.37453,-1.12359 -0.10368,-0.25919 -0.24969,-0.49938 -0.37453,-0.74907 -0.24969,-0.37453 -0.57175,-0.70985 -0.74907,-1.12359 -0.20277,-0.47313 -0.21175,-1.0098 -0.37453,-1.49813 -0.0883,-0.26483 -0.26456,-0.49247 -0.37453,-0.74906 -0.26483,-0.61795 -0.49938,-1.24844 -0.74906,-1.87266 -0.24969,-0.62422 -0.53647,-1.23486 -0.74907,-1.87266 -0.16277,-0.48833 -0.21175,-1.0098 -0.37453,-1.49813 -0.34368,-1.03103 -0.86061,-1.94432 -1.1236,-2.99625 -0.15439,-0.61758 -0.15698,-1.27441 -0.37453,-1.87266 -3.11909,-8.57752 0.96308,3.76672 -2.62172,-4.11985 -0.31424,-0.69133 -0.15632,-1.51982 -0.37453,-2.24719 -0.16043,-0.53478 -0.57251,-0.96846 -0.74907,-1.49813 -0.2013,-0.60391 -0.24968,-1.24844 -0.37453,-1.87266 -0.37453,-0.74906 -0.83739,-1.46013 -1.12359,-2.24719 -0.21755,-0.59826 -0.20704,-1.25851 -0.37454,-1.87266 -0.20775,-0.76176 -0.54131,-1.48543 -0.74906,-2.24719 -0.16749,-0.61415 -0.20703,-1.25851 -0.37453,-1.87266 -0.20775,-0.76176 -0.49938,-1.49813 -0.74906,-2.24719 -0.55363,-1.66087 -0.80326,-2.55639 -1.49813,-4.11985 -0.22676,-0.5102 -0.55303,-0.97536 -0.74907,-1.49813 -0.18073,-0.48197 -0.14433,-1.03772 -0.37453,-1.49813 -0.15791,-0.31583 -0.59114,-0.43323 -0.74906,-0.74906 -1.03741,-2.07482 0.15105,-0.89391 -0.37453,-2.99625 -0.13541,-0.54165 -0.62795,-0.95311 -0.74907,-1.49813 -0.13541,-0.60936 0.12242,-1.26056 0,-1.87266 -0.13185,-0.65925 -0.63853,-1.2095 -0.74906,-1.87266 -0.14367,-0.86202 0,-1.74781 0,-2.62172 0,-1.37329 0,-2.746569 0,-4.119852 0,-0.749064 0.0678,-1.501204 0,-2.247191 -0.0576,-0.633968 -0.31119,-1.239237 -0.37453,-1.87266 -0.007,-0.06842 0.007,-3.707374 0,-3.745318 -0.14125,-0.776846 -0.60782,-1.470345 -0.74907,-2.247191 -0.006,-0.03347 0.006,-3.678978 0,-3.745318 -0.0687,-0.756278 -0.30577,-1.490914 -0.37453,-2.247191 -0.10172,-1.118982 0,-2.247191 0,-3.370787 0,-0.499376 0,-0.998751 0,-1.498127 0,-0.499376 0.12112,-1.013662 0,-1.498128 -0.13541,-0.541649 -0.61365,-0.956478 -0.74906,-1.498127 -0.12112,-0.484466 0,-0.998751 0,-1.498127 -0.12484,-0.62422 -0.20704,-1.258508 -0.37453,-1.872659 -0.20776,-0.761761 -0.42839,-1.525662 -0.74907,-2.247191 -0.18281,-0.411336 -0.49937,-0.749064 -0.74906,-1.123596 -0.24969,-0.499376 -0.54171,-0.979741 -0.74906,-1.498127 -0.0464,-0.115915 0.0395,-0.256095 0,-0.374532 -0.17656,-0.529668 -0.57251,-0.968459 -0.74907,-1.498127 -0.0395,-0.118438 0.0558,-0.262868 0,-0.374532 -0.079,-0.157917 -0.29557,-0.216616 -0.37453,-0.374532 -0.0558,-0.111664 0.0883,-0.286254 0,-0.374532 -0.0883,-0.08828 -0.28625,0.08828 -0.37453,0 -0.0883,-0.08828 0.0883,-0.286254 0,-0.374532 -0.0766,-0.07657 -0.9751,0.07425 -1.1236,0 -0.15791,-0.07896 -0.21661,-0.295573 -0.37453,-0.374532 -0.0768,-0.03841 -1.07078,-0.05282 -1.12359,0 -0.0883,0.08828 0.0883,0.286254 0,0.374532 -0.0883,0.08828 -0.24969,0 -0.37454,0 -0.12484,0 -0.24968,0 -0.37453,0 -0.62422,0 -1.24844,0 -1.87266,0 -0.12484,0 -0.24968,0 -0.37453,0 -0.12484,0 -0.26287,0.05583 -0.37453,0 -0.15792,-0.07896 -0.21662,-0.295573 -0.37453,-0.374532 -0.11167,-0.05583 -0.24969,0 -0.37453,0 -0.12485,0 -0.24969,0 -0.37454,0 -0.74906,0 -1.49812,0 -2.24719,0 -1.24844,0 -2.49688,0 -3.74532,0 -0.19585,0 -1.39964,0.04924 -1.49812,0 -0.15792,-0.07896 -0.21662,-0.295573 -0.37453,-0.374531 -0.22333,-0.111664 -0.52574,0.111663 -0.74907,0 -0.15791,-0.07896 -0.27659,-0.227629 -0.37453,-0.374532 -0.403799,-0.605699 -0.749064,-1.24844 -1.123596,-1.872659 z"
       id="path3249"
       inkscape:connector-curvature="0"
       transform="translate(0,759.85975)" />
    <path
       style="fill:none;stroke:#000000;stroke-width:1;stroke-linecap:butt;stroke-linejoin:miter;stroke-miterlimit:4;stroke-opacity:1;stroke-dasharray:4, 1;stroke-dashoffset:0;marker-end:url(#marker5641)"
       d="m 143.82022,952.35975 24.7191,-35.58053"
       id="path4175"
       inkscape:connector-type="polyline"
       inkscape:connector-curvature="0" />
    <text
       xml:space="preserve"
       style="font-size:12px;font-style:normal;font-weight:normal;line-height:125%;letter-spacing:0px;word-spacing:0px;fill:#000000;fill-opacity:1;stroke:none;font-family:Sans"
       x="-692.62848"
       y="689.396"
       id="text4409"
       sodipodi:linespacing="125%"
       transform="matrix(0.58756104,-0.80917985,0.80917985,0.58756104,0,0)"><tspan
         sodipodi:role="line"
         id="tspan4411"
         x="-692.62848"
         y="689.396">checkout</tspan></text>
    <rect
       style="fill:none;stroke:#000000;stroke-width:0.7798602;stroke-miterlimit:4;stroke-opacity:1;stroke-dasharray:none;stroke-dashoffset:0"
       id="rect2985-6-4"
       width="137"
       height="130.75912"
       x="152.09924"
       y="992.42523" />
    <path
       sodipodi:type="arc"
       style="fill:none;stroke:#000000;stroke-width:1;stroke-miterlimit:4;stroke-opacity:1;stroke-dasharray:none;stroke-dashoffset:0"
       id="path3796-7-6-1-6-7-1"
       sodipodi:cx="66.25"
       sodipodi:cy="28.75"
       sodipodi:rx="5.25"
       sodipodi:ry="5.25"
       d="m 71.5,28.75 a 5.25,5.25 0 1 1 -10.5,0 5.25,5.25 0 1 1 10.5,0 z"
       transform="translate(155.19806,973.3055)" />
    <path
       sodipodi:type="arc"
       style="fill:#000000;stroke:#000000;stroke-width:1;stroke-miterlimit:4;stroke-opacity:1;stroke-dasharray:none;stroke-dashoffset:0"
       id="path3796-7-82-0-0"
       sodipodi:cx="66.25"
       sodipodi:cy="28.75"
       sodipodi:rx="5.25"
       sodipodi:ry="5.25"
       d="m 71.5,28.75 a 5.25,5.25 0 1 1 -10.5,0 5.25,5.25 0 1 1 10.5,0 z"
       transform="translate(126.70393,1010.7626)" />
    <path
       style="fill:none;stroke:#000000;stroke-width:1.09239173;stroke-linecap:butt;stroke-linejoin:miter;stroke-miterlimit:4;stroke-opacity:1;stroke-dasharray:none;marker-end:url(#Arrow2Mend)"
       d="m 190.04203,1043.3762 -12.91766,34.5653"
       id="path3816-6-2-3-5"
       inkscape:connector-type="polyline"
       inkscape:connector-curvature="3" />
    <path
       sodipodi:type="arc"
       style="fill:#000000;stroke:#000000;stroke-width:1;stroke-miterlimit:4;stroke-opacity:1;stroke-dasharray:none;stroke-dashoffset:0"
       id="path3796-7-6-4-8-0"
       sodipodi:cx="66.25"
       sodipodi:cy="28.75"
       sodipodi:rx="5.25"
       sodipodi:ry="5.25"
       d="m 71.5,28.75 a 5.25,5.25 0 1 1 -10.5,0 5.25,5.25 0 1 1 10.5,0 z"
       transform="translate(109.89901,1055.0921)" />
    <path
       style="fill:none;stroke:#000000;stroke-width:1.21107292;stroke-linecap:butt;stroke-linejoin:miter;stroke-miterlimit:4;stroke-opacity:1;stroke-dasharray:none;marker-end:url(#Arrow2Mend)"
       d="m 196.60489,1043.6262 15.27015,35.9388"
       id="path3816-6-9-2-85-6"
       inkscape:connector-type="polyline"
       inkscape:connector-curvature="3" />
    <path
       sodipodi:type="arc"
       style="fill:#000000;stroke:#000000;stroke-width:1;stroke-miterlimit:4;stroke-opacity:1;stroke-dasharray:none;stroke-dashoffset:0"
       id="path3796-7-6-7-5-81-6"
       sodipodi:cx="66.25"
       sodipodi:cy="28.75"
       sodipodi:rx="5.25"
       sodipodi:ry="5.25"
       d="m 71.5,28.75 a 5.25,5.25 0 1 1 -10.5,0 5.25,5.25 0 1 1 10.5,0 z"
       transform="translate(145.61279,1057.2038)" />
    <path
       sodipodi:type="arc"
       style="fill:none;stroke:#000000;stroke-width:1;stroke-miterlimit:4;stroke-opacity:1;stroke-dasharray:none;stroke-dashoffset:0"
       id="path3796-7-82-1-5-8"
       sodipodi:cx="66.25"
       sodipodi:cy="28.75"
       sodipodi:rx="5.25"
       sodipodi:ry="5.25"
       d="m 71.5,28.75 a 5.25,5.25 0 1 1 -10.5,0 5.25,5.25 0 1 1 10.5,0 z"
       transform="translate(183.11279,1011.3724)" />
    <path
       style="fill:none;stroke:#000000;stroke-width:1.09239173;stroke-linecap:butt;stroke-linejoin:miter;stroke-miterlimit:4;stroke-opacity:1;stroke-dasharray:none;marker-end:url(#Arrow2Mend)"
       d="m 246.45088,1043.9861 -12.91766,34.5652"
       id="path3816-6-2-9-2-3"
       inkscape:connector-type="polyline"
       inkscape:connector-curvature="3" />
    <path
       sodipodi:type="arc"
       style="fill:none;stroke:#000000;stroke-width:1;stroke-miterlimit:4;stroke-opacity:1;stroke-dasharray:none;stroke-dashoffset:0"
       id="path3796-7-6-4-3-0-4"
       sodipodi:cx="66.25"
       sodipodi:cy="28.75"
       sodipodi:rx="5.25"
       sodipodi:ry="5.25"
       d="m 71.5,28.75 a 5.25,5.25 0 1 1 -10.5,0 5.25,5.25 0 1 1 10.5,0 z"
       transform="translate(166.30787,1055.702)" />
    <path
       style="fill:none;stroke:#000000;stroke-width:1.21107292;stroke-linecap:butt;stroke-linejoin:miter;stroke-miterlimit:4;stroke-opacity:1;stroke-dasharray:none;marker-end:url(#Arrow2Mend)"
       d="m 253.01376,1044.2361 15.27015,35.9388"
       id="path3816-6-9-2-8-6-8"
       inkscape:connector-type="polyline"
       inkscape:connector-curvature="3" />
    <path
       sodipodi:type="arc"
       style="fill:none;stroke:#000000;stroke-width:1;stroke-miterlimit:4;stroke-opacity:1;stroke-dasharray:none;stroke-dashoffset:0"
       id="path3796-7-6-7-5-8-2-2"
       sodipodi:cx="66.25"
       sodipodi:cy="28.75"
       sodipodi:rx="5.25"
       sodipodi:ry="5.25"
       d="m 71.5,28.75 a 5.25,5.25 0 1 1 -10.5,0 5.25,5.25 0 1 1 10.5,0 z"
       transform="translate(202.02164,1057.8136)" />
    <flowRoot
       transform="translate(160.55187,893.78178)"
       xml:space="preserve"
       id="flowRoot5583-6-9"
       style="font-size:10px;font-style:normal;font-weight:normal;text-align:center;line-height:125%;letter-spacing:0px;word-spacing:0px;text-anchor:middle;fill:#000000;fill-opacity:1;stroke:none;font-family:Sans"><flowRegion
         id="flowRegion5585-3-3"><rect
           id="rect5587-3-9"
           width="39.077286"
           height="25.42761"
           x="43.297611"
           y="201.636"
           style="text-align:center;text-anchor:middle" /></flowRegion><flowPara
         id="flowPara6497-1">Workdir</flowPara><flowPara
         id="flowPara3169">(c)</flowPara></flowRoot>    <path
       style="fill:none;stroke:#000000;stroke-width:1px;stroke-linecap:butt;stroke-linejoin:miter;stroke-opacity:1;marker-end:url(#marker5641)"
       d="m 217.34126,1004.9656 -21.95372,29.2716"
       id="path5791-8"
       inkscape:connector-type="polyline"
       inkscape:connector-curvature="0" />
    <path
       style="fill:none;stroke:#000000;stroke-width:1px;stroke-linecap:butt;stroke-linejoin:miter;stroke-opacity:1;marker-end:url(#marker5641)"
       d="m 224.04934,1005.2705 22.25863,30.4913"
       id="path6025-3"
       inkscape:connector-type="polyline"
       inkscape:connector-curvature="0" />
    <path
       style="fill:none;stroke:#000000;stroke-width:1.07313621px;stroke-linecap:butt;stroke-linejoin:miter;stroke-opacity:1;marker-end:url(#marker4439)"
       d="m 221.34831,917.11406 0.37454,73.32423"
       id="path4526"
       inkscape:connector-type="polyline"
       inkscape:connector-curvature="0" />
    <text
       xml:space="preserve"
       style="font-size:12px;font-style:normal;font-weight:normal;line-height:125%;letter-spacing:0px;word-spacing:0px;fill:#000000;fill-opacity:1;stroke:none;font-family:Sans"
       x="224.71912"
       y="966.21741"
       id="text5016"
       sodipodi:linespacing="125%"><tspan
         sodipodi:role="line"
         id="tspan5018"
         x="224.71912"
         y="966.21741">modify</tspan></text>
    <rect
       style="fill:none;stroke:#000000;stroke-width:1;stroke-miterlimit:4;stroke-opacity:1;stroke-dasharray:none;stroke-dashoffset:0"
       id="rect2985-60"
       width="137"
       height="215"
       x="7.5299659"
       y="1003.2867" />
    <path
       sodipodi:type="arc"
       style="fill:none;stroke:#000000;stroke-width:1;stroke-miterlimit:4;stroke-opacity:1;stroke-dasharray:none;stroke-dashoffset:0"
       id="path3796-7-8-0"
       sodipodi:cx="66.25"
       sodipodi:cy="28.75"
       sodipodi:rx="5.25"
       sodipodi:ry="5.25"
       d="M 71.5,28.75 C 71.5,31.649495 69.149495,34 66.25,34 63.350505,34 61,31.649495 61,28.75 c 0,-2.899495 2.350505,-5.25 5.25,-5.25 2.899495,0 5.25,2.350505 5.25,5.25 z"
       transform="matrix(-1.0347648,0,0,0.98011758,147.48173,997.49798)" />
    <path
       style="fill:none;stroke:#000000;stroke-width:1.12197495;stroke-linecap:butt;stroke-linejoin:miter;stroke-miterlimit:4;stroke-opacity:1;stroke-dasharray:none;marker-end:url(#Arrow2Mend)"
       d="m 83.069943,1029.2252 16.81144,30.0711"
       id="path3816-6-9-1-8"
       inkscape:connector-type="polyline"
       inkscape:connector-curvature="3" />
    <path
       style="fill:none;stroke:#000000;stroke-width:1.23953712;stroke-linecap:butt;stroke-linejoin:miter;stroke-miterlimit:4;stroke-opacity:1;stroke-dasharray:none;marker-end:url(#Arrow2Mend)"
       d="m 74.261153,1028.8372 -19.78351,29.0591"
       id="path3816-6-4-3"
       inkscape:connector-type="polyline"
       inkscape:connector-curvature="3" />
    <path
       sodipodi:type="arc"
       style="fill:none;stroke:#000000;stroke-width:1;stroke-miterlimit:4;stroke-opacity:1;stroke-dasharray:none;stroke-dashoffset:0"
       id="path3796-7-6-1-2"
       sodipodi:cx="66.25"
       sodipodi:cy="28.75"
       sodipodi:rx="5.25"
       sodipodi:ry="5.25"
       d="M 71.5,28.75 C 71.5,31.649495 69.149495,34 66.25,34 63.350505,34 61,31.649495 61,28.75 c 0,-2.899495 2.350505,-5.25 5.25,-5.25 2.899495,0 5.25,2.350505 5.25,5.25 z"
       transform="translate(-13.924659,1035.9973)" />
    <path
       sodipodi:type="arc"
       style="fill:none;stroke:#000000;stroke-width:1;stroke-miterlimit:4;stroke-opacity:1;stroke-dasharray:none;stroke-dashoffset:0"
       id="path3796-7-6-1-6-77"
       sodipodi:cx="66.25"
       sodipodi:cy="28.75"
       sodipodi:rx="5.25"
       sodipodi:ry="5.25"
       d="M 71.5,28.75 C 71.5,31.649495 69.149495,34 66.25,34 63.350505,34 61,31.649495 61,28.75 c 0,-2.899495 2.350505,-5.25 5.25,-5.25 2.899495,0 5.25,2.350505 5.25,5.25 z"
       transform="translate(34.556463,1036.3022)" />
    <path
       sodipodi:type="arc"
       style="fill:#000000;stroke:#000000;stroke-width:1;stroke-miterlimit:4;stroke-opacity:1;stroke-dasharray:none;stroke-dashoffset:0"
       id="path3796-7-82-6"
       sodipodi:cx="66.25"
       sodipodi:cy="28.75"
       sodipodi:rx="5.25"
       sodipodi:ry="5.25"
       d="M 71.5,28.75 C 71.5,31.649495 69.149495,34 66.25,34 63.350505,34 61,31.649495 61,28.75 c 0,-2.899495 2.350505,-5.25 5.25,-5.25 2.899495,0 5.25,2.350505 5.25,5.25 z"
       transform="translate(-9.1189379,1089.1416)" />
    <path
       style="fill:none;stroke:#000000;stroke-width:1.09239173;stroke-linecap:butt;stroke-linejoin:miter;stroke-miterlimit:4;stroke-opacity:1;stroke-dasharray:none;marker-end:url(#Arrow2Mend)"
       d="m 54.219163,1121.7552 -12.91766,34.5652"
       id="path3816-6-2-0"
       inkscape:connector-type="polyline"
       inkscape:connector-curvature="3" />
    <path
       sodipodi:type="arc"
       style="fill:#000000;stroke:#000000;stroke-width:1;stroke-miterlimit:4;stroke-opacity:1;stroke-dasharray:none;stroke-dashoffset:0"
       id="path3796-7-6-4-7"
       sodipodi:cx="66.25"
       sodipodi:cy="28.75"
       sodipodi:rx="5.25"
       sodipodi:ry="5.25"
       d="M 71.5,28.75 C 71.5,31.649495 69.149495,34 66.25,34 63.350505,34 61,31.649495 61,28.75 c 0,-2.899495 2.350505,-5.25 5.25,-5.25 2.899495,0 5.25,2.350505 5.25,5.25 z"
       transform="translate(-25.923851,1133.4711)" />
    <path
       style="fill:none;stroke:#000000;stroke-width:1.21107292;stroke-linecap:butt;stroke-linejoin:miter;stroke-miterlimit:4;stroke-opacity:1;stroke-dasharray:none;marker-end:url(#Arrow2Mend)"
       d="m 60.782023,1122.0052 15.27015,35.9387"
       id="path3816-6-9-2-3"
       inkscape:connector-type="polyline"
       inkscape:connector-curvature="3" />
    <path
       sodipodi:type="arc"
       style="fill:#000000;stroke:#000000;stroke-width:1;stroke-miterlimit:4;stroke-opacity:1;stroke-dasharray:none;stroke-dashoffset:0"
       id="path3796-7-6-7-5-0"
       sodipodi:cx="66.25"
       sodipodi:cy="28.75"
       sodipodi:rx="5.25"
       sodipodi:ry="5.25"
       d="M 71.5,28.75 C 71.5,31.649495 69.149495,34 66.25,34 63.350505,34 61,31.649495 61,28.75 c 0,-2.899495 2.350505,-5.25 5.25,-5.25 2.899495,0 5.25,2.350505 5.25,5.25 z"
       transform="translate(9.7899191,1135.5827)" />
    <path
       sodipodi:type="arc"
       style="fill:none;stroke:#000000;stroke-width:1;stroke-miterlimit:4;stroke-opacity:1;stroke-dasharray:none;stroke-dashoffset:0"
       id="path3796-7-82-1-4"
       sodipodi:cx="66.25"
       sodipodi:cy="28.75"
       sodipodi:rx="5.25"
       sodipodi:ry="5.25"
       d="M 71.5,28.75 C 71.5,31.649495 69.149495,34 66.25,34 63.350505,34 61,31.649495 61,28.75 c 0,-2.899495 2.350505,-5.25 5.25,-5.25 2.899495,0 5.25,2.350505 5.25,5.25 z"
       transform="translate(47.289923,1089.7514)" />
    <path
       style="fill:none;stroke:#000000;stroke-width:1.09239173;stroke-linecap:butt;stroke-linejoin:miter;stroke-miterlimit:4;stroke-opacity:1;stroke-dasharray:none;marker-end:url(#Arrow2Mend)"
       d="m 110.62801,1122.365 -12.917657,34.5652"
       id="path3816-6-2-9-9"
       inkscape:connector-type="polyline"
       inkscape:connector-curvature="3" />
    <path
       sodipodi:type="arc"
       style="fill:none;stroke:#000000;stroke-width:1;stroke-miterlimit:4;stroke-opacity:1;stroke-dasharray:none;stroke-dashoffset:0"
       id="path3796-7-6-4-3-09"
       sodipodi:cx="66.25"
       sodipodi:cy="28.75"
       sodipodi:rx="5.25"
       sodipodi:ry="5.25"
       d="M 71.5,28.75 C 71.5,31.649495 69.149495,34 66.25,34 63.350505,34 61,31.649495 61,28.75 c 0,-2.899495 2.350505,-5.25 5.25,-5.25 2.899495,0 5.25,2.350505 5.25,5.25 z"
       transform="translate(30.485003,1134.0809)" />
    <path
       style="fill:none;stroke:#000000;stroke-width:1.21107292;stroke-linecap:butt;stroke-linejoin:miter;stroke-miterlimit:4;stroke-opacity:1;stroke-dasharray:none;marker-end:url(#Arrow2Mend)"
       d="m 117.19088,1122.615 15.27015,35.9388"
       id="path3816-6-9-2-8-4"
       inkscape:connector-type="polyline"
       inkscape:connector-curvature="3" />
    <path
       sodipodi:type="arc"
       style="fill:none;stroke:#000000;stroke-width:1;stroke-miterlimit:4;stroke-opacity:1;stroke-dasharray:none;stroke-dashoffset:0"
       id="path3796-7-6-7-5-8-9"
       sodipodi:cx="66.25"
       sodipodi:cy="28.75"
       sodipodi:rx="5.25"
       sodipodi:ry="5.25"
       d="M 71.5,28.75 C 71.5,31.649495 69.149495,34 66.25,34 63.350505,34 61,31.649495 61,28.75 c 0,-2.899495 2.350505,-5.25 5.25,-5.25 2.899495,0 5.25,2.350505 5.25,5.25 z"
       transform="translate(66.198773,1136.1925)" />
    <path
       style="fill:none;stroke:#000000;stroke-width:0.91426575px;stroke-linecap:butt;stroke-linejoin:miter;stroke-opacity:1;marker-end:url(#marker5129)"
       d="m 97.233573,1069.6263 -37.22624,43.4345"
       id="path5161-4"
       inkscape:connector-type="polyline"
       inkscape:connector-curvature="3" />
    <path
       style="fill:none;stroke:#000000;stroke-width:1.0450989px;stroke-linecap:butt;stroke-linejoin:miter;stroke-opacity:1;marker-end:url(#marker5129)"
       d="m 103.09185,1070.4672 9.82872,41.6571"
       id="path5371-5"
       inkscape:connector-type="polyline"
       inkscape:connector-curvature="3" />
    <flowRoot
       xml:space="preserve"
       id="flowRoot5583-4"
       style="font-size:10px;font-style:normal;font-weight:normal;line-height:125%;letter-spacing:0px;word-spacing:0px;fill:#000000;fill-opacity:1;stroke:none;font-family:Sans;text-anchor:middle;text-align:center"
       transform="translate(8.7175503,987.77483)"><flowRegion
         id="flowRegion5585-36"><rect
           id="rect5587-4"
           width="58.55294"
           height="26.551207"
           x="43.297611"
           y="201.636"
           style="text-align:center;text-anchor:middle" /></flowRegion><flowPara
         id="flowPara5589-6">Root Tree</flowPara><flowPara
         id="flowPara3171">(d)</flowPara></flowRoot>    <path
       style="fill:none;stroke:#000000;stroke-width:1;stroke-linecap:butt;stroke-linejoin:miter;stroke-miterlimit:4;stroke-opacity:1;stroke-dasharray:1, 1;stroke-dashoffset:0"
       d="m 97.906363,1049.3279 c -0.83994,0.1552 -1.45269,0.8588 -2.24719,1.1236 -0.11843,0.04 -0.25609,-0.039 -0.37453,0 -0.26483,0.088 -0.48987,0.2709 -0.74906,0.3746 -0.53953,0.2158 -1.37075,0.3726 -1.87266,0.749 -1.39344,1.0451 -0.0396,0.5816 -1.87266,1.4981 -0.35311,0.1766 -0.80776,0.1377 -1.1236,0.3746 -0.22332,0.1675 -0.17713,0.5516 -0.37453,0.749 -0.19739,0.1974 -0.50968,0.2309 -0.74906,0.3746 -0.38599,0.2316 -0.73761,0.5174 -1.1236,0.749 -0.23937,0.1437 -0.52573,0.2071 -0.74906,0.3746 -0.28249,0.2118 -0.49938,0.4993 -0.74906,0.749 -0.62422,0.6242 -1.24844,1.2485 -1.87266,1.8727 -0.24969,0.2497 -0.46658,0.5372 -0.74907,0.7491 -0.22333,0.1674 -0.55167,0.1771 -0.74906,0.3745 -0.90966,0.9096 0.11137,0.55 -0.74906,1.1236 -0.23228,0.1548 -0.51679,0.2197 -0.74907,0.3745 -0.15387,0.1026 -1.02102,0.9697 -1.12359,1.1236 -0.15485,0.2323 -0.21969,0.5168 -0.37454,0.7491 -0.10583,0.1587 -0.96863,1.0461 -1.12359,1.1236 -0.11167,0.056 -0.27066,-0.069 -0.37453,0 -0.55112,0.3674 -0.94702,1.1307 -1.49813,1.4981 -2.71557,1.3578 0.59219,-0.3948 -1.1236,0.7491 -0.23227,0.1548 -0.55166,0.1771 -0.74906,0.3745 -0.1974,0.1974 -0.21968,0.5168 -0.37453,0.7491 -0.0979,0.1469 -0.2766,0.2276 -0.37453,0.3745 -0.15485,0.2323 -0.21969,0.5168 -0.37454,0.749 -0.0979,0.147 -0.24968,0.2497 -0.37453,0.3746 -0.12484,0.1248 -0.21661,0.2956 -0.37453,0.3745 -0.11166,0.056 -0.28625,-0.088 -0.37453,0 -0.0883,0.088 0.0883,0.2863 0,0.3745 -0.0883,0.088 -0.28625,-0.088 -0.37453,0 -0.17656,0.1766 0.17655,0.5726 0,0.7491 -0.77492,0.7749 0.0303,-1.1842 -0.74907,0.3745 -0.11166,0.2234 0.17656,0.5725 0,0.7491 -0.0883,0.088 -0.25609,-0.04 -0.37453,0 -0.26483,0.088 -0.55167,0.1771 -0.74906,0.3745 -0.0883,0.088 0.0558,0.2629 0,0.3746 -0.079,0.1579 -0.24969,0.2497 -0.37453,0.3745 -0.12485,0.1248 -0.21662,0.2956 -0.37454,0.3745 -0.11166,0.056 -0.28625,-0.088 -0.37453,0 -0.19739,0.1974 -0.21968,0.5168 -0.37453,0.7491 -0.0979,0.1469 -0.24969,0.2497 -0.37453,0.3745 -0.12484,0.1249 -0.24969,0.2497 -0.37453,0.3746 -0.12485,0 -0.28626,-0.088 -0.37453,0 -0.0883,0.088 0.0558,0.2628 0,0.3745 -0.079,0.1579 -0.24969,0.2497 -0.37454,0.3745 -0.32491,0.3249 -1.33928,1.2334 -1.49812,1.4981 -0.40624,0.6771 -0.39596,1.541 -0.74907,2.2472 -0.079,0.158 -0.27659,0.2277 -0.37453,0.3746 -0.56483,0.8472 -0.74847,1.872 -1.49813,2.6217 -0.31829,0.3183 -0.85351,0.389 -1.12359,0.7491 -0.14981,0.1997 0.11166,0.5257 0,0.749 -0.15792,0.3159 -0.49938,0.4994 -0.74907,0.7491 -0.24968,0.2497 -0.46657,0.5372 -0.74906,0.749 -0.22333,0.1675 -0.55167,0.1772 -0.74906,0.3746 -0.1974,0.1974 -0.20704,0.5257 -0.37454,0.749 -0.3178,0.4238 -0.82978,0.6829 -1.12359,1.1236 -0.15485,0.2323 -0.20014,0.5311 -0.37453,0.7491 -0.83977,1.0497 -1.63676,1.4009 -2.24719,2.6217 -0.0558,0.1117 0,0.2497 0,0.3746 -0.24969,0.2496 -0.56739,0.4462 -0.74907,0.749 -0.20312,0.3386 -0.17141,0.7851 -0.37453,1.1236 -0.18167,0.3028 -0.59115,0.4332 -0.74906,0.7491 -0.11167,0.2233 0.079,0.5122 0,0.749 -0.0558,0.1675 -0.2766,0.2277 -0.37453,0.3746 -0.12485,0.2497 -0.24969,0.4994 -0.37454,0.749 0,0.1249 0.0558,0.2629 0,0.3746 -0.15791,0.3158 -0.59114,0.4332 -0.74906,0.749 -0.0558,0.1117 0,0.2497 0,0.3746 0,0.2497 0.079,0.5122 0,0.749 -0.0558,0.1675 -0.2766,0.2277 -0.37453,0.3746 -0.15485,0.2322 -0.24969,0.4993 -0.37453,0.749 -0.12485,0.2497 -0.27086,0.4899 -0.37454,0.7491 -0.21581,0.5395 -0.37263,1.3707 -0.74906,1.8726 -0.21187,0.2825 -0.5372,0.4666 -0.74906,0.7491 -0.1675,0.2233 -0.17714,0.5517 -0.37453,0.7491 -0.1974,0.1974 -0.55167,0.1771 -0.74907,0.3745 -0.24969,0.3745 -0.49937,0.7491 -0.74906,1.1236 0,0.1249 0.0558,0.2629 0,0.3745 -0.85704,1.7141 0.15523,-1.5892 -0.74907,1.1236 -0.0395,0.1185 0.0558,0.2629 0,0.3746 -0.079,0.1579 -0.27659,0.2276 -0.37453,0.3745 -0.15485,0.2323 -0.21968,0.5168 -0.37453,0.7491 -0.0979,0.1469 -0.3187,0.207 -0.37453,0.3745 -0.079,0.2369 0.079,0.5122 0,0.7491 -0.0558,0.1675 -0.29557,0.2166 -0.37453,0.3745 -0.0558,0.1117 0.0395,0.2561 0,0.3745 -0.0883,0.2649 -0.30683,0.4783 -0.37453,0.7491 -0.0606,0.2422 0.079,0.5122 0,0.7491 -0.0558,0.1675 -0.2766,0.2276 -0.37454,0.3745 -0.15485,0.2323 -0.28625,0.4842 -0.37453,0.749 -0.0395,0.1185 0.0883,0.2863 0,0.3746 -0.0883,0.088 -0.28625,-0.088 -0.37453,0 -0.17656,0.1765 0.11166,0.5257 0,0.749 -0.77936,1.5588 0.0259,-0.4003 -0.74906,0.3746 -0.94604,0.946 -0.14392,0.4317 -0.37454,1.1236 -0.0883,0.2648 -0.28625,0.4842 -0.37453,0.749 -0.0395,0.1185 0.0692,0.2707 0,0.3746 -0.19587,0.2938 -0.56739,0.4462 -0.74906,0.749 -1.44785,2.4131 0.90593,-0.1882 -1.1236,2.2472 -1.03539,1.2425 -1.17524,0.8524 -1.87266,2.2472 -0.17655,0.3531 -0.19797,0.7705 -0.37453,1.1236 -0.2013,0.4026 -0.54776,0.721 -0.74906,1.1236 -0.0558,0.1117 0,0.2497 0,0.3745 0,0.3746 0.0735,0.7564 0,1.1236 -0.0547,0.2738 -0.27086,0.4899 -0.37453,0.7491 -0.14663,0.3666 -0.22791,0.757 -0.37454,1.1236 -0.10367,0.2592 -0.27085,0.4899 -0.37453,0.7491 -0.14662,0.3665 -0.22791,0.757 -0.37453,1.1236 -0.10368,0.2591 -0.27085,0.4898 -0.37453,0.749 -0.14662,0.3666 -0.22791,0.7571 -0.37453,1.1236 -0.44499,1.1125 -1.34406,1.9391 -1.87266,2.9963 -0.35311,0.7062 -0.39595,1.5409 -0.74907,2.2472 -1.88069,3.7613 0.47173,-1.9746 -1.49812,2.6217 -0.15552,0.3628 -0.24969,0.749 -0.37453,1.1236 -0.12485,0.3745 -0.32557,0.7318 -0.37454,1.1236 -0.0774,0.6194 0.12242,1.2605 0,1.8726 -0.13185,0.6593 -0.53646,1.2349 -0.74906,1.8727 -0.75963,0.7868 -0.16043,1.7653 -0.37453,2.6217 -0.0428,0.1713 -0.24969,0.2497 -0.374534,0.3745 -0.249688,0.2497 -0.6374,0.4141 -0.749064,0.7491 -0.157916,0.4738 0.09794,1.0085 0,1.4981 -0.15485,0.7743 -0.607819,1.4704 -0.749064,2.2472 -0.111663,0.6142 0,1.2485 0,1.8727 0,0.3745 0,0.749 0,1.1236 0,2.1223 0,4.2447 0,6.367 0,1.7478 0,3.4957 0,5.2435 0,0.4654 -0.07436,2.1755 0,2.6217 0.408947,2.4537 0.164467,-0.046 1.123596,1.8726 0.593357,1.1868 -0.775057,0.3486 0.374532,1.4982 0.197395,0.1974 0.594214,0.1422 0.749064,0.3745 0.1385,0.2078 -0.079,0.5122 0,0.7491 0.11166,0.335 0.55319,0.4552 0.74906,0.749 0.15485,0.2323 0.15655,0.5747 0.37454,0.7491 0.49937,0.2497 0.99875,0.4994 1.49812,0.7491 0.12485,0 0.26287,-0.056 0.37453,0 0.40261,0.2013 0.72099,0.5477 1.1236,0.749 0.70622,0.3531 1.54097,0.396 2.24719,0.7491 4.56253,2.2813 -2.7227,-1.0265 2.24719,1.8726 1.06208,0.6196 2.1739,1.2166 3.37079,1.4982 0.9722,0.2287 2.01461,-0.1841 2.99625,0 1.0484,0.1966 1.94139,0.9653 2.99626,1.1236 5.28751,0.7931 2.97422,-0.3966 6.74157,0 4.15542,0.4374 8.26819,1.4289 12.35955,2.2472 1.24844,0.2497 2.48624,0.5602 3.74532,0.749 1.24078,0.1861 2.50453,0.1884 3.74532,0.3746 1.25908,0.1888 2.50247,0.4728 3.74532,0.749 1.00497,0.2233 1.97381,0.6288 2.99625,0.7491 1.1159,0.1313 2.25406,-0.1241 3.37079,0 6.63831,0.7376 0.23046,0.6799 6.36704,1.4981 0.86624,0.1155 1.74781,0 2.62172,0 1.87266,0 3.74532,0 5.61798,0 0.74906,0 1.498127,0 2.247187,0 0.49938,0 1.01366,0.1211 1.49813,0 4.86562,-1.2164 0.0884,-0.2314 1.87266,-1.1236 0.19351,-0.097 2.05638,0.032 2.24719,0 0.38942,-0.065 0.73417,-0.3096 1.12359,-0.3745 1.33255,-0.2221 1.18052,0.2144 2.62173,0.3745 0.6204,0.069 1.24844,0 1.87266,0 0.99875,0.2497 1.97873,0.5925 2.99625,0.7491 0.61696,0.095 1.24844,0 1.87266,0 0.62422,0 1.24844,0 1.87266,0 2.12235,0 4.24469,0 6.36704,0 0.19585,0 1.39965,-0.049 1.49813,0 0.15791,0.079 0.21661,0.2956 0.37453,0.3745 0.0418,0.021 1.83086,0.021 1.87266,0 0.15792,-0.079 0.21661,-0.2956 0.37453,-0.3745 0.11166,-0.056 0.24969,0 0.37453,0 0.12485,-0.1249 0.21662,-0.2956 0.37453,-0.3746 0.11167,-0.056 0.26287,0.056 0.37454,0 0.31583,-0.1579 0.45525,-0.5531 0.74906,-0.749 0.46455,-0.3097 1.03358,-0.4394 1.49813,-0.7491 0.32318,-0.2154 0.83105,-0.831 1.12359,-1.1236 0.12485,-0.1248 0.24969,-0.2497 0.37453,-0.3745 0.12485,-0.1248 0.29558,-0.2166 0.37454,-0.3745 0.0558,-0.1117 -0.11167,-0.3187 0,-0.3746 0.22332,-0.1116 0.52573,0.1117 0.74906,0 0.22333,-0.1116 -0.17656,-0.5725 0,-0.749 0.17656,-0.1766 0.52574,0.1116 0.74906,0 0.15792,-0.079 0.21662,-0.2956 0.37454,-0.3746 0.11166,-0.056 0.26286,0.056 0.37453,0 1.55871,-0.7793 -0.40039,0.026 0.37453,-0.749 0.19739,-0.1974 0.51679,-0.2197 0.74906,-0.3746 0.15576,-0.1038 1.43115,-1.3641 1.49813,-1.4981 0.0558,-0.1117 -0.0558,-0.2629 0,-0.3745 0.079,-0.1579 0.29557,-0.2166 0.37453,-0.3746 0.0558,-0.1116 0,-0.2496 0,-0.3745 0.12485,-0.1248 0.29558,-0.2166 0.37453,-0.3745 0.0558,-0.1117 -0.0558,-0.2629 0,-0.3745 0.079,-0.158 0.29558,-0.2167 0.37454,-0.3746 0.0558,-0.1116 -0.0558,-0.2628 0,-0.3745 0.0789,-0.1579 0.29557,-0.2166 0.37453,-0.3745 0.11166,-0.2234 -0.11167,-0.5258 0,-0.7491 0.079,-0.1579 0.29557,-0.2166 0.37453,-0.3745 0.11166,-0.2234 -0.11166,-0.5258 0,-0.7491 0.079,-0.1579 0.29557,-0.2166 0.37453,-0.3745 0.1177,-0.2354 -0.1177,-1.2628 0,-1.4982 0.079,-0.1579 0.29557,-0.2166 0.37453,-0.3745 0.0558,-0.1117 0,-0.2497 0,-0.3745 0,-0.2497 0,-0.4994 0,-0.7491 0,-1.1236 0,-2.2472 0,-3.3708 0,-0.089 -0.042,-1.4142 0,-1.4981 0.079,-0.1579 0.3187,-0.207 0.37453,-0.3745 0.0572,-0.1715 0,-1.6636 0,-1.8727 0,-0.9987 0,-1.9975 0,-2.9962 0,-0.3746 0.0735,-0.7564 0,-1.1236 -0.0547,-0.2738 -0.28625,-0.4843 -0.37453,-0.7491 -0.079,-0.2369 0,-0.4994 0,-0.7491 0,-0.749 0,-1.4981 0,-2.2472 0,-0.2496 0.0606,-0.5068 0,-0.749 -0.0677,-0.2708 -0.28625,-0.4843 -0.37453,-0.7491 -0.0395,-0.1184 0.0303,-0.2534 0,-0.3745 -0.0957,-0.383 -0.3187,-0.7328 -0.37453,-1.1236 -0.0706,-0.4944 0.0821,-1.0056 0,-1.4981 -0.0459,-0.2754 -0.27086,-0.4899 -0.37453,-0.7491 -0.14662,-0.3666 -0.30963,-0.7342 -0.37453,-1.1236 -0.0616,-0.3694 0.13909,-0.7759 0,-1.1236 -0.13115,-0.3279 -0.56739,-0.4463 -0.74907,-0.7491 -0.81467,-1.3577 -0.1461,-0.7305 -0.37453,-1.8726 -0.0774,-0.3871 -0.22791,-0.7571 -0.37453,-1.1236 -0.10368,-0.2592 -0.24969,-0.4994 -0.37453,-0.7491 -0.24969,-0.3745 -0.57175,-0.7098 -0.74907,-1.1236 -0.20277,-0.4731 -0.21175,-1.0098 -0.37453,-1.4981 -0.0883,-0.2648 -0.26456,-0.4925 -0.37453,-0.7491 -0.26483,-0.6179 -0.49938,-1.2484 -0.74906,-1.8726 -0.24969,-0.6242 -0.53647,-1.2349 -0.74907,-1.8727 -0.16277,-0.4883 -0.21175,-1.0098 -0.37453,-1.4981 -0.34368,-1.031 -0.86061,-1.9443 -1.1236,-2.9963 -0.15439,-0.6175 -0.15698,-1.2744 -0.37453,-1.8726 -3.11909,-8.5775 0.96308,3.7667 -2.62172,-4.1199 -0.31424,-0.6913 -0.15632,-1.5198 -0.37453,-2.2472 -0.16043,-0.5347 -0.57251,-0.9684 -0.74907,-1.4981 -0.2013,-0.6039 -0.24968,-1.2484 -0.37453,-1.8727 -0.37453,-0.749 -0.83739,-1.4601 -1.12359,-2.2471 -0.21755,-0.5983 -0.20704,-1.2586 -0.37454,-1.8727 -0.20775,-0.7618 -0.54131,-1.4854 -0.74906,-2.2472 -0.16749,-0.6141 -0.20703,-1.2585 -0.37453,-1.8727 -0.20775,-0.7617 -0.49938,-1.4981 -0.74906,-2.2471 -0.55363,-1.6609 -0.80326,-2.5564 -1.49813,-4.1199 -0.22676,-0.5102 -0.55303,-0.9754 -0.74907,-1.4981 -0.18073,-0.482 -0.14433,-1.0377 -0.37453,-1.4982 -0.15791,-0.3158 -0.59114,-0.4332 -0.74906,-0.749 -1.03741,-2.0748 0.15105,-0.8939 -0.37453,-2.9963 -0.13541,-0.5416 -0.62795,-0.9531 -0.74907,-1.4981 -0.13541,-0.6094 0.12242,-1.2606 0,-1.8727 -0.13185,-0.6592 -0.63853,-1.2095 -0.74906,-1.8726 -0.14367,-0.862 0,-1.7478 0,-2.6217 0,-1.3733 0,-2.7466 0,-4.1199 0,-0.7491 0.0678,-1.5012 0,-2.2472 -0.0576,-0.634 -0.31119,-1.2392 -0.37453,-1.8726 -0.007,-0.068 0.007,-3.7074 0,-3.7454 -0.14125,-0.7768 -0.60782,-1.4703 -0.74907,-2.2472 -0.006,-0.034 0.006,-3.6789 0,-3.7453 -0.0687,-0.7563 -0.30577,-1.4909 -0.37453,-2.2472 -0.10172,-1.1189 0,-2.2472 0,-3.3708 0,-0.4993 0,-0.9987 0,-1.4981 0,-0.4994 0.12112,-1.0136 0,-1.4981 -0.13541,-0.5417 -0.61365,-0.9565 -0.74906,-1.4981 -0.12112,-0.4845 0,-0.9988 0,-1.4982 -0.12484,-0.6242 -0.20704,-1.2585 -0.37453,-1.8726 -0.20776,-0.7618 -0.42839,-1.5257 -0.74907,-2.2472 -0.18281,-0.4113 -0.49937,-0.7491 -0.74906,-1.1236 -0.24969,-0.4994 -0.54171,-0.9797 -0.74906,-1.4981 -0.0464,-0.1159 0.0395,-0.2561 0,-0.3746 -0.17656,-0.5296 -0.57251,-0.9684 -0.74907,-1.4981 -0.0395,-0.1184 0.0558,-0.2629 0,-0.3745 -0.079,-0.1579 -0.29557,-0.2166 -0.37453,-0.3746 -0.0558,-0.1116 0.0883,-0.2862 0,-0.3745 -0.0883,-0.088 -0.28625,0.088 -0.37453,0 -0.0883,-0.088 0.0883,-0.2862 0,-0.3745 -0.0766,-0.077 -0.9751,0.074 -1.1236,0 -0.15791,-0.079 -0.21661,-0.2956 -0.37453,-0.3746 -0.0768,-0.038 -1.07078,-0.053 -1.12359,0 -0.0883,0.088 0.0883,0.2863 0,0.3746 -0.0883,0.088 -0.24969,0 -0.37454,0 -0.12484,0 -0.24968,0 -0.37453,0 -0.62422,0 -1.24844,0 -1.87266,0 -0.12484,0 -0.24968,0 -0.37453,0 -0.12484,0 -0.26287,0.056 -0.37453,0 -0.15792,-0.079 -0.21662,-0.2956 -0.37453,-0.3746 -0.11167,-0.056 -0.24969,0 -0.37453,0 -0.12485,0 -0.24969,0 -0.37454,0 -0.74906,0 -1.49812,0 -2.24719,0 -1.24844,0 -2.49688,0 -3.74532,0 -0.19585,0 -1.39964,0.049 -1.49812,0 -0.15792,-0.079 -0.21662,-0.2955 -0.37453,-0.3745 -0.223327,-0.1116 -0.525737,0.1117 -0.749067,0 -0.15791,-0.079 -0.27659,-0.2276 -0.37453,-0.3745 -0.4038,-0.6057 -0.74906,-1.2485 -1.1236,-1.8727 z"
       id="path3249-6"
       inkscape:connector-curvature="0" />
    <path
       style="fill:none;stroke:#000000;stroke-width:1;stroke-linecap:butt;stroke-linejoin:miter;stroke-miterlimit:4;stroke-opacity:1;stroke-dasharray:4, 1;stroke-dashoffset:0;marker-mid:none;marker-end:url(#marker5054)"
       d="m 167.04119,1122.7718 -22.84644,42.6966"
       id="path5164"
       inkscape:connector-type="polyline"
       inkscape:connector-curvature="0" />
    <text
       xml:space="preserve"
       style="font-size:12px;font-style:normal;font-weight:normal;line-height:125%;letter-spacing:0px;word-spacing:0px;fill:#000000;fill-opacity:1;stroke:none;font-family:Sans"
       x="-910.59906"
       y="748.56818"
       id="text4409-5"
       sodipodi:linespacing="125%"
       transform="matrix(0.52759769,-0.84949437,0.84949437,0.52759769,0,0)"><tspan
         sodipodi:role="line"
         id="tspan4411-8"
         x="-910.59906"
         y="748.56818">commit</tspan></text>
  </g>
</svg>
