<?xml version="1.0" encoding="UTF-8" standalone="no"?>
<!-- Created with Inkscape (http://www.inkscape.org/) -->

<svg
   xmlns:dc="http://purl.org/dc/elements/1.1/"
   xmlns:cc="http://creativecommons.org/ns#"
   xmlns:rdf="http://www.w3.org/1999/02/22-rdf-syntax-ns#"
   xmlns:svg="http://www.w3.org/2000/svg"
   xmlns="http://www.w3.org/2000/svg"
   xmlns:sodipodi="http://sodipodi.sourceforge.net/DTD/sodipodi-0.dtd"
   xmlns:inkscape="http://www.inkscape.org/namespaces/inkscape"
   width="292.5"
   height="292.5"
   id="svg2"
   version="1.1"
   inkscape:version="0.48.3.1 r9886"
   sodipodi:docname="datamodel.svg">
  <defs
     id="defs4">
    <marker
       inkscape:stockid="Arrow2Mend"
       orient="auto"
       refY="0.0"
       refX="0.0"
       id="Arrow2Mend"
       style="overflow:visible;">
      <path
         id="path3851"
         style="fill-rule:evenodd;stroke-width:0.62500000;stroke-linejoin:round;"
         d="M 8.7185878,4.0337352 L -2.2072895,0.016013256 L 8.7185884,-4.0017078 C 6.9730900,-1.6296469 6.9831476,1.6157441 8.7185878,4.0337352 z "
         transform="scale(0.6) rotate(180) translate(0,0)" />
    </marker>
    <marker
       inkscape:stockid="Arrow2Send"
       orient="auto"
       refY="0.0"
       refX="0.0"
       id="Arrow2Send"
       style="overflow:visible;">
      <path
         id="path3857"
         style="fill-rule:evenodd;stroke-width:0.62500000;stroke-linejoin:round;"
         d="M 8.7185878,4.0337352 L -2.2072895,0.016013256 L 8.7185884,-4.0017078 C 6.9730900,-1.6296469 6.9831476,1.6157441 8.7185878,4.0337352 z "
         transform="scale(0.3) rotate(180) translate(-2.3,0)" />
    </marker>
    <marker
       inkscape:stockid="Arrow2Lend"
       orient="auto"
       refY="0.0"
       refX="0.0"
       id="Arrow2Lend"
       style="overflow:visible;">
      <path
         id="path3845"
         style="fill-rule:evenodd;stroke-width:0.62500000;stroke-linejoin:round;"
         d="M 8.7185878,4.0337352 L -2.2072895,0.016013256 L 8.7185884,-4.0017078 C 6.9730900,-1.6296469 6.9831476,1.6157441 8.7185878,4.0337352 z "
         transform="scale(1.1) rotate(180) translate(1,0)" />
    </marker>
    <marker
       inkscape:stockid="Arrow2Lstart"
       orient="auto"
       refY="0.0"
       refX="0.0"
       id="Arrow2Lstart"
       style="overflow:visible">
      <path
         id="path3842"
         style="fill-rule:evenodd;stroke-width:0.62500000;stroke-linejoin:round"
         d="M 8.7185878,4.0337352 L -2.2072895,0.016013256 L 8.7185884,-4.0017078 C 6.9730900,-1.6296469 6.9831476,1.6157441 8.7185878,4.0337352 z "
         transform="scale(1.1) translate(1,0)" />
    </marker>
    <marker
       inkscape:stockid="Arrow2Mend"
       orient="auto"
       refY="0"
       refX="0"
       id="Arrow2Mend-8"
       style="overflow:visible">
      <path
         inkscape:connector-curvature="0"
         id="path3851-4"
         style="fill-rule:evenodd;stroke-width:0.625;stroke-linejoin:round"
         d="M 8.7185878,4.0337352 -2.2072895,0.01601326 8.7185884,-4.0017078 c -1.7454984,2.3720609 -1.7354408,5.6174519 -6e-7,8.035443 z"
         transform="scale(-0.6,-0.6)" />
    </marker>
    <marker
       inkscape:stockid="Arrow2Mend"
       orient="auto"
       refY="0"
       refX="0"
       id="Arrow2Mend-4"
       style="overflow:visible">
      <path
         inkscape:connector-curvature="0"
         id="path3851-5"
         style="fill-rule:evenodd;stroke-width:0.625;stroke-linejoin:round"
         d="M 8.7185878,4.0337352 -2.2072895,0.01601326 8.7185884,-4.0017078 c -1.7454984,2.3720609 -1.7354408,5.6174519 -6e-7,8.035443 z"
         transform="scale(-0.6,-0.6)" />
    </marker>
    <marker
       inkscape:stockid="Arrow2Mend"
       orient="auto"
       refY="0"
       refX="0"
       id="Arrow2Mend-6"
       style="overflow:visible">
      <path
         inkscape:connector-curvature="0"
         id="path3851-6"
         style="fill-rule:evenodd;stroke-width:0.625;stroke-linejoin:round"
         d="M 8.7185878,4.0337352 -2.2072895,0.01601326 8.7185884,-4.0017078 c -1.7454984,2.3720609 -1.7354408,5.6174519 -6e-7,8.035443 z"
         transform="scale(-0.6,-0.6)" />
    </marker>
    <marker
       inkscape:stockid="Arrow2Mend"
       orient="auto"
       refY="0"
       refX="0"
       id="Arrow2Mend-48"
       style="overflow:visible">
      <path
         inkscape:connector-curvature="0"
         id="path3851-8"
         style="fill-rule:evenodd;stroke-width:0.625;stroke-linejoin:round"
         d="M 8.7185878,4.0337352 -2.2072895,0.01601326 8.7185884,-4.0017078 c -1.7454984,2.3720609 -1.7354408,5.6174519 -6e-7,8.035443 z"
         transform="scale(-0.6,-0.6)" />
    </marker>
    <marker
       inkscape:stockid="Arrow2Mend"
       orient="auto"
       refY="0"
       refX="0"
       id="Arrow2Mend-5"
       style="overflow:visible">
      <path
         inkscape:connector-curvature="0"
         id="path3851-40"
         style="fill-rule:evenodd;stroke-width:0.625;stroke-linejoin:round"
         d="M 8.7185878,4.0337352 -2.2072895,0.01601326 8.7185884,-4.0017078 c -1.7454984,2.3720609 -1.7354408,5.6174519 -6e-7,8.035443 z"
         transform="scale(-0.6,-0.6)" />
    </marker>
    <marker
       inkscape:stockid="Arrow2Mend"
       orient="auto"
       refY="0"
       refX="0"
       id="Arrow2Mend-44"
       style="overflow:visible">
      <path
         inkscape:connector-curvature="0"
         id="path3851-59"
         style="fill-rule:evenodd;stroke-width:0.625;stroke-linejoin:round"
         d="M 8.7185878,4.0337352 -2.2072895,0.01601326 8.7185884,-4.0017078 c -1.7454984,2.3720609 -1.7354408,5.6174519 -6e-7,8.035443 z"
         transform="scale(-0.6,-0.6)" />
    </marker>
    <marker
       inkscape:stockid="Arrow2Mend"
       orient="auto"
       refY="0"
       refX="0"
       id="Arrow2Mend-3"
       style="overflow:visible">
      <path
         inkscape:connector-curvature="0"
         id="path3851-54"
         style="fill-rule:evenodd;stroke-width:0.625;stroke-linejoin:round"
         d="M 8.7185878,4.0337352 -2.2072895,0.01601326 8.7185884,-4.0017078 c -1.7454984,2.3720609 -1.7354408,5.6174519 -6e-7,8.035443 z"
         transform="scale(-0.6,-0.6)" />
    </marker>
    <marker
       inkscape:stockid="Arrow2Mend"
       orient="auto"
       refY="0"
       refX="0"
       id="marker5085"
       style="overflow:visible">
      <path
         inkscape:connector-curvature="0"
         id="path5087"
         style="fill-rule:evenodd;stroke-width:0.625;stroke-linejoin:round"
         d="M 8.7185878,4.0337352 -2.2072895,0.01601326 8.7185884,-4.0017078 c -1.7454984,2.3720609 -1.7354408,5.6174519 -6e-7,8.035443 z"
         transform="scale(-0.6,-0.6)" />
    </marker>
    <marker
       inkscape:stockid="Arrow2Mend"
       orient="auto"
       refY="0"
       refX="0"
       id="Arrow2Mend-32"
       style="overflow:visible">
      <path
         inkscape:connector-curvature="0"
         id="path3851-9"
         style="fill-rule:evenodd;stroke-width:0.625;stroke-linejoin:round"
         d="M 8.7185878,4.0337352 -2.2072895,0.01601326 8.7185884,-4.0017078 c -1.7454984,2.3720609 -1.7354408,5.6174519 -6e-7,8.035443 z"
         transform="scale(-0.6,-0.6)" />
    </marker>
    <marker
       inkscape:stockid="Arrow2Mend"
       orient="auto"
       refY="0"
       refX="0"
       id="marker5129"
       style="overflow:visible">
      <path
         inkscape:connector-curvature="0"
         id="path5131"
         style="fill-rule:evenodd;stroke-width:0.625;stroke-linejoin:round"
         d="M 8.7185878,4.0337352 -2.2072895,0.01601326 8.7185884,-4.0017078 c -1.7454984,2.3720609 -1.7354408,5.6174519 -6e-7,8.035443 z"
         transform="scale(-0.6,-0.6)" />
    </marker>
    <marker
       inkscape:stockid="Arrow2Mend"
       orient="auto"
       refY="0"
       refX="0"
       id="marker5129-0"
       style="overflow:visible">
      <path
         inkscape:connector-curvature="0"
         id="path5131-7"
         style="fill-rule:evenodd;stroke-width:0.625;stroke-linejoin:round"
         d="M 8.7185878,4.0337352 -2.2072895,0.01601326 8.7185884,-4.0017078 c -1.7454984,2.3720609 -1.7354408,5.6174519 -6e-7,8.035443 z"
         transform="scale(-0.6,-0.6)" />
    </marker>
    <marker
       inkscape:stockid="Arrow2Mend"
       orient="auto"
       refY="0"
       refX="0"
       id="marker5603"
       style="overflow:visible">
      <path
         inkscape:connector-curvature="0"
         id="path5605"
         style="fill-rule:evenodd;stroke-width:0.625;stroke-linejoin:round"
         d="M 8.7185878,4.0337352 -2.2072895,0.01601326 8.7185884,-4.0017078 c -1.7454984,2.3720609 -1.7354408,5.6174519 -6e-7,8.035443 z"
         transform="scale(-0.6,-0.6)" />
    </marker>
    <marker
       inkscape:stockid="Arrow2Mend"
       orient="auto"
       refY="0"
       refX="0"
       id="Arrow2Mend-1"
       style="overflow:visible">
      <path
         inkscape:connector-curvature="0"
         id="path3851-3"
         style="fill-rule:evenodd;stroke-width:0.625;stroke-linejoin:round"
         d="M 8.7185878,4.0337352 -2.2072895,0.01601326 8.7185884,-4.0017078 c -1.7454984,2.3720609 -1.7354408,5.6174519 -6e-7,8.035443 z"
         transform="scale(-0.6,-0.6)" />
    </marker>
    <marker
       inkscape:stockid="Arrow2Mend"
       orient="auto"
       refY="0"
       refX="0"
       id="marker5609"
       style="overflow:visible">
      <path
         inkscape:connector-curvature="0"
         id="path5611"
         style="fill-rule:evenodd;stroke-width:0.625;stroke-linejoin:round"
         d="M 8.7185878,4.0337352 -2.2072895,0.01601326 8.7185884,-4.0017078 c -1.7454984,2.3720609 -1.7354408,5.6174519 -6e-7,8.035443 z"
         transform="scale(-0.6,-0.6)" />
    </marker>
    <marker
       inkscape:stockid="Arrow2Mend"
       orient="auto"
       refY="0"
       refX="0"
       id="marker5613"
       style="overflow:visible">
      <path
         inkscape:connector-curvature="0"
         id="path5615"
         style="fill-rule:evenodd;stroke-width:0.625;stroke-linejoin:round"
         d="M 8.7185878,4.0337352 -2.2072895,0.01601326 8.7185884,-4.0017078 c -1.7454984,2.3720609 -1.7354408,5.6174519 -6e-7,8.035443 z"
         transform="scale(-0.6,-0.6)" />
    </marker>
    <marker
       inkscape:stockid="Arrow2Mend"
       orient="auto"
       refY="0"
       refX="0"
       id="marker5617"
       style="overflow:visible">
      <path
         inkscape:connector-curvature="0"
         id="path5619"
         style="fill-rule:evenodd;stroke-width:0.625;stroke-linejoin:round"
         d="M 8.7185878,4.0337352 -2.2072895,0.01601326 8.7185884,-4.0017078 c -1.7454984,2.3720609 -1.7354408,5.6174519 -6e-7,8.035443 z"
         transform="scale(-0.6,-0.6)" />
    </marker>
    <marker
       inkscape:stockid="Arrow2Mend"
       orient="auto"
       refY="0"
       refX="0"
       id="marker5621"
       style="overflow:visible">
      <path
         inkscape:connector-curvature="0"
         id="path5623"
         style="fill-rule:evenodd;stroke-width:0.625;stroke-linejoin:round"
         d="M 8.7185878,4.0337352 -2.2072895,0.01601326 8.7185884,-4.0017078 c -1.7454984,2.3720609 -1.7354408,5.6174519 -6e-7,8.035443 z"
         transform="scale(-0.6,-0.6)" />
    </marker>
    <marker
       inkscape:stockid="Arrow2Mend"
       orient="auto"
       refY="0"
       refX="0"
       id="marker5625"
       style="overflow:visible">
      <path
         inkscape:connector-curvature="0"
         id="path5627"
         style="fill-rule:evenodd;stroke-width:0.625;stroke-linejoin:round"
         d="M 8.7185878,4.0337352 -2.2072895,0.01601326 8.7185884,-4.0017078 c -1.7454984,2.3720609 -1.7354408,5.6174519 -6e-7,8.035443 z"
         transform="scale(-0.6,-0.6)" />
    </marker>
    <marker
       inkscape:stockid="Arrow2Mend"
       orient="auto"
       refY="0"
       refX="0"
       id="marker5629"
       style="overflow:visible">
      <path
         inkscape:connector-curvature="0"
         id="path5631"
         style="fill-rule:evenodd;stroke-width:0.625;stroke-linejoin:round"
         d="M 8.7185878,4.0337352 -2.2072895,0.01601326 8.7185884,-4.0017078 c -1.7454984,2.3720609 -1.7354408,5.6174519 -6e-7,8.035443 z"
         transform="scale(-0.6,-0.6)" />
    </marker>
    <marker
       inkscape:stockid="Arrow2Mend"
       orient="auto"
       refY="0"
       refX="0"
       id="marker5633"
       style="overflow:visible">
      <path
         inkscape:connector-curvature="0"
         id="path5635"
         style="fill-rule:evenodd;stroke-width:0.625;stroke-linejoin:round"
         d="M 8.7185878,4.0337352 -2.2072895,0.01601326 8.7185884,-4.0017078 c -1.7454984,2.3720609 -1.7354408,5.6174519 -6e-7,8.035443 z"
         transform="scale(-0.6,-0.6)" />
    </marker>
    <marker
       inkscape:stockid="Arrow2Mend"
       orient="auto"
       refY="0"
       refX="0"
       id="marker5637"
       style="overflow:visible">
      <path
         inkscape:connector-curvature="0"
         id="path5639"
         style="fill-rule:evenodd;stroke-width:0.625;stroke-linejoin:round"
         d="M 8.7185878,4.0337352 -2.2072895,0.01601326 8.7185884,-4.0017078 c -1.7454984,2.3720609 -1.7354408,5.6174519 -6e-7,8.035443 z"
         transform="scale(-0.6,-0.6)" />
    </marker>
    <marker
       inkscape:stockid="Arrow2Mend"
       orient="auto"
       refY="0"
       refX="0"
       id="marker5641"
       style="overflow:visible">
      <path
         inkscape:connector-curvature="0"
         id="path5643"
         style="fill-rule:evenodd;stroke-width:0.625;stroke-linejoin:round"
         d="M 8.7185878,4.0337352 -2.2072895,0.01601326 8.7185884,-4.0017078 c -1.7454984,2.3720609 -1.7354408,5.6174519 -6e-7,8.035443 z"
         transform="scale(-0.6,-0.6)" />
    </marker>
  </defs>
  <sodipodi:namedview
     id="base"
     pagecolor="#ffffff"
     bordercolor="#666666"
     borderopacity="1.0"
     inkscape:pageopacity="0.0"
     inkscape:pageshadow="2"
     inkscape:zoom="2.67"
     inkscape:cx="147.81634"
     inkscape:cy="152.21064"
     inkscape:document-units="px"
     inkscape:current-layer="layer1"
     showgrid="false"
     units="in"
     inkscape:window-width="1855"
     inkscape:window-height="1056"
     inkscape:window-x="65"
     inkscape:window-y="24"
     inkscape:window-maximized="1" />
  <metadata
     id="metadata7">
    <rdf:RDF>
      <cc:Work
         rdf:about="">
        <dc:format>image/svg+xml</dc:format>
        <dc:type
           rdf:resource="http://purl.org/dc/dcmitype/StillImage" />
        <dc:title></dc:title>
      </cc:Work>
    </rdf:RDF>
  </metadata>
  <g
     inkscape:label="Layer 1"
     inkscape:groupmode="layer"
     id="layer1"
     transform="translate(0,-759.85975)">
    <rect
       style="fill:none;stroke:#000000;stroke-width:1;stroke-miterlimit:4;stroke-opacity:1;stroke-dasharray:none;stroke-dashoffset:0"
       id="rect2985"
       width="137"
       height="215"
       x="8.5"
       y="13.5"
       transform="translate(0,759.85975)" />
    <path
       sodipodi:type="arc"
       style="fill:none;stroke:#000000;stroke-width:1;stroke-miterlimit:4;stroke-opacity:1;stroke-dasharray:none;stroke-dashoffset:0"
       id="path3796"
       sodipodi:cx="66.25"
       sodipodi:cy="28.75"
       sodipodi:rx="5.25"
       sodipodi:ry="5.25"
       d="M 71.5,28.75 C 71.5,31.649495 69.149495,34 66.25,34 63.350505,34 61,31.649495 61,28.75 c 0,-2.899495 2.350505,-5.25 5.25,-5.25 2.899495,0 5.25,2.350505 5.25,5.25 z"
       transform="translate(5.5,758.35975)" />
    <path
       sodipodi:type="arc"
       style="fill:none;stroke:#000000;stroke-width:1;stroke-miterlimit:4;stroke-opacity:1;stroke-dasharray:none;stroke-dashoffset:0"
       id="path3796-7"
       sodipodi:cx="66.25"
       sodipodi:cy="28.75"
       sodipodi:rx="5.25"
       sodipodi:ry="5.25"
       d="M 71.5,28.75 C 71.5,31.649495 69.149495,34 66.25,34 63.350505,34 61,31.649495 61,28.75 c 0,-2.899495 2.350505,-5.25 5.25,-5.25 2.899495,0 5.25,2.350505 5.25,5.25 z"
       transform="translate(-28.75,781.10975)" />
    <path
       style="fill:none;stroke:#000000;stroke-width:1.05799997;stroke-linecap:butt;stroke-linejoin:miter;stroke-miterlimit:4;stroke-opacity:1;stroke-dasharray:none;marker-end:url(#Arrow2Mend)"
       d="M 66.61993,789.59597 42.026517,806.62612"
       id="path3816"
       inkscape:connector-type="polyline"
       inkscape:connector-curvature="3" />
    <path
       sodipodi:type="arc"
       style="fill:none;stroke:#000000;stroke-width:1;stroke-miterlimit:4;stroke-opacity:1;stroke-dasharray:none;stroke-dashoffset:0"
       id="path3796-7-8"
       sodipodi:cx="66.25"
       sodipodi:cy="28.75"
       sodipodi:rx="5.25"
       sodipodi:ry="5.25"
       d="M 71.5,28.75 C 71.5,31.649495 69.149495,34 66.25,34 63.350505,34 61,31.649495 61,28.75 c 0,-2.899495 2.350505,-5.25 5.25,-5.25 2.899495,0 5.25,2.350505 5.25,5.25 z"
       transform="matrix(-1.0347648,0,0,0.98011758,175.41806,781.80322)" />
    <path
       style="fill:none;stroke:#000000;stroke-width:1.06548071;stroke-linecap:butt;stroke-linejoin:miter;stroke-miterlimit:4;stroke-opacity:1;stroke-dasharray:none;marker-end:url(#Arrow2Mend)"
       d="m 76.732607,790.12071 25.448403,16.69155"
       id="path3816-2"
       inkscape:connector-type="polyline"
       inkscape:connector-curvature="3" />
    <path
       style="fill:none;stroke:#000000;stroke-width:1.12197495;stroke-linecap:butt;stroke-linejoin:miter;stroke-miterlimit:4;stroke-opacity:1;stroke-dasharray:none;marker-end:url(#Arrow2Mend)"
       d="m 110.63174,813.15593 16.81144,30.07104"
       id="path3816-6-9-1"
       inkscape:connector-type="polyline"
       inkscape:connector-curvature="3" />
    <path
       style="fill:none;stroke:#000000;stroke-width:1.23953712;stroke-linecap:butt;stroke-linejoin:miter;stroke-miterlimit:4;stroke-opacity:1;stroke-dasharray:none;marker-end:url(#Arrow2Mend)"
       d="M 101.82295,812.7679 82.039438,841.82699"
       id="path3816-6-4"
       inkscape:connector-type="polyline"
       inkscape:connector-curvature="3" />
    <path
       sodipodi:type="arc"
       style="fill:none;stroke:#000000;stroke-width:1;stroke-miterlimit:4;stroke-opacity:1;stroke-dasharray:none;stroke-dashoffset:0"
       id="path3796-7-6-1"
       sodipodi:cx="66.25"
       sodipodi:cy="28.75"
       sodipodi:rx="5.25"
       sodipodi:ry="5.25"
       d="M 71.5,28.75 C 71.5,31.649495 69.149495,34 66.25,34 63.350505,34 61,31.649495 61,28.75 c 0,-2.899495 2.350505,-5.25 5.25,-5.25 2.899495,0 5.25,2.350505 5.25,5.25 z"
       transform="translate(13.637139,819.92803)" />
    <path
       sodipodi:type="arc"
       style="fill:none;stroke:#000000;stroke-width:1;stroke-miterlimit:4;stroke-opacity:1;stroke-dasharray:none;stroke-dashoffset:0"
       id="path3796-7-6-1-6"
       sodipodi:cx="66.25"
       sodipodi:cy="28.75"
       sodipodi:rx="5.25"
       sodipodi:ry="5.25"
       d="M 71.5,28.75 C 71.5,31.649495 69.149495,34 66.25,34 63.350505,34 61,31.649495 61,28.75 c 0,-2.899495 2.350505,-5.25 5.25,-5.25 2.899495,0 5.25,2.350505 5.25,5.25 z"
       transform="translate(62.118265,820.23295)" />
    <path
       sodipodi:type="arc"
       style="fill:none;stroke:#000000;stroke-width:1;stroke-miterlimit:4;stroke-opacity:1;stroke-dasharray:none;stroke-dashoffset:0"
       id="path3796-7-82"
       sodipodi:cx="66.25"
       sodipodi:cy="28.75"
       sodipodi:rx="5.25"
       sodipodi:ry="5.25"
       d="M 71.5,28.75 C 71.5,31.649495 69.149495,34 66.25,34 63.350505,34 61,31.649495 61,28.75 c 0,-2.899495 2.350505,-5.25 5.25,-5.25 2.899495,0 5.25,2.350505 5.25,5.25 z"
       transform="translate(-8.1489,859.21459)" />
    <path
       style="fill:none;stroke:#000000;stroke-width:1.09239173;stroke-linecap:butt;stroke-linejoin:miter;stroke-miterlimit:4;stroke-opacity:1;stroke-dasharray:none;marker-end:url(#Arrow2Mend)"
       d="m 55.189197,891.82818 -12.91766,34.56521"
       id="path3816-6-2"
       inkscape:connector-type="polyline"
       inkscape:connector-curvature="3" />
    <path
       sodipodi:type="arc"
       style="fill:none;stroke:#000000;stroke-width:1;stroke-miterlimit:4;stroke-opacity:1;stroke-dasharray:none;stroke-dashoffset:0"
       id="path3796-7-6-4"
       sodipodi:cx="66.25"
       sodipodi:cy="28.75"
       sodipodi:rx="5.25"
       sodipodi:ry="5.25"
       d="M 71.5,28.75 C 71.5,31.649495 69.149495,34 66.25,34 63.350505,34 61,31.649495 61,28.75 c 0,-2.899495 2.350505,-5.25 5.25,-5.25 2.899495,0 5.25,2.350505 5.25,5.25 z"
       transform="translate(-24.953813,903.54407)" />
    <path
       style="fill:none;stroke:#000000;stroke-width:1.21107292;stroke-linecap:butt;stroke-linejoin:miter;stroke-miterlimit:4;stroke-opacity:1;stroke-dasharray:none;marker-end:url(#Arrow2Mend)"
       d="m 61.752064,892.07817 15.27015,35.93879"
       id="path3816-6-9-2"
       inkscape:connector-type="polyline"
       inkscape:connector-curvature="3" />
    <path
       sodipodi:type="arc"
       style="fill:none;stroke:#000000;stroke-width:1;stroke-miterlimit:4;stroke-opacity:1;stroke-dasharray:none;stroke-dashoffset:0"
       id="path3796-7-6-7-5"
       sodipodi:cx="66.25"
       sodipodi:cy="28.75"
       sodipodi:rx="5.25"
       sodipodi:ry="5.25"
       d="M 71.5,28.75 C 71.5,31.649495 69.149495,34 66.25,34 63.350505,34 61,31.649495 61,28.75 c 0,-2.899495 2.350505,-5.25 5.25,-5.25 2.899495,0 5.25,2.350505 5.25,5.25 z"
       transform="translate(10.759957,905.6557)" />
    <path
       sodipodi:type="arc"
       style="fill:none;stroke:#000000;stroke-width:1;stroke-miterlimit:4;stroke-opacity:1;stroke-dasharray:none;stroke-dashoffset:0"
       id="path3796-7-82-1"
       sodipodi:cx="66.25"
       sodipodi:cy="28.75"
       sodipodi:rx="5.25"
       sodipodi:ry="5.25"
       d="M 71.5,28.75 C 71.5,31.649495 69.149495,34 66.25,34 63.350505,34 61,31.649495 61,28.75 c 0,-2.899495 2.350505,-5.25 5.25,-5.25 2.899495,0 5.25,2.350505 5.25,5.25 z"
       transform="translate(48.259957,859.82442)" />
    <path
       style="fill:none;stroke:#000000;stroke-width:1.09239173;stroke-linecap:butt;stroke-linejoin:miter;stroke-miterlimit:4;stroke-opacity:1;stroke-dasharray:none;marker-end:url(#Arrow2Mend)"
       d="M 111.59805,892.43801 98.680394,927.00322"
       id="path3816-6-2-9"
       inkscape:connector-type="polyline"
       inkscape:connector-curvature="3" />
    <path
       sodipodi:type="arc"
       style="fill:none;stroke:#000000;stroke-width:1;stroke-miterlimit:4;stroke-opacity:1;stroke-dasharray:none;stroke-dashoffset:0"
       id="path3796-7-6-4-3"
       sodipodi:cx="66.25"
       sodipodi:cy="28.75"
       sodipodi:rx="5.25"
       sodipodi:ry="5.25"
       d="M 71.5,28.75 C 71.5,31.649495 69.149495,34 66.25,34 63.350505,34 61,31.649495 61,28.75 c 0,-2.899495 2.350505,-5.25 5.25,-5.25 2.899495,0 5.25,2.350505 5.25,5.25 z"
       transform="translate(31.455044,904.1539)" />
    <path
       style="fill:none;stroke:#000000;stroke-width:1.21107292;stroke-linecap:butt;stroke-linejoin:miter;stroke-miterlimit:4;stroke-opacity:1;stroke-dasharray:none;marker-end:url(#Arrow2Mend)"
       d="m 118.16092,892.688 15.27015,35.93879"
       id="path3816-6-9-2-8"
       inkscape:connector-type="polyline"
       inkscape:connector-curvature="3" />
    <path
       sodipodi:type="arc"
       style="fill:none;stroke:#000000;stroke-width:1;stroke-miterlimit:4;stroke-opacity:1;stroke-dasharray:none;stroke-dashoffset:0"
       id="path3796-7-6-7-5-8"
       sodipodi:cx="66.25"
       sodipodi:cy="28.75"
       sodipodi:rx="5.25"
       sodipodi:ry="5.25"
       d="M 71.5,28.75 C 71.5,31.649495 69.149495,34 66.25,34 63.350505,34 61,31.649495 61,28.75 c 0,-2.899495 2.350505,-5.25 5.25,-5.25 2.899495,0 5.25,2.350505 5.25,5.25 z"
       transform="translate(67.168814,906.26553)" />
    <path
       style="fill:none;stroke:#000000;stroke-width:1px;stroke-linecap:butt;stroke-linejoin:miter;stroke-opacity:1;marker-end:url(#marker5129)"
       d="M 122.87984,91.867416 61.287461,123.27343"
       id="path5161"
       inkscape:connector-type="polyline"
       inkscape:connector-curvature="3"
       transform="translate(0,759.85975)" />
    <path
       style="fill:none;stroke:#000000;stroke-width:1px;stroke-linecap:butt;stroke-linejoin:miter;stroke-opacity:1;marker-end:url(#marker5129)"
       d="M 127.75844,93.391979 114.9521,122.6636"
       id="path5371"
       inkscape:connector-type="polyline"
       inkscape:connector-curvature="3"
       transform="translate(0,759.85975)" />
    <path
       style="fill:none;stroke:#ff0000;stroke-width:1;stroke-linecap:butt;stroke-linejoin:miter;stroke-opacity:1;stroke-miterlimit:4;stroke-dasharray:1, 2;stroke-dashoffset:0"
       d="m 130.50265,74.792302 c -0.50818,-0.101638 -1.01637,-0.203275 -1.52456,-0.304913 -0.30491,0 -0.61289,0.04312 -0.91474,0 -0.41485,-0.05926 -0.80382,-0.252934 -1.21965,-0.304913 -0.40341,-0.05043 -0.8131,0 -1.21965,0 -1.52456,0 -3.04913,0 -4.57369,0 -0.91474,0 -1.82948,0 -2.74422,0 -1.11801,0 -2.24061,-0.10122 -3.35404,0 -1.13167,0.10288 -2.2345,0.415124 -3.35404,0.609826 -12.102217,2.104734 4.2329,-0.691817 -7.01299,0.914738 -4.06236,0.580337 -1.84714,0.449719 -5.183516,1.219651 -0.602405,0.139017 -1.237313,0.127264 -1.829476,0.304913 -0.435368,0.13061 -0.813101,0.40655 -1.219651,0.609825 -0.406551,0.203276 -0.856022,0.337104 -1.219651,0.609826 -0.08131,0.06098 0.07187,0.233044 0,0.304913 -0.07187,0.07187 -0.233045,-0.07187 -0.304913,0 -0.07187,0.07187 0.07187,0.233044 0,0.304912 -0.07187,0.07187 -0.233044,-0.07187 -0.304913,0 -0.630875,0.630876 0.964061,-0.02466 -0.304913,0.609826 -0.09091,0.04545 -0.233044,-0.07187 -0.304912,0 -0.07187,0.07187 0.04545,0.214005 0,0.304913 -0.06428,0.128562 -0.240632,0.17635 -0.304913,0.304912 -0.04545,0.09091 0.04545,0.214006 0,0.304913 -0.06428,0.128563 -0.240632,0.17635 -0.304913,0.304913 -0.04545,0.09091 0.04545,0.214005 0,0.304913 -0.06428,0.128562 -0.240631,0.17635 -0.304913,0.304912 -0.04545,0.09091 0,0.203275 0,0.304913 0,0.203275 0.06428,0.416982 0,0.609826 -0.04545,0.136361 -0.203275,0.203275 -0.304912,0.304912 0,0.203275 0.0493,0.41262 0,0.609826 -0.05512,0.220483 -0.233044,0.394219 -0.304913,0.609825 -0.06379,0.19138 0,0.974186 0,1.219651 0,0.101638 0,0.203275 0,0.304913 0,0.101638 -0.07187,0.233044 0,0.304913 0.813101,0 -0.101638,-0.101638 0.304913,0.304912 0.07187,0.07187 0.233044,-0.07187 0.304912,0 0.07187,0.07187 -0.04545,0.214006 0,0.304913 0.06428,0.128563 0.240632,0.17635 0.304913,0.304913 0.04545,0.09091 -0.07187,0.233044 0,0.304913 0.07187,0.07187 0.233044,-0.07187 0.304913,0 0.06234,0.06234 -0.06045,0.793842 0,0.914738 0.06428,0.128562 0.240631,0.17635 0.304913,0.304913 0.04009,0.08017 0,1.060205 0,1.219651 0,0.120536 0.06511,1.39434 0,1.524563 -0.06428,0.128563 -0.240632,0.176351 -0.304913,0.304913 -0.04545,0.09091 0.04545,0.214005 0,0.304913 -0.06428,0.128562 -0.240632,0.17635 -0.304913,0.304913 -0.04545,0.09091 0.07187,0.233044 0,0.304912 -0.07187,0.07187 -0.233044,-0.07187 -0.304913,0 -0.07187,0.07187 0,0.203275 0,0.304913 0,0.203275 0.09091,0.428011 0,0.609826 -0.04545,0.09091 -0.233044,-0.07187 -0.304912,0 -0.07187,0.07187 0.04545,0.214005 0,0.304912 -0.06428,0.128563 -0.240632,0.17635 -0.304913,0.304913 -0.04545,0.09091 0.04545,0.214005 0,0.304913 -0.06428,0.128562 -0.240632,0.17635 -0.304913,0.304912 -0.04545,0.09091 0.04545,0.214006 0,0.304913 -0.128562,0.257125 -0.481263,0.352701 -0.609825,0.609826 -0.04545,0.09091 0.07187,0.233044 0,0.304912 -0.07187,0.07187 -0.233044,-0.07187 -0.304913,0 -0.07187,0.07187 0.07187,0.233045 0,0.304913 -0.07187,0.07187 -0.233044,-0.07187 -0.304913,0 -0.07187,0.07187 0.07187,0.233044 0,0.304913 -0.07187,0.07187 -0.214005,-0.04545 -0.304913,0 -0.128562,0.06428 -0.17635,0.240631 -0.304912,0.304913 -0.09091,0.04545 -0.233044,-0.07187 -0.304913,0 -0.07187,0.07187 0.07187,0.233044 0,0.304912 -0.143737,0.143738 -0.428011,-0.09091 -0.609825,0 -0.128563,0.06428 -0.176351,0.240632 -0.304913,0.304913 -0.09091,0.04545 -0.233044,-0.07187 -0.304913,0 -0.07187,0.07187 0.04545,0.214005 0,0.304913 -0.06428,0.128562 -0.203275,0.203275 -0.304913,0.304913 -0.101637,0.101637 -0.17635,0.240631 -0.304912,0.304912 -0.09091,0.04545 -0.214006,-0.04545 -0.304913,0 -0.128563,0.06428 -0.17635,0.240632 -0.304913,0.304913 -0.09091,0.04545 -0.214005,-0.04545 -0.304913,0 -1.395466,0.697733 1.293872,-0.126378 -0.914738,0.609826 -0.209729,0.06991 -0.734833,-0.08995 -0.914738,0 -0.128563,0.06428 -0.168552,0.259459 -0.304913,0.304912 -0.192844,0.06428 -0.428011,-0.09091 -0.609825,0 -0.09091,0.04545 0.07187,0.233044 0,0.304913 -1.189994,1.189996 -0.163753,-0.07058 -0.914739,0.304913 -0.257125,0.128562 -0.370632,0.450363 -0.609825,0.609823 -2.210795,1.1054 0.482109,-0.3214 -0.914738,0.60983 -0.189099,0.12606 -0.420727,0.17884 -0.609826,0.30491 -0.119596,0.0797 -0.17635,0.24063 -0.304913,0.30491 -0.09091,0.0455 -0.214005,-0.0454 -0.304912,0 -0.257125,0.12857 -0.352701,0.48127 -0.609826,0.60983 -0.09091,0.0455 -0.233044,-0.0719 -0.304913,0 -0.07187,0.0719 0.07187,0.23304 0,0.30491 -0.07187,0.0719 -0.214005,-0.0455 -0.304912,0 -0.128563,0.0643 -0.17635,0.24063 -0.304913,0.30491 -0.09091,0.0455 -0.233044,-0.0719 -0.304913,0 -0.07187,0.0719 0.07187,0.23305 0,0.30492 -0.07187,0.0719 -0.214005,-0.0455 -0.304912,0 -0.128563,0.0643 -0.176351,0.24063 -0.304913,0.30491 -0.09091,0.0455 -0.214006,-0.0455 -0.304913,0 -0.257125,0.12856 -0.3527,0.48126 -0.609825,0.60983 -0.191645,0.0958 -1.028007,-0.0958 -1.219651,0 -0.128563,0.0643 -0.176351,0.24063 -0.304913,0.30491 -0.09091,0.0454 -0.208491,-0.0321 -0.304913,0 -0.637809,0.2126 -1.204788,0.66486 -1.829476,0.91474 -0.298419,0.11936 -0.61632,0.18554 -0.914739,0.30491 -0.623213,0.24928 -1.228883,0.61444 -1.829476,0.91474 -0.203275,0.10163 -0.449122,0.14421 -0.609826,0.30491 -0.07187,0.0719 0.04545,0.21401 0,0.30491 -0.06428,0.12857 -0.203275,0.20328 -0.304912,0.30492 -0.101638,0.10163 -0.168552,0.25945 -0.304913,0.30491 -0.192844,0.0643 -0.416982,-0.0643 -0.609825,0 -0.272723,0.0909 -0.370633,0.45036 -0.609826,0.60982 -0.33537,0.22358 -1.61934,0.70461 -1.829476,0.91474 -0.160704,0.1607 -0.101638,0.50819 -0.304913,0.60983 -0.272722,0.13636 -0.615747,-0.0598 -0.914738,0 -0.222856,0.0446 -0.406551,0.20327 -0.609826,0.30491 -0.203275,0.10164 -0.40655,0.20328 -0.609825,0.30491 -0.406551,0.20328 -0.841454,0.3577 -1.219651,0.60983 -0.119597,0.0797 -0.185316,0.22518 -0.304913,0.30491 -0.562916,0.37528 -1.266561,0.53946 -1.829477,0.91474 -0.119596,0.0797 -0.185316,0.22518 -0.304912,0.30491 -0.189099,0.12607 -0.420727,0.17885 -0.609826,0.30491 -0.119596,0.0797 -0.185316,0.22519 -0.304913,0.30492 -0.378197,0.25213 -0.841453,0.35769 -1.21965,0.60982 -0.239194,0.15947 -0.370633,0.45037 -0.609826,0.60983 -0.189099,0.12606 -0.40655,0.20327 -0.609825,0.30491 -0.203276,0.20328 -0.379846,0.43734 -0.609826,0.60983 -0.181815,0.13636 -0.420727,0.17884 -0.609825,0.30491 -0.119597,0.0797 -0.185317,0.22518 -0.304913,0.30491 -0.378198,0.25213 -0.841453,0.3577 -1.219651,0.60983 -0.35879,0.23919 -0.569769,0.65601 -0.914738,0.91474 -0.36363,0.27272 -0.856022,0.3371 -1.219651,0.60982 -0.22998,0.17249 -0.363318,0.46192 -0.609826,0.60983 -0.275603,0.16536 -0.639134,0.13955 -0.914738,0.30491 -0.246507,0.1479 -0.379846,0.43734 -0.609826,0.60983 -0.181814,0.13636 -0.42801,0.16855 -0.609825,0.30491 -0.22998,0.17248 -0.385346,0.43024 -0.609825,0.60982 -0.286157,0.22893 -0.655613,0.3507 -0.914739,0.60983 -0.259126,0.25912 -0.350699,0.65561 -0.609825,0.91474 -0.160703,0.1607 -0.432359,0.16294 -0.609826,0.30491 -0.336719,0.26938 -0.609825,0.60983 -0.914738,0.91474 -0.40655,0.40655 -0.813101,0.8131 -1.219651,1.21965 -0.203275,0.20327 -0.379846,0.43734 -0.609825,0.60982 -0.181815,0.13637 -0.449123,0.14421 -0.609826,0.30492 -0.160703,0.1607 -0.168551,0.42801 -0.304913,0.60982 -0.800204,1.06694 -0.329239,0.24693 -1.219651,0.91474 -0.229979,0.17249 -0.40655,0.40655 -0.609825,0.60983 -0.40655,0.40655 -0.813101,0.8131 -1.219651,1.21965 -0.40655,0.40655 -0.813101,0.8131 -1.219651,1.21965 -0.203275,0.20327 -0.437341,0.37984 -0.609825,0.60982 -0.136362,0.18182 -0.168552,0.42801 -0.304913,0.60983 -0.172485,0.22998 -0.450364,0.37063 -0.609826,0.60982 -0.05638,0.0846 0,0.20328 0,0.30492 -0.101637,0.20327 -0.178847,0.42072 -0.304912,0.60982 -0.07973,0.1196 -0.240632,0.17635 -0.304913,0.30492 -0.09091,0.18181 0.143737,0.46608 0,0.60982 -0.07187,0.0719 -0.233044,-0.0719 -0.304913,0 -0.09022,0.0902 0.09443,1.03079 0,1.21965 -0.06428,0.12856 -0.259459,0.16855 -0.304913,0.30491 -0.06428,0.19285 0,0.40656 0,0.60983 0,0.10164 0.04545,0.21401 0,0.30491 -0.06428,0.12857 -0.240631,0.17635 -0.304912,0.30492 -0.04545,0.0909 0.03214,0.20849 0,0.30491 -0.07187,0.2156 -0.233045,0.39422 -0.304913,0.60982 -0.03214,0.0964 0.04545,0.21401 0,0.30492 -0.06428,0.12856 -0.259459,0.16855 -0.304913,0.30491 -0.128562,0.38569 0.128563,0.83396 0,1.21965 -0.04545,0.13636 -0.259459,0.16855 -0.304913,0.30491 -0.06428,0.19285 0.06428,0.41699 0,0.60983 -0.04545,0.13636 -0.225181,0.18531 -0.304912,0.30491 -0.126066,0.1891 -0.203276,0.40655 -0.304913,0.60983 -0.101638,0.20327 -0.233044,0.39422 -0.304913,0.60982 -0.03214,0.0964 0.03214,0.20849 0,0.30492 -0.143737,0.43121 -0.40655,0.8131 -0.609825,1.21965 -0.101638,0.20327 -0.249792,0.38934 -0.304913,0.60982 -0.0493,0.19721 0.06428,0.41698 0,0.60983 -0.04545,0.13636 -0.259459,0.16855 -0.304913,0.30491 -0.152456,0.45737 0.152457,1.06719 0,1.52456 -0.04545,0.13636 -0.240631,0.17635 -0.304913,0.30492 -0.04545,0.0909 0,0.20327 0,0.30491 0,0.10164 0,0.20327 0,0.30491 0,0.17019 0.04653,1.38499 0,1.52457 -0.04545,0.13636 -0.259459,0.16855 -0.304912,0.30491 -0.06428,0.19284 0.0493,0.41262 0,0.60982 -0.368102,1.47241 -0.144901,-0.0151 -0.609826,0.91474 -0.06784,0.13568 0.04649,1.08019 0,1.21965 -0.04545,0.13636 -0.259459,0.16855 -0.304913,0.30492 -0.05782,0.17345 0,1.23738 0,1.52456 0,0.10164 0.03214,0.20849 0,0.30491 -0.07187,0.21561 -0.233044,0.39422 -0.304912,0.60983 -0.05501,0.16502 0,1.11577 0,1.21965 0,0.60982 0,1.21965 0,1.82948 0,1.42292 0,2.84585 0,4.26877 0,1.21965 0,2.43931 0,3.65896 0,0.3542 -0.06911,1.24814 0,1.52456 0.05512,0.22048 0.233044,0.39422 0.304912,0.60983 0.09642,0.28926 -0.07395,0.61893 0,0.91473 0.05512,0.22049 0.233045,0.39422 0.304913,0.60983 0.108002,0.324 -0.108001,0.89565 0,1.21965 0.07187,0.21561 0.233044,0.39422 0.304913,0.60983 0.09147,0.27442 -0.09147,0.64031 0,0.91473 0.07187,0.21561 0.233044,0.39422 0.304913,0.60983 0.03214,0.0964 -0.03214,0.20849 0,0.30491 0.07187,0.21561 0.233044,0.39422 0.304912,0.60983 0.03214,0.0964 -0.03214,0.20849 0,0.30491 0.07187,0.21561 0.249792,0.38934 0.304913,0.60983 0.0493,0.1972 -0.06428,0.41698 0,0.60982 0.04545,0.13636 0.240632,0.17635 0.304913,0.30491 0.04545,0.0909 -0.03214,0.2085 0,0.30492 0.07187,0.2156 0.233044,0.39422 0.304913,0.60982 0.09642,0.28927 -0.09642,0.62548 0,0.91474 0.04545,0.13636 0.259459,0.16855 0.304912,0.30491 0.06428,0.19285 -0.06428,0.41699 0,0.60983 0.04545,0.13636 0.225182,0.18532 0.304913,0.30491 0.252132,0.3782 0.357694,0.84145 0.609826,1.21965 0.07973,0.1196 0.225181,0.18532 0.304912,0.30492 0.126066,0.18909 0.233044,0.39421 0.304913,0.60982 0.03214,0.0964 -0.05638,0.22035 0,0.30491 0.5547,0.83205 0.637388,0.49872 0.914738,0.91474 0.126066,0.1891 0.14421,0.44912 0.304913,0.60983 0.160703,0.1607 0.428011,0.16855 0.609826,0.30491 0.229979,0.17248 0.40655,0.40655 0.609825,0.60983 0.40655,0.40655 0.813101,0.8131 1.219651,1.21965 0.203275,0.20327 0.379846,0.43734 0.609826,0.60982 0.181814,0.13636 0.414944,0.18799 0.609825,0.30491 0.314236,0.18855 0.621571,0.38995 0.914738,0.60983 0.11499,0.0862 0.17635,0.24063 0.304913,0.30491 0.287474,0.14374 0.639135,0.13955 0.914738,0.30492 0.246508,0.1479 0.363318,0.46192 0.609826,0.60982 0.275603,0.16536 0.61632,0.18555 0.914738,0.30491 0.211013,0.0844 0.39422,0.23305 0.609825,0.30492 0.397558,0.13252 0.816713,0.18978 1.219651,0.30491 3.062024,0.87486 -1.678437,-0.34338 2.13439,0.60982 0.8131,0.20328 1.633424,0.37958 2.439301,0.60983 3.062024,0.87486 -1.678437,-0.34338 2.13439,0.60983 0.40655,0.10163 0.803151,0.25863 1.219651,0.30491 1.010159,0.11224 2.036925,-0.092 3.049127,0 0.615698,0.056 1.213778,0.24894 1.829477,0.30491 0.372671,0.0339 3.130437,-0.0406 3.35404,0 0.538506,0.0979 0.986057,0.51192 1.524563,0.60983 0.599989,0.10909 1.229488,-0.10909 1.829477,0 0.538506,0.0979 0.986057,0.51191 1.524564,0.60982 0.599989,0.10909 1.219651,0 1.829476,0 1.931114,0 3.862228,0 5.793342,0 2.744215,0 5.488429,0 8.232644,0 0.711463,0 1.422926,0 2.134389,0 0.711463,0 1.430077,0.10062 2.13439,0 0.732496,-0.10464 1.401893,-0.50518 2.134389,-0.60982 0.704312,-0.10062 1.430076,0.10061 2.134389,0 0.732496,-0.10465 1.401893,-0.50519 2.134389,-0.60983 0.704313,-0.10061 1.422926,0 2.134389,0 0.711463,0 1.422926,0 2.13439,0 2.236026,0 4.472052,0 6.708082,0 0.8131,0 1.62778,0.0507 2.4393,0 0.81783,-0.0511 1.62169,-0.2504 2.4393,-0.30491 0.70989,-0.0473 1.42917,0.094 2.13439,0 0.83077,-0.11077 1.60765,-0.50587 2.4393,-0.60983 0.80682,-0.10085 1.6262,0 2.4393,0 1.11802,0 2.23603,0 3.35404,0 0.50819,0 1.01638,0 1.52457,0 0.40655,0 0.82524,0.0986 1.21965,0 0.44097,-0.11024 0.77868,-0.49958 1.21965,-0.60982 0.47431,-0.11858 1.60079,0.0889 2.13439,0 0.31703,-0.0528 0.59656,-0.25946 0.91474,-0.30492 2.63767,0 -0.033,0.12857 2.13439,-0.30491 0.39865,-0.0797 0.82524,0.0986 1.21965,0 0.22048,-0.0551 0.39422,-0.23304 0.60982,-0.30491 0.0964,-0.0321 0.21401,0.0454 0.30492,0 0.12856,-0.0643 0.16855,-0.25946 0.30491,-0.30491 0.19284,-0.0643 0.41698,0.0643 0.60982,0 0.13637,-0.0455 0.16856,-0.25946 0.30492,-0.30492 0.18473,-0.0616 2.42102,0 2.4393,0 0.60982,0 1.21965,0 1.82948,0 0.30491,0 0.61397,0.0501 0.91473,0 0.31704,-0.0528 0.59958,-0.24188 0.91474,-0.30491 0.16975,-0.034 1.18996,0.0297 1.21965,0 0.0719,-0.0719 -0.0455,-0.214 0,-0.30491 0.12857,-0.25713 0.48127,-0.3527 0.60983,-0.60983 0.0455,-0.0909 -0.0454,-0.214 0,-0.30491 0.0643,-0.12856 0.24063,-0.17635 0.30491,-0.30491 0.0455,-0.0909 -0.0455,-0.21401 0,-0.30492 0.0643,-0.12856 0.24063,-0.17635 0.30491,-0.30491 0.0909,-0.18181 -0.0909,-0.42801 0,-0.60982 0.0643,-0.12857 0.24064,-0.17635 0.30492,-0.30492 0.0808,-0.16167 -0.0691,-1.31713 0,-1.52456 0.0455,-0.13636 0.24063,-0.17635 0.30491,-0.30491 0.0454,-0.0909 0,-0.20328 0,-0.30492 0.10164,-0.10163 0.24063,-0.17635 0.30491,-0.30491 0.0464,-0.0928 0,-0.77742 0,-0.91474 0,-0.9815 -0.0719,0.52052 0.30492,-0.60982 0.0562,-0.16862 0,-1.52242 0,-1.82948 0,-0.10164 -0.0455,-0.214 0,-0.30491 0.0643,-0.12856 0.24063,-0.17635 0.30491,-0.30491 0.0455,-0.0909 0,-0.20328 0,-0.30492 0,-0.10163 0,-0.20327 0,-0.30491 0,-0.60982 0,-1.21965 0,-1.82948 0,-1.32128 0,-2.64257 0,-3.96386 0,-1.11801 0,-2.23603 0,-3.35404 0,-0.15945 0.0401,-1.13948 0,-1.21965 -0.0643,-0.12857 -0.25946,-0.16855 -0.30491,-0.30492 -0.0643,-0.19284 0,-0.40655 0,-0.60982 0,-0.10164 0.0455,-0.21401 0,-0.30491 -0.0643,-0.12857 -0.24064,-0.17635 -0.30492,-0.30492 -0.0455,-0.0909 0,-0.20327 0,-0.30491 0,-0.40655 0,-0.8131 0,-1.21965 0,-0.20328 0,-0.40655 0,-0.60983 0,-0.10163 0.0321,-0.20849 0,-0.30491 -0.0719,-0.2156 -0.23304,-0.39422 -0.30491,-0.60982 -0.0321,-0.0964 0,-0.20328 0,-0.30492 0,-0.50818 0,-1.01637 0,-1.52456 0,-0.20328 0.0493,-0.41262 0,-0.60983 -0.0551,-0.22048 -0.24979,-0.38934 -0.30491,-0.60982 -0.0691,-0.27642 0,-1.17036 0,-1.52456 0,-1.21966 0,-2.43931 0,-3.65896 0,-3.76059 0,-7.52118 0,-11.28177 0,-0.25876 0.056,-1.66138 0,-1.82948 -0.0455,-0.13636 -0.25946,-0.16855 -0.30492,-0.30491 -0.0964,-0.28926 0,-0.60982 0,-0.91474 0,-0.8131 0,-1.6262 0,-2.4393 0,-0.30491 0.0964,-0.62547 0,-0.91474 -0.0455,-0.13636 -0.25945,-0.16855 -0.30491,-0.30491 -0.0643,-0.19284 0,-0.40655 0,-0.60983 0,-0.50818 0.0997,-1.02624 0,-1.52456 -0.0446,-0.22285 -0.26034,-0.38697 -0.30491,-0.60982 -0.0997,-0.49832 0,-1.01638 0,-1.52457 0,-1.21965 0,-2.4393 0,-3.65895 0,-0.40655 0.0575,-0.81719 0,-1.21965 -0.0454,-0.31818 -0.25208,-0.59771 -0.30491,-0.91474 -0.0501,-0.30076 0,-0.60983 0,-0.91474 -0.10164,-0.30491 -0.25208,-0.5977 -0.30492,-0.91474 -0.10025,-0.60152 0.0862,-1.22578 0,-1.82947 -0.0593,-0.41485 -0.24565,-0.8048 -0.30491,-1.21965 -0.0431,-0.30185 0.0501,-0.61398 0,-0.91474 -0.0528,-0.31704 -0.25207,-0.59771 -0.30491,-0.91474 -0.11959,-0.71753 0.14023,-1.73814 0,-2.4393 -0.0446,-0.22286 -0.24979,-0.38934 -0.30491,-0.60983 -0.0986,-0.39441 0.0986,-0.82524 0,-1.21965 -0.0551,-0.22048 -0.2498,-0.38934 -0.30492,-0.60982 -0.13235,-0.52941 0.13235,-1.30008 0,-1.82948 -0.0551,-0.22048 -0.24979,-0.38934 -0.30491,-0.60983 -0.058,-0.23187 0,-1.26923 0,-1.52456 0,-1.01638 0,-2.03275 0,-3.04913 0,-0.34963 0.079,-0.90379 0,-1.21965 -0.0551,-0.22048 -0.24979,-0.38934 -0.30491,-0.60982 -0.058,-0.23188 0,-1.26924 0,-1.52457 0,-1.01637 0,-2.03275 0,-3.04912 0,-2.439307 0,-4.878609 0,-7.317911 0,-0.609825 0,-1.219651 0,-1.829476 0,-0.203275 0,-0.406551 0,-0.609826 0,-0.101637 0.0321,-0.208491 0,-0.304912 -0.0719,-0.215606 -0.2498,-0.389343 -0.30492,-0.609826 -0.0649,-0.259546 0.0875,-1.349523 0,-1.524564 -0.0643,-0.128562 -0.25945,-0.168551 -0.30491,-0.304912 -0.0795,-0.238379 0.0839,-1.661683 0,-1.829477 -0.0643,-0.128562 -0.24063,-0.17635 -0.30491,-0.304913 -0.0958,-0.191644 0.0958,-1.028006 0,-1.219651 -0.0643,-0.128562 -0.24063,-0.17635 -0.30491,-0.304912 -0.0455,-0.09091 0.0455,-0.214006 0,-0.304913 -0.0643,-0.128563 -0.24064,-0.17635 -0.30492,-0.304913 -0.16271,-0.325423 0.16271,-0.284402 0,-0.609825 -0.0643,-0.128563 -0.24063,-0.17635 -0.30491,-0.304913 -0.0455,-0.09091 0,-0.203275 0,-0.304913 0,-0.203275 0.0643,-0.416981 0,-0.609825 -0.0455,-0.136361 -0.24063,-0.17635 -0.30491,-0.304913 -0.0455,-0.09091 0.0321,-0.208491 0,-0.304913 -0.0719,-0.215606 -0.23305,-0.394219 -0.30492,-0.609825 -0.0321,-0.09642 0,-0.203275 0,-0.304913 0,-0.203275 0.0643,-0.416982 0,-0.609825 -0.0454,-0.136362 -0.25945,-0.168552 -0.30491,-0.304913 0,-1.38805 0.14374,-0.01744 -0.30491,-0.914738 -0.0455,-0.09091 0.0564,-0.220346 0,-0.304913 -0.15946,-0.239193 -0.45036,-0.370632 -0.60983,-0.609826 -0.0564,-0.08457 0.0455,-0.214005 0,-0.304912 -1.01126,-1.011269 0.14374,0.287474 -0.30491,-0.609826 -0.0643,-0.128562 -0.24063,-0.17635 -0.30491,-0.304913 -0.0455,-0.09091 0.0719,-0.233044 0,-0.304912 -0.0719,-0.07187 -0.21401,0.04545 -0.30491,0 -1.01127,-1.011269 0.28747,0.143737 -0.60983,-0.304913 -0.12856,-0.06428 -0.18532,-0.225182 -0.30491,-0.304913 -0.49311,-0.328739 -1.01638,-0.609825 -1.52457,-0.914738 z"
       id="path5581"
       inkscape:connector-curvature="0"
       transform="translate(0,759.85975)" />
    <flowRoot
       xml:space="preserve"
       id="flowRoot5583"
       style="font-size:10px;font-style:normal;font-weight:normal;line-height:125%;letter-spacing:0px;word-spacing:0px;fill:#000000;fill-opacity:1;stroke:none;font-family:Sans"
       transform="translate(10.06212,760.46958)"><flowRegion
         id="flowRegion5585"><rect
           id="rect5587"
           width="63.421852"
           height="14.940724"
           x="43.297611"
           y="201.636" /></flowRegion><flowPara
         id="flowPara5589">Root Tree</flowPara></flowRoot>    <rect
       style="fill:none;stroke:#000000;stroke-width:1;stroke-miterlimit:4;stroke-opacity:1;stroke-dasharray:none;stroke-dashoffset:0"
       id="rect2985-6"
       width="137"
       height="215"
       x="151.34209"
       y="773.80371" />
    <path
       sodipodi:type="arc"
       style="fill:none;stroke:#000000;stroke-width:1;stroke-miterlimit:4;stroke-opacity:1;stroke-dasharray:none;stroke-dashoffset:0"
       id="path3796-7-6-1-6-7"
       sodipodi:cx="66.25"
       sodipodi:cy="28.75"
       sodipodi:rx="5.25"
       sodipodi:ry="5.25"
       d="M 71.5,28.75 C 71.5,31.649495 69.149495,34 66.25,34 63.350505,34 61,31.649495 61,28.75 c 0,-2.899495 2.350505,-5.25 5.25,-5.25 2.899495,0 5.25,2.350505 5.25,5.25 z"
       transform="translate(155.5645,761.82875)" />
    <path
       sodipodi:type="arc"
       style="fill:none;stroke:#000000;stroke-width:1;stroke-miterlimit:4;stroke-opacity:1;stroke-dasharray:none;stroke-dashoffset:0"
       id="path3796-7-82-0"
       sodipodi:cx="66.25"
       sodipodi:cy="28.75"
       sodipodi:rx="5.25"
       sodipodi:ry="5.25"
       d="M 71.5,28.75 C 71.5,31.649495 69.149495,34 66.25,34 63.350505,34 61,31.649495 61,28.75 c 0,-2.899495 2.350505,-5.25 5.25,-5.25 2.899495,0 5.25,2.350505 5.25,5.25 z"
       transform="translate(127.07037,799.28583)" />
    <path
       style="fill:none;stroke:#000000;stroke-width:1.09239173;stroke-linecap:butt;stroke-linejoin:miter;stroke-miterlimit:4;stroke-opacity:1;stroke-dasharray:none;marker-end:url(#Arrow2Mend)"
       d="m 190.40847,831.89938 -12.91766,34.5653"
       id="path3816-6-2-3"
       inkscape:connector-type="polyline"
       inkscape:connector-curvature="3" />
    <path
       sodipodi:type="arc"
       style="fill:none;stroke:#000000;stroke-width:1;stroke-miterlimit:4;stroke-opacity:1;stroke-dasharray:none;stroke-dashoffset:0"
       id="path3796-7-6-4-8"
       sodipodi:cx="66.25"
       sodipodi:cy="28.75"
       sodipodi:rx="5.25"
       sodipodi:ry="5.25"
       d="M 71.5,28.75 C 71.5,31.649495 69.149495,34 66.25,34 63.350505,34 61,31.649495 61,28.75 c 0,-2.899495 2.350505,-5.25 5.25,-5.25 2.899495,0 5.25,2.350505 5.25,5.25 z"
       transform="translate(110.26545,843.61528)" />
    <path
       style="fill:none;stroke:#000000;stroke-width:1.21107292;stroke-linecap:butt;stroke-linejoin:miter;stroke-miterlimit:4;stroke-opacity:1;stroke-dasharray:none;marker-end:url(#Arrow2Mend)"
       d="m 196.97133,832.14938 15.27015,35.9388"
       id="path3816-6-9-2-85"
       inkscape:connector-type="polyline"
       inkscape:connector-curvature="3" />
    <path
       sodipodi:type="arc"
       style="fill:none;stroke:#000000;stroke-width:1;stroke-miterlimit:4;stroke-opacity:1;stroke-dasharray:none;stroke-dashoffset:0"
       id="path3796-7-6-7-5-81"
       sodipodi:cx="66.25"
       sodipodi:cy="28.75"
       sodipodi:rx="5.25"
       sodipodi:ry="5.25"
       d="M 71.5,28.75 C 71.5,31.649495 69.149495,34 66.25,34 63.350505,34 61,31.649495 61,28.75 c 0,-2.899495 2.350505,-5.25 5.25,-5.25 2.899495,0 5.25,2.350505 5.25,5.25 z"
       transform="translate(145.97923,845.72698)" />
    <path
       sodipodi:type="arc"
       style="fill:none;stroke:#000000;stroke-width:1;stroke-miterlimit:4;stroke-opacity:1;stroke-dasharray:none;stroke-dashoffset:0"
       id="path3796-7-82-1-5"
       sodipodi:cx="66.25"
       sodipodi:cy="28.75"
       sodipodi:rx="5.25"
       sodipodi:ry="5.25"
       d="M 71.5,28.75 C 71.5,31.649495 69.149495,34 66.25,34 63.350505,34 61,31.649495 61,28.75 c 0,-2.899495 2.350505,-5.25 5.25,-5.25 2.899495,0 5.25,2.350505 5.25,5.25 z"
       transform="translate(183.47923,799.89566)" />
    <path
       style="fill:none;stroke:#000000;stroke-width:1.09239173;stroke-linecap:butt;stroke-linejoin:miter;stroke-miterlimit:4;stroke-opacity:1;stroke-dasharray:none;marker-end:url(#Arrow2Mend)"
       d="m 246.81732,832.50928 -12.91766,34.5652"
       id="path3816-6-2-9-2"
       inkscape:connector-type="polyline"
       inkscape:connector-curvature="3" />
    <path
       sodipodi:type="arc"
       style="fill:none;stroke:#000000;stroke-width:1;stroke-miterlimit:4;stroke-opacity:1;stroke-dasharray:none;stroke-dashoffset:0"
       id="path3796-7-6-4-3-0"
       sodipodi:cx="66.25"
       sodipodi:cy="28.75"
       sodipodi:rx="5.25"
       sodipodi:ry="5.25"
       d="M 71.5,28.75 C 71.5,31.649495 69.149495,34 66.25,34 63.350505,34 61,31.649495 61,28.75 c 0,-2.899495 2.350505,-5.25 5.25,-5.25 2.899495,0 5.25,2.350505 5.25,5.25 z"
       transform="translate(166.67431,844.22518)" />
    <path
       style="fill:none;stroke:#000000;stroke-width:1.21107292;stroke-linecap:butt;stroke-linejoin:miter;stroke-miterlimit:4;stroke-opacity:1;stroke-dasharray:none;marker-end:url(#Arrow2Mend)"
       d="m 253.38019,832.75928 15.27015,35.9388"
       id="path3816-6-9-2-8-6"
       inkscape:connector-type="polyline"
       inkscape:connector-curvature="3" />
    <path
       sodipodi:type="arc"
       style="fill:none;stroke:#000000;stroke-width:1;stroke-miterlimit:4;stroke-opacity:1;stroke-dasharray:none;stroke-dashoffset:0"
       id="path3796-7-6-7-5-8-2"
       sodipodi:cx="66.25"
       sodipodi:cy="28.75"
       sodipodi:rx="5.25"
       sodipodi:ry="5.25"
       d="M 71.5,28.75 C 71.5,31.649495 69.149495,34 66.25,34 63.350505,34 61,31.649495 61,28.75 c 0,-2.899495 2.350505,-5.25 5.25,-5.25 2.899495,0 5.25,2.350505 5.25,5.25 z"
       transform="translate(202.38808,846.33678)" />
    <flowRoot
       transform="translate(157.17299,759.08406)"
       xml:space="preserve"
       id="flowRoot5583-6"
       style="font-size:10px;font-style:normal;font-weight:normal;line-height:125%;letter-spacing:0px;word-spacing:0px;fill:#000000;fill-opacity:1;stroke:none;font-family:Sans"><flowRegion
         id="flowRegion5585-3"><rect
           id="rect5587-3"
           width="63.421852"
           height="14.940724"
           x="43.297611"
           y="201.636" /></flowRegion><flowPara
         id="flowPara6497">Workdir</flowPara></flowRoot>    <path
       style="fill:none;stroke:#000000;stroke-width:1px;stroke-linecap:butt;stroke-linejoin:miter;stroke-opacity:1;marker-end:url(#marker5641)"
       d="M 217.7077,33.629082 195.75398,62.900705"
       id="path5791"
       inkscape:connector-type="polyline"
       inkscape:connector-curvature="0"
       transform="translate(0,759.85975)" />
    <path
       style="fill:none;stroke:#000000;stroke-width:1px;stroke-linecap:butt;stroke-linejoin:miter;stroke-opacity:1;marker-end:url(#marker5641)"
       d="m 224.41578,33.933995 22.25863,30.491274"
       id="path6025"
       inkscape:connector-type="polyline"
       inkscape:connector-curvature="0"
       transform="translate(0,759.85975)" />
    <path
       style="fill:none;stroke:#ff0000;stroke-width:1;stroke-linecap:butt;stroke-linejoin:miter;stroke-miterlimit:4;stroke-opacity:1;stroke-dasharray:4, 1;stroke-dashoffset:0"
       d="M 131.11248,74.487389 151.54163,12.895015"
       id="path6261"
       inkscape:connector-type="polyline"
       inkscape:connector-curvature="0"
       transform="translate(0,759.85975)" />
    <path
       style="fill:none;stroke:#ff0000;stroke-width:0.93189651;stroke-linecap:butt;stroke-linejoin:miter;stroke-miterlimit:4;stroke-opacity:1;stroke-dasharray:3.72758593, 0.93189648;stroke-dashoffset:0;marker-end:url(#Arrow2Send)"
       d="m 140.22581,945.60623 10.45457,43.07061"
       id="path6263"
       inkscape:connector-type="polyline"
       inkscape:connector-curvature="0" />
    <path
       style="fill:none;stroke:#0000ff;stroke-width:1;stroke-linecap:butt;stroke-linejoin:miter;stroke-opacity:1;stroke-miterlimit:4;stroke-dasharray:1, 2;stroke-dashoffset:0"
       d="m 126,151.5 c -1.33333,1 -3,4.33333 -4,3 -1,-1.33333 5.17851,-4.17851 4,-3 -1.50923,1.50923 -3.49077,2.49077 -5,4 -0.2357,0.2357 0.2357,0.7643 0,1 -0.2357,0.2357 -0.7643,-0.2357 -1,0 -0.2357,0.2357 0.2357,0.7643 0,1 -0.2357,0.2357 -0.7643,-0.2357 -1,0 -0.4714,0.4714 0.4714,1.5286 0,2 -0.2357,0.2357 -0.7643,-0.2357 -1,0 -0.4714,0.4714 0.4714,1.5286 0,2 -0.2357,0.2357 -0.7643,-0.2357 -1,0 -0.4714,0.4714 0.29814,1.40372 0,2 -0.21082,0.42164 -0.78918,0.57836 -1,1 -0.14907,0.29814 0.2357,0.7643 0,1 -0.2357,0.2357 -0.7643,-0.2357 -1,0 -0.5,0.5 0.5,2.5 0,3 -0.2357,0.2357 -0.7643,-0.2357 -1,0 -0.4714,0.4714 0.4714,1.5286 0,2 -0.2357,0.2357 -0.7643,-0.2357 -1,0 -0.2357,0.2357 0.2357,0.7643 0,1 -0.2357,0.2357 -0.7643,-0.2357 -1,0 -0.4714,0.4714 0.29814,1.40372 0,2 -0.21082,0.42164 -0.78918,0.57836 -1,1 -0.14907,0.29814 0.2357,0.7643 0,1 -0.2357,0.2357 -0.7643,-0.2357 -1,0 -0.4714,0.4714 0.4714,1.5286 0,2 -0.2357,0.2357 -0.7643,-0.2357 -1,0 -0.4714,0.4714 0.29814,1.40372 0,2 -0.21082,0.42164 -0.78918,0.57836 -1,1 -0.29814,0.59628 0.29814,1.40372 0,2 -0.21082,0.42164 -0.78918,0.57836 -1,1 -0.29814,0.59628 0.4714,1.5286 0,2 -0.2357,0.2357 -0.7643,-0.2357 -1,0 -0.27362,0.27362 0.27124,3.45751 0,4 -0.21082,0.42164 -0.78918,0.57836 -1,1 -0.4,0.8 0.4,2.2 0,3 -0.21082,0.42164 -0.78918,0.57836 -1,1 -0.4,0.8 0.4,2.2 0,3 -0.21082,0.42164 -0.78918,0.57836 -1,1 -0.31426,0.62852 0.31426,3.37148 0,4 -0.21082,0.42164 -0.78918,0.57836 -1,1 -0.4,0.8 0.4,2.2 0,3 -0.21082,0.42164 -0.78918,0.57836 -1,1 -0.15217,0.30433 0,2.54964 0,3 0,2 0,4 0,6 0,2.66667 0,5.33333 0,8 0,0.33333 0,0.66667 0,1 0,0.33333 -0.2357,0.7643 0,1 0.2357,0.2357 0.7643,-0.2357 1,0 0.4714,0.4714 -0.29814,1.40372 0,2 0.21082,0.42164 0.78918,0.57836 1,1 0.29814,0.59628 -0.29814,1.40372 0,2 0.21082,0.42164 0.78918,0.57836 1,1 0.29814,0.59628 -0.4714,1.5286 0,2 0.2357,0.2357 0.7643,-0.2357 1,0 0.2357,0.2357 -0.14907,0.70186 0,1 0.21082,0.42164 0.78918,0.57836 1,1 0.29814,0.59628 -0.4714,1.5286 0,2 0.2357,0.2357 0.7643,-0.2357 1,0 0.2357,0.2357 -0.14907,0.70186 0,1 0.21082,0.42164 0.78918,0.57836 1,1 0.14907,0.29814 -0.14907,0.70186 0,1 0.21082,0.42164 0.78918,0.57836 1,1 0.14907,0.29814 -0.2357,0.7643 0,1 0.2357,0.2357 0.7643,-0.2357 1,0 0.2357,0.2357 -0.14907,0.70186 0,1 0.21082,0.42164 0.78918,0.57836 1,1 0.14907,0.29814 -0.2357,0.7643 0,1 0.2357,0.2357 0.7643,-0.2357 1,0 0.2357,0.2357 -0.2357,0.7643 0,1 0.2357,0.2357 0.7643,-0.2357 1,0 0.2357,0.2357 -0.2357,0.7643 0,1 0.2357,0.2357 0.7643,-0.2357 1,0 0.2357,0.2357 -0.2357,0.7643 0,1 0.2357,0.2357 0.7643,-0.2357 1,0 0.2357,0.2357 -0.2357,0.7643 0,1 0.5,0.5 2.5,-0.5 3,0 0.2357,0.2357 -0.2357,0.7643 0,1 0.4714,0.4714 1.5286,-0.4714 2,0 0.2357,0.2357 -0.2357,0.7643 0,1 0.2357,0.2357 0.66667,0 1,0 0.33333,0 0.66667,0 1,0 0.33333,0 1,-0.33333 1,0 0,0.33333 -1.33333,0 -1,0 0.66667,0 1.33333,0 2,0"
       id="path6501"
       inkscape:connector-curvature="0"
       transform="translate(0,759.85975)" />
    <text
       xml:space="preserve"
       style="font-size:10px;font-style:normal;font-weight:normal;line-height:125%;letter-spacing:0px;word-spacing:0px;fill:#000000;fill-opacity:1;stroke:none;font-family:Sans"
       x="124.99999"
       y="1015.2908"
       id="text6503"
       sodipodi:linespacing="125%"><tspan
         sodipodi:role="line"
         id="tspan6505"
         x="124.99999"
         y="1015.2908">-rw-rw-r-- alice alice server.c</tspan></text>
    <text
       xml:space="preserve"
       style="font-size:10px;font-style:normal;font-weight:normal;line-height:125%;letter-spacing:0px;word-spacing:0px;fill:#ff0000;fill-opacity:1;stroke:none;font-family:Sans"
       x="121.98276"
       y="264.91379"
       id="text6507"
       sodipodi:linespacing="125%"
       transform="translate(0,759.85975)"><tspan
         sodipodi:role="line"
         id="tspan6509"
         x="121.98276"
         y="264.91379">See latex comment (*) here</tspan></text>
    <text
       xml:space="preserve"
       style="font-size:9px;font-style:normal;font-weight:normal;text-align:center;line-height:125%;letter-spacing:0px;word-spacing:0px;text-anchor:middle;fill:#ff6600;fill-opacity:1;stroke:none;font-family:Sans"
       x="38.16238"
       y="822.77173"
       id="text6511"
       sodipodi:linespacing="125%"><tspan
         sodipodi:role="line"
         id="tspan6513"
         x="38.16238"
         y="822.77173">access</tspan><tspan
         sodipodi:role="line"
         x="38.16238"
         y="834.02173"
         id="tspan6515">control</tspan><tspan
         sodipodi:role="line"
         x="38.16238"
         y="845.27173"
         id="tspan6517">list</tspan></text>
  </g>
</svg>
