<?xml version="1.0" encoding="UTF-8" standalone="no"?>
<!-- Created with Inkscape (http://www.inkscape.org/) -->

<svg
   xmlns:dc="http://purl.org/dc/elements/1.1/"
   xmlns:cc="http://creativecommons.org/ns#"
   xmlns:rdf="http://www.w3.org/1999/02/22-rdf-syntax-ns#"
   xmlns:svg="http://www.w3.org/2000/svg"
   xmlns="http://www.w3.org/2000/svg"
   xmlns:sodipodi="http://sodipodi.sourceforge.net/DTD/sodipodi-0.dtd"
   xmlns:inkscape="http://www.inkscape.org/namespaces/inkscape"
   width="240.10107"
   height="318.68088"
   id="svg6519"
   version="1.1"
   inkscape:version="0.48.3.1 r9886"
   sodipodi:docname="New document 30">
  <defs
     id="defs6521">
    <marker
       inkscape:stockid="Arrow1Mend"
       orient="auto"
       refY="0"
       refX="0"
       id="Arrow1Mend"
       style="overflow:visible">
      <path
         id="path3833"
         d="M 0,0 5,-5 -12.5,0 5,5 0,0 z"
         style="fill-rule:evenodd;stroke:#000000;stroke-width:1pt"
         transform="matrix(-0.4,0,0,-0.4,-4,0)"
         inkscape:connector-curvature="0" />
    </marker>
    <marker
       inkscape:stockid="Arrow2Mend"
       orient="auto"
       refY="0"
       refX="0"
       id="Arrow2Mend"
       style="overflow:visible">
      <path
         id="path3851"
         style="fill-rule:evenodd;stroke-width:0.625;stroke-linejoin:round"
         d="M 8.7185878,4.0337352 -2.2072895,0.01601326 8.7185884,-4.0017078 c -1.7454984,2.3720609 -1.7354408,5.6174519 -6e-7,8.035443 z"
         transform="scale(-0.6,-0.6)"
         inkscape:connector-curvature="0" />
    </marker>
    <marker
       inkscape:stockid="Arrow2Mend"
       orient="auto"
       refY="0"
       refX="0"
       id="Arrow2Mend-3"
       style="overflow:visible">
      <path
         inkscape:connector-curvature="0"
         id="path3851-5"
         style="fill-rule:evenodd;stroke-width:0.625;stroke-linejoin:round"
         d="M 8.7185878,4.0337352 -2.2072895,0.01601326 8.7185884,-4.0017078 c -1.7454984,2.3720609 -1.7354408,5.6174519 -6e-7,8.035443 z"
         transform="scale(-0.6,-0.6)" />
    </marker>
    <marker
       inkscape:stockid="Arrow2Mend"
       orient="auto"
       refY="0"
       refX="0"
       id="marker7457"
       style="overflow:visible">
      <path
         inkscape:connector-curvature="0"
         id="path7459"
         style="fill-rule:evenodd;stroke-width:0.625;stroke-linejoin:round"
         d="M 8.7185878,4.0337352 -2.2072895,0.01601326 8.7185884,-4.0017078 c -1.7454984,2.3720609 -1.7354408,5.6174519 -6e-7,8.035443 z"
         transform="scale(-0.6,-0.6)" />
    </marker>
    <marker
       inkscape:stockid="Arrow2Mend"
       orient="auto"
       refY="0"
       refX="0"
       id="Arrow2Mend-4"
       style="overflow:visible">
      <path
         inkscape:connector-curvature="0"
         id="path3851-9"
         style="fill-rule:evenodd;stroke-width:0.625;stroke-linejoin:round"
         d="M 8.7185878,4.0337352 -2.2072895,0.01601326 8.7185884,-4.0017078 c -1.7454984,2.3720609 -1.7354408,5.6174519 -6e-7,8.035443 z"
         transform="scale(-0.6,-0.6)" />
    </marker>
    <marker
       inkscape:stockid="Arrow2Mend"
       orient="auto"
       refY="0"
       refX="0"
       id="marker7501"
       style="overflow:visible">
      <path
         inkscape:connector-curvature="0"
         id="path7503"
         style="fill-rule:evenodd;stroke-width:0.625;stroke-linejoin:round"
         d="M 8.7185878,4.0337352 -2.2072895,0.01601326 8.7185884,-4.0017078 c -1.7454984,2.3720609 -1.7354408,5.6174519 -6e-7,8.035443 z"
         transform="scale(-0.6,-0.6)" />
    </marker>
    <marker
       inkscape:stockid="Arrow1Mend"
       orient="auto"
       refY="0"
       refX="0"
       id="Arrow1Mend-6"
       style="overflow:visible">
      <path
         inkscape:connector-curvature="0"
         id="path3833-6"
         d="M 0,0 5,-5 -12.5,0 5,5 0,0 z"
         style="fill-rule:evenodd;stroke:#000000;stroke-width:1pt"
         transform="matrix(-0.4,0,0,-0.4,-4,0)" />
    </marker>
    <marker
       inkscape:stockid="Arrow2Mend"
       orient="auto"
       refY="0"
       refX="0"
       id="Arrow2Mend-42"
       style="overflow:visible">
      <path
         inkscape:connector-curvature="0"
         id="path3851-6"
         style="fill-rule:evenodd;stroke-width:0.625;stroke-linejoin:round"
         d="M 8.7185878,4.0337352 -2.2072895,0.01601326 8.7185884,-4.0017078 c -1.7454984,2.3720609 -1.7354408,5.6174519 -6e-7,8.035443 z"
         transform="scale(-0.6,-0.6)" />
    </marker>
    <marker
       inkscape:stockid="Arrow2Mend"
       orient="auto"
       refY="0"
       refX="0"
       id="marker7852"
       style="overflow:visible">
      <path
         inkscape:connector-curvature="0"
         id="path7854"
         style="fill-rule:evenodd;stroke-width:0.625;stroke-linejoin:round"
         d="M 8.7185878,4.0337352 -2.2072895,0.01601326 8.7185884,-4.0017078 c -1.7454984,2.3720609 -1.7354408,5.6174519 -6e-7,8.035443 z"
         transform="scale(-0.6,-0.6)" />
    </marker>
    <marker
       inkscape:stockid="Arrow2Mend"
       orient="auto"
       refY="0"
       refX="0"
       id="marker7856"
       style="overflow:visible">
      <path
         inkscape:connector-curvature="0"
         id="path7858"
         style="fill-rule:evenodd;stroke-width:0.625;stroke-linejoin:round"
         d="M 8.7185878,4.0337352 -2.2072895,0.01601326 8.7185884,-4.0017078 c -1.7454984,2.3720609 -1.7354408,5.6174519 -6e-7,8.035443 z"
         transform="scale(-0.6,-0.6)" />
    </marker>
    <marker
       inkscape:stockid="Arrow2Mend"
       orient="auto"
       refY="0"
       refX="0"
       id="marker7860"
       style="overflow:visible">
      <path
         inkscape:connector-curvature="0"
         id="path7862"
         style="fill-rule:evenodd;stroke-width:0.625;stroke-linejoin:round"
         d="M 8.7185878,4.0337352 -2.2072895,0.01601326 8.7185884,-4.0017078 c -1.7454984,2.3720609 -1.7354408,5.6174519 -6e-7,8.035443 z"
         transform="scale(-0.6,-0.6)" />
    </marker>
    <marker
       inkscape:stockid="Arrow2Mend"
       orient="auto"
       refY="0"
       refX="0"
       id="marker7864"
       style="overflow:visible">
      <path
         inkscape:connector-curvature="0"
         id="path7866"
         style="fill-rule:evenodd;stroke-width:0.625;stroke-linejoin:round"
         d="M 8.7185878,4.0337352 -2.2072895,0.01601326 8.7185884,-4.0017078 c -1.7454984,2.3720609 -1.7354408,5.6174519 -6e-7,8.035443 z"
         transform="scale(-0.6,-0.6)" />
    </marker>
    <marker
       inkscape:stockid="Arrow2Mend"
       orient="auto"
       refY="0"
       refX="0"
       id="marker7868"
       style="overflow:visible">
      <path
         inkscape:connector-curvature="0"
         id="path7870"
         style="fill-rule:evenodd;stroke-width:0.625;stroke-linejoin:round"
         d="M 8.7185878,4.0337352 -2.2072895,0.01601326 8.7185884,-4.0017078 c -1.7454984,2.3720609 -1.7354408,5.6174519 -6e-7,8.035443 z"
         transform="scale(-0.6,-0.6)" />
    </marker>
    <marker
       inkscape:stockid="Arrow2Mend"
       orient="auto"
       refY="0"
       refX="0"
       id="Arrow2Mend-8"
       style="overflow:visible">
      <path
         inkscape:connector-curvature="0"
         id="path3851-7"
         style="fill-rule:evenodd;stroke-width:0.625;stroke-linejoin:round"
         d="M 8.7185878,4.0337352 -2.2072895,0.01601326 8.7185884,-4.0017078 c -1.7454984,2.3720609 -1.7354408,5.6174519 -6e-7,8.035443 z"
         transform="scale(-0.6,-0.6)" />
    </marker>
    <marker
       inkscape:stockid="Arrow2Mend"
       orient="auto"
       refY="0"
       refX="0"
       id="marker7962"
       style="overflow:visible">
      <path
         inkscape:connector-curvature="0"
         id="path7964"
         style="fill-rule:evenodd;stroke-width:0.625;stroke-linejoin:round"
         d="M 8.7185878,4.0337352 -2.2072895,0.01601326 8.7185884,-4.0017078 c -1.7454984,2.3720609 -1.7354408,5.6174519 -6e-7,8.035443 z"
         transform="scale(-0.6,-0.6)" />
    </marker>
    <marker
       inkscape:stockid="Arrow2Mend"
       orient="auto"
       refY="0"
       refX="0"
       id="marker7966"
       style="overflow:visible">
      <path
         inkscape:connector-curvature="0"
         id="path7968"
         style="fill-rule:evenodd;stroke-width:0.625;stroke-linejoin:round"
         d="M 8.7185878,4.0337352 -2.2072895,0.01601326 8.7185884,-4.0017078 c -1.7454984,2.3720609 -1.7354408,5.6174519 -6e-7,8.035443 z"
         transform="scale(-0.6,-0.6)" />
    </marker>
    <marker
       inkscape:stockid="Arrow2Mend"
       orient="auto"
       refY="0"
       refX="0"
       id="marker7970"
       style="overflow:visible">
      <path
         inkscape:connector-curvature="0"
         id="path7972"
         style="fill-rule:evenodd;stroke-width:0.625;stroke-linejoin:round"
         d="M 8.7185878,4.0337352 -2.2072895,0.01601326 8.7185884,-4.0017078 c -1.7454984,2.3720609 -1.7354408,5.6174519 -6e-7,8.035443 z"
         transform="scale(-0.6,-0.6)" />
    </marker>
    <marker
       inkscape:stockid="Arrow2Mend"
       orient="auto"
       refY="0"
       refX="0"
       id="marker7974"
       style="overflow:visible">
      <path
         inkscape:connector-curvature="0"
         id="path7976"
         style="fill-rule:evenodd;stroke-width:0.625;stroke-linejoin:round"
         d="M 8.7185878,4.0337352 -2.2072895,0.01601326 8.7185884,-4.0017078 c -1.7454984,2.3720609 -1.7354408,5.6174519 -6e-7,8.035443 z"
         transform="scale(-0.6,-0.6)" />
    </marker>
    <marker
       inkscape:stockid="Arrow2Mend"
       orient="auto"
       refY="0"
       refX="0"
       id="marker7978"
       style="overflow:visible">
      <path
         inkscape:connector-curvature="0"
         id="path7980"
         style="fill-rule:evenodd;stroke-width:0.625;stroke-linejoin:round"
         d="M 8.7185878,4.0337352 -2.2072895,0.01601326 8.7185884,-4.0017078 c -1.7454984,2.3720609 -1.7354408,5.6174519 -6e-7,8.035443 z"
         transform="scale(-0.6,-0.6)" />
    </marker>
    <marker
       inkscape:stockid="Arrow1Mend"
       orient="auto"
       refY="0"
       refX="0"
       id="Arrow1Mend-3"
       style="overflow:visible">
      <path
         inkscape:connector-curvature="0"
         id="path3833-3"
         d="M 0,0 5,-5 -12.5,0 5,5 0,0 z"
         style="fill-rule:evenodd;stroke:#000000;stroke-width:1pt"
         transform="matrix(-0.4,0,0,-0.4,-4,0)" />
    </marker>
    <marker
       inkscape:stockid="Arrow2Mend"
       orient="auto"
       refY="0"
       refX="0"
       id="Arrow2Mend-7"
       style="overflow:visible">
      <path
         inkscape:connector-curvature="0"
         id="path3851-1"
         style="fill-rule:evenodd;stroke-width:0.625;stroke-linejoin:round"
         d="M 8.7185878,4.0337352 -2.2072895,0.01601326 8.7185884,-4.0017078 c -1.7454984,2.3720609 -1.7354408,5.6174519 -6e-7,8.035443 z"
         transform="scale(-0.6,-0.6)" />
    </marker>
    <marker
       inkscape:stockid="Arrow2Mend"
       orient="auto"
       refY="0"
       refX="0"
       id="Arrow2Mend-7-2"
       style="overflow:visible">
      <path
         inkscape:connector-curvature="0"
         id="path3851-1-2"
         style="fill-rule:evenodd;stroke-width:0.625;stroke-linejoin:round"
         d="M 8.7185878,4.0337352 -2.2072895,0.01601326 8.7185884,-4.0017078 c -1.7454984,2.3720609 -1.7354408,5.6174519 -6e-7,8.035443 z"
         transform="scale(-0.6,-0.6)" />
    </marker>
  </defs>
  <sodipodi:namedview
     id="base"
     pagecolor="#ffffff"
     bordercolor="#666666"
     borderopacity="1.0"
     inkscape:pageopacity="0.0"
     inkscape:pageshadow="2"
     inkscape:zoom="1.88"
     inkscape:cx="53.42312"
     inkscape:cy="84.738033"
     inkscape:document-units="px"
     inkscape:current-layer="layer1"
     showgrid="false"
     units="in"
     fit-margin-top="0"
     fit-margin-left="0"
     fit-margin-right="0"
     fit-margin-bottom="0"
     inkscape:window-width="1551"
     inkscape:window-height="1176"
     inkscape:window-x="49"
     inkscape:window-y="24"
     inkscape:window-maximized="1" />
  <metadata
     id="metadata6524">
    <rdf:RDF>
      <cc:Work
         rdf:about="">
        <dc:format>image/svg+xml</dc:format>
        <dc:type
           rdf:resource="http://purl.org/dc/dcmitype/StillImage" />
        <dc:title></dc:title>
      </cc:Work>
    </rdf:RDF>
  </metadata>
  <g
     inkscape:label="Layer 1"
     inkscape:groupmode="layer"
     id="layer1"
     transform="translate(-17.579784,-612.49804)">
    <rect
       style="fill:#ffffff;fill-opacity:1;stroke:#000000;stroke-width:1;stroke-miterlimit:4;stroke-opacity:1;stroke-dasharray:none;stroke-dashoffset:0"
       id="rect6527"
       width="12.765958"
       height="12.765958"
       x="19.680851"
       y="630.55127" />
    <path
       sodipodi:type="arc"
       style="fill:none;stroke:#000000;stroke-width:1;stroke-miterlimit:4;stroke-opacity:1;stroke-dasharray:none;stroke-dashoffset:0"
       id="path6529"
       sodipodi:cx="60.106384"
       sodipodi:cy="29.25532"
       sodipodi:rx="7.9787235"
       sodipodi:ry="8.5106382"
       d="m 68.085108,29.25532 c 0,4.700295 -3.572196,8.510638 -7.978724,8.510638 -4.406527,0 -7.978723,-3.810343 -7.978723,-8.510638 0,-4.700296 3.572196,-8.510639 7.978723,-8.510639 4.406528,0 7.978724,3.810343 7.978724,8.510639 z"
       transform="translate(2.6595745,608.21082)" />
    <path
       style="fill:none;stroke:#000000;stroke-width:1px;stroke-linecap:butt;stroke-linejoin:miter;stroke-opacity:1;marker-end:url(#Arrow2Mend)"
       d="M 69.680851,34.042553 115.42553,20.744681"
       id="path7039"
       inkscape:connector-type="polyline"
       inkscape:connector-curvature="0"
       transform="translate(0,602.35975)" />
    <path
       sodipodi:type="arc"
       style="fill:none;stroke:#000000;stroke-opacity:1"
       id="path6529-6"
       sodipodi:cx="60.106384"
       sodipodi:cy="29.25532"
       sodipodi:rx="7.9787235"
       sodipodi:ry="8.5106382"
       d="m 68.085108,29.25532 c 0,4.700295 -3.572196,8.510638 -7.978724,8.510638 -4.406527,0 -7.978723,-3.810343 -7.978723,-8.510638 0,-4.700296 3.572196,-8.510639 7.978723,-8.510639 4.406528,0 7.978724,3.810343 7.978724,8.510639 z"
       transform="translate(63.297871,592.25336)" />
    <path
       sodipodi:type="arc"
       style="fill:none;stroke:#000000;stroke-opacity:1"
       id="path6529-6-0"
       sodipodi:cx="60.106384"
       sodipodi:cy="29.25532"
       sodipodi:rx="7.9787235"
       sodipodi:ry="8.5106382"
       d="m 68.085108,29.25532 c 0,4.700295 -3.572196,8.510638 -7.978724,8.510638 -4.406527,0 -7.978723,-3.810343 -7.978723,-8.510638 0,-4.700296 3.572196,-8.510639 7.978723,-8.510639 4.406528,0 7.978724,3.810343 7.978724,8.510639 z"
       transform="translate(63.829786,627.35974)" />
    <path
       style="fill:none;stroke:#000000;stroke-width:1px;stroke-linecap:butt;stroke-linejoin:miter;stroke-opacity:1;marker-end:url(#Arrow2Mend)"
       d="M 68.617021,37.765957 114.3617,52.127659"
       id="path7261"
       inkscape:connector-type="polyline"
       inkscape:connector-curvature="0"
       transform="translate(0,602.35975)" />
    <path
       style="fill:none;stroke:#000000;stroke-width:1px;stroke-linecap:butt;stroke-linejoin:miter;stroke-opacity:1;marker-end:url(#Arrow2Mend)"
       d="m 131.64893,655.55124 45.74468,-13.29787"
       id="path7039-8"
       inkscape:connector-type="polyline"
       inkscape:connector-curvature="0" />
    <path
       sodipodi:type="arc"
       style="fill:none;stroke:#000000;stroke-opacity:1"
       id="path6529-6-9"
       sodipodi:cx="60.106384"
       sodipodi:cy="29.25532"
       sodipodi:rx="7.9787235"
       sodipodi:ry="8.5106382"
       d="m 68.085108,29.25532 c 0,4.700295 -3.572196,8.510638 -7.978724,8.510638 -4.406527,0 -7.978723,-3.810343 -7.978723,-8.510638 0,-4.700296 3.572196,-8.510639 7.978723,-8.510639 4.406528,0 7.978724,3.810343 7.978724,8.510639 z"
       transform="translate(125.26595,611.4023)" />
    <path
       sodipodi:type="arc"
       style="fill:none;stroke:#000000;stroke-opacity:1"
       id="path6529-6-0-9"
       sodipodi:cx="60.106384"
       sodipodi:cy="29.25532"
       sodipodi:rx="7.9787235"
       sodipodi:ry="8.5106382"
       d="m 68.085108,29.25532 c 0,4.700295 -3.572196,8.510638 -7.978724,8.510638 -4.406527,0 -7.978723,-3.810343 -7.978723,-8.510638 0,-4.700296 3.572196,-8.510639 7.978723,-8.510639 4.406528,0 7.978724,3.810343 7.978724,8.510639 z"
       transform="translate(125.26596,645.97676)" />
    <path
       style="fill:none;stroke:#000000;stroke-width:1px;stroke-linecap:butt;stroke-linejoin:miter;stroke-opacity:1;marker-end:url(#Arrow2Mend)"
       d="m 130.5851,659.27465 45.74468,14.3617"
       id="path7261-3"
       inkscape:connector-type="polyline"
       inkscape:connector-curvature="0" />
    <path
       style="fill:none;stroke:#000000;stroke-width:1px;stroke-linecap:butt;stroke-linejoin:miter;stroke-opacity:1;marker-end:url(#Arrow2Mend)"
       d="m 193.35106,671.50869 45.74468,-13.29787"
       id="path7039-8-3"
       inkscape:connector-type="polyline"
       inkscape:connector-curvature="0" />
    <path
       sodipodi:type="arc"
       style="fill:none;stroke:#000000;stroke-opacity:1"
       id="path6529-6-9-3"
       sodipodi:cx="60.106384"
       sodipodi:cy="29.25532"
       sodipodi:rx="7.9787235"
       sodipodi:ry="8.5106382"
       d="m 68.085108,29.25532 c 0,4.700295 -3.572196,8.510638 -7.978724,8.510638 -4.406527,0 -7.978723,-3.810343 -7.978723,-8.510638 0,-4.700296 3.572196,-8.510639 7.978723,-8.510639 4.406528,0 7.978724,3.810343 7.978724,8.510639 z"
       transform="translate(187.5,627.89166)" />
    <path
       sodipodi:type="arc"
       style="fill:none;stroke:#000000;stroke-opacity:1"
       id="path6529-6-0-9-4"
       sodipodi:cx="60.106384"
       sodipodi:cy="29.25532"
       sodipodi:rx="7.9787235"
       sodipodi:ry="8.5106382"
       d="m 68.085108,29.25532 c 0,4.700295 -3.572196,8.510638 -7.978724,8.510638 -4.406527,0 -7.978723,-3.810343 -7.978723,-8.510638 0,-4.700296 3.572196,-8.510639 7.978723,-8.510639 4.406528,0 7.978724,3.810343 7.978724,8.510639 z"
       transform="translate(189.09575,662.46613)" />
    <path
       style="fill:none;stroke:#000000;stroke-width:1px;stroke-linecap:butt;stroke-linejoin:miter;stroke-opacity:1;marker-end:url(#Arrow2Mend)"
       d="m 194.41489,675.76401 45.74468,14.3617"
       id="path7261-3-1"
       inkscape:connector-type="polyline"
       inkscape:connector-curvature="0" />
    <path
       style="fill:none;stroke:#000000;stroke-width:1;stroke-linecap:butt;stroke-linejoin:miter;stroke-miterlimit:4;stroke-opacity:1;stroke-dasharray:4, 1;stroke-dashoffset:0;marker-end:url(#Arrow1Mend)"
       d="m 32.446808,637.46613 21.276596,0.53192"
       id="path7530"
       inkscape:connector-type="polyline"
       inkscape:connector-curvature="0" />
    <rect
       style="fill:#ffffff;fill-opacity:1;stroke:#000000;stroke-width:1;stroke-miterlimit:4;stroke-opacity:1;stroke-dasharray:none;stroke-dashoffset:0"
       id="rect6527-1"
       width="12.765958"
       height="12.765958"
       x="18.207439"
       y="745.97681" />
    <path
       sodipodi:type="arc"
       style="fill:none;stroke:#000000;stroke-width:1;stroke-miterlimit:4;stroke-opacity:1;stroke-dasharray:none;stroke-dashoffset:0"
       id="path6529-4"
       sodipodi:cx="60.106384"
       sodipodi:cy="29.25532"
       sodipodi:rx="7.9787235"
       sodipodi:ry="8.5106382"
       d="m 68.085108,29.25532 c 0,4.700295 -3.572196,8.510638 -7.978724,8.510638 -4.406527,0 -7.978723,-3.810343 -7.978723,-8.510638 0,-4.700296 3.572196,-8.510639 7.978723,-8.510639 4.406528,0 7.978724,3.810343 7.978724,8.510639 z"
       transform="translate(1.1861631,723.63636)" />
    <path
       style="fill:none;stroke:#000000;stroke-width:1px;stroke-linecap:butt;stroke-linejoin:miter;stroke-opacity:1;marker-end:url(#Arrow2Mend)"
       d="M 68.207443,751.82784 113.95212,738.52997"
       id="path7039-4"
       inkscape:connector-type="polyline"
       inkscape:connector-curvature="0" />
    <path
       sodipodi:type="arc"
       style="fill:none;stroke:#000000;stroke-opacity:1"
       id="path6529-6-7"
       sodipodi:cx="60.106384"
       sodipodi:cy="29.25532"
       sodipodi:rx="7.9787235"
       sodipodi:ry="8.5106382"
       d="m 68.085108,29.25532 c 0,4.700295 -3.572196,8.510638 -7.978724,8.510638 -4.406527,0 -7.978723,-3.810343 -7.978723,-8.510638 0,-4.700296 3.572196,-8.510639 7.978723,-8.510639 4.406528,0 7.978724,3.810343 7.978724,8.510639 z"
       transform="translate(61.824463,707.6789)" />
    <path
       sodipodi:type="arc"
       style="fill:#000000;fill-opacity:1;stroke:#000000;stroke-opacity:1"
       id="path6529-6-0-0"
       sodipodi:cx="60.106384"
       sodipodi:cy="29.25532"
       sodipodi:rx="7.9787235"
       sodipodi:ry="8.5106382"
       d="m 68.085108,29.25532 c 0,4.700295 -3.572196,8.510638 -7.978724,8.510638 -4.406527,0 -7.978723,-3.810343 -7.978723,-8.510638 0,-4.700296 3.572196,-8.510639 7.978723,-8.510639 4.406528,0 7.978724,3.810343 7.978724,8.510639 z"
       transform="translate(62.356373,742.78528)" />
    <path
       style="fill:none;stroke:#000000;stroke-width:1px;stroke-linecap:butt;stroke-linejoin:miter;stroke-opacity:1;marker-end:url(#Arrow2Mend)"
       d="m 67.143613,755.55125 45.744677,14.3617"
       id="path7261-1"
       inkscape:connector-type="polyline"
       inkscape:connector-curvature="0" />
    <path
       style="fill:none;stroke:#000000;stroke-width:1px;stroke-linecap:butt;stroke-linejoin:miter;stroke-opacity:1;marker-end:url(#Arrow2Mend)"
       d="M 130.17552,770.97678 175.9202,757.67891"
       id="path7039-8-8"
       inkscape:connector-type="polyline"
       inkscape:connector-curvature="0" />
    <path
       sodipodi:type="arc"
       style="fill:#000000;fill-opacity:1;stroke:#000000;stroke-opacity:1"
       id="path6529-6-9-7"
       sodipodi:cx="60.106384"
       sodipodi:cy="29.25532"
       sodipodi:rx="7.9787235"
       sodipodi:ry="8.5106382"
       d="m 68.085108,29.25532 c 0,4.700295 -3.572196,8.510638 -7.978724,8.510638 -4.406527,0 -7.978723,-3.810343 -7.978723,-8.510638 0,-4.700296 3.572196,-8.510639 7.978723,-8.510639 4.406528,0 7.978724,3.810343 7.978724,8.510639 z"
       transform="translate(123.79254,726.82784)" />
    <path
       sodipodi:type="arc"
       style="fill:#000000;fill-opacity:1;stroke:#000000;stroke-opacity:1"
       id="path6529-6-0-9-5"
       sodipodi:cx="60.106384"
       sodipodi:cy="29.25532"
       sodipodi:rx="7.9787235"
       sodipodi:ry="8.5106382"
       d="m 68.085108,29.25532 c 0,4.700295 -3.572196,8.510638 -7.978724,8.510638 -4.406527,0 -7.978723,-3.810343 -7.978723,-8.510638 0,-4.700296 3.572196,-8.510639 7.978723,-8.510639 4.406528,0 7.978724,3.810343 7.978724,8.510639 z"
       transform="translate(123.79255,761.4023)" />
    <path
       style="fill:none;stroke:#000000;stroke-width:1px;stroke-linecap:butt;stroke-linejoin:miter;stroke-opacity:1;marker-end:url(#Arrow2Mend)"
       d="m 129.11169,774.70019 45.74468,14.3617"
       id="path7261-3-2"
       inkscape:connector-type="polyline"
       inkscape:connector-curvature="0" />
    <path
       style="fill:none;stroke:#000000;stroke-width:1px;stroke-linecap:butt;stroke-linejoin:miter;stroke-opacity:1;marker-end:url(#Arrow2Mend)"
       d="m 191.87765,786.93423 45.74468,-13.29787"
       id="path7039-8-3-2"
       inkscape:connector-type="polyline"
       inkscape:connector-curvature="0" />
    <path
       sodipodi:type="arc"
       style="fill:none;stroke:#000000;stroke-opacity:1"
       id="path6529-6-9-3-6"
       sodipodi:cx="60.106384"
       sodipodi:cy="29.25532"
       sodipodi:rx="7.9787235"
       sodipodi:ry="8.5106382"
       d="m 68.085108,29.25532 c 0,4.700295 -3.572196,8.510638 -7.978724,8.510638 -4.406527,0 -7.978723,-3.810343 -7.978723,-8.510638 0,-4.700296 3.572196,-8.510639 7.978723,-8.510639 4.406528,0 7.978724,3.810343 7.978724,8.510639 z"
       transform="translate(186.02659,743.3172)" />
    <path
       sodipodi:type="arc"
       style="fill:#000000;fill-opacity:1;stroke:#000000;stroke-opacity:1"
       id="path6529-6-0-9-4-0"
       sodipodi:cx="60.106384"
       sodipodi:cy="29.25532"
       sodipodi:rx="7.9787235"
       sodipodi:ry="8.5106382"
       d="m 68.085108,29.25532 c 0,4.700295 -3.572196,8.510638 -7.978724,8.510638 -4.406527,0 -7.978723,-3.810343 -7.978723,-8.510638 0,-4.700296 3.572196,-8.510639 7.978723,-8.510639 4.406528,0 7.978724,3.810343 7.978724,8.510639 z"
       transform="translate(187.62234,777.89167)" />
    <path
       style="fill:none;stroke:#000000;stroke-width:1px;stroke-linecap:butt;stroke-linejoin:miter;stroke-opacity:1;marker-end:url(#Arrow2Mend)"
       d="m 192.94148,791.18955 45.74468,14.3617"
       id="path7261-3-1-6"
       inkscape:connector-type="polyline"
       inkscape:connector-curvature="0" />
    <path
       style="fill:none;stroke:#000000;stroke-width:1;stroke-linecap:butt;stroke-linejoin:miter;stroke-miterlimit:4;stroke-opacity:1;stroke-dasharray:4, 1;stroke-dashoffset:0;marker-end:url(#Arrow1Mend)"
       d="m 30.973403,752.89167 21.27659,0.53192"
       id="path7530-2"
       inkscape:connector-type="polyline"
       inkscape:connector-curvature="0" />
    <rect
       style="fill:#ffffff;fill-opacity:1;stroke:#000000;stroke-width:1;stroke-miterlimit:4;stroke-opacity:1;stroke-dasharray:none;stroke-dashoffset:0"
       id="rect6527-1-3"
       width="12.765958"
       height="12.765958"
       x="18.079784"
       y="860.99805" />
    <path
       sodipodi:type="arc"
       style="fill:none;stroke:#000000;stroke-width:1;stroke-miterlimit:4;stroke-opacity:1;stroke-dasharray:none;stroke-dashoffset:0"
       id="path6529-4-7"
       sodipodi:cx="60.106384"
       sodipodi:cy="29.25532"
       sodipodi:rx="7.9787235"
       sodipodi:ry="8.5106382"
       d="m 68.085108,29.25532 c 0,4.700295 -3.572196,8.510638 -7.978724,8.510638 -4.406527,0 -7.978723,-3.810343 -7.978723,-8.510638 0,-4.700296 3.572196,-8.510639 7.978723,-8.510639 4.406528,0 7.978724,3.810343 7.978724,8.510639 z"
       transform="translate(1.0585074,838.65764)" />
    <path
       style="fill:none;stroke:#000000;stroke-width:1px;stroke-linecap:butt;stroke-linejoin:miter;stroke-opacity:1;marker-end:url(#Arrow2Mend)"
       d="M 68.079788,866.84912 113.82446,853.55125"
       id="path7039-4-9"
       inkscape:connector-type="polyline"
       inkscape:connector-curvature="0" />
    <path
       sodipodi:type="arc"
       style="fill:none;stroke:#000000;stroke-opacity:1"
       id="path6529-6-7-7"
       sodipodi:cx="60.106384"
       sodipodi:cy="29.25532"
       sodipodi:rx="7.9787235"
       sodipodi:ry="8.5106382"
       d="m 68.085108,29.25532 c 0,4.700295 -3.572196,8.510638 -7.978724,8.510638 -4.406527,0 -7.978723,-3.810343 -7.978723,-8.510638 0,-4.700296 3.572196,-8.510639 7.978723,-8.510639 4.406528,0 7.978724,3.810343 7.978724,8.510639 z"
       transform="translate(61.696808,822.70018)" />
    <path
       sodipodi:type="arc"
       style="fill:#000000;fill-opacity:1;stroke:#000000;stroke-opacity:1"
       id="path6529-6-0-0-0"
       sodipodi:cx="60.106384"
       sodipodi:cy="29.25532"
       sodipodi:rx="7.9787235"
       sodipodi:ry="8.5106382"
       d="m 68.085108,29.25532 c 0,4.700295 -3.572196,8.510638 -7.978724,8.510638 -4.406527,0 -7.978723,-3.810343 -7.978723,-8.510638 0,-4.700296 3.572196,-8.510639 7.978723,-8.510639 4.406528,0 7.978724,3.810343 7.978724,8.510639 z"
       transform="translate(62.228718,857.80656)" />
    <path
       style="fill:none;stroke:#000000;stroke-width:1px;stroke-linecap:butt;stroke-linejoin:miter;stroke-opacity:1;marker-end:url(#Arrow2Mend)"
       d="m 67.015958,870.57253 45.744672,14.3617"
       id="path7261-1-5"
       inkscape:connector-type="polyline"
       inkscape:connector-curvature="0" />
    <path
       style="fill:none;stroke:#000000;stroke-width:1px;stroke-linecap:butt;stroke-linejoin:miter;stroke-opacity:1;marker-end:url(#Arrow2Mend)"
       d="m 130.04786,885.99806 45.74468,-13.29787"
       id="path7039-8-8-4"
       inkscape:connector-type="polyline"
       inkscape:connector-curvature="0" />
    <path
       sodipodi:type="arc"
       style="fill:#000000;fill-opacity:1;stroke:#000000;stroke-opacity:1"
       id="path6529-6-9-7-7"
       sodipodi:cx="60.106384"
       sodipodi:cy="29.25532"
       sodipodi:rx="7.9787235"
       sodipodi:ry="8.5106382"
       d="m 68.085108,29.25532 c 0,4.700295 -3.572196,8.510638 -7.978724,8.510638 -4.406527,0 -7.978723,-3.810343 -7.978723,-8.510638 0,-4.700296 3.572196,-8.510639 7.978723,-8.510639 4.406528,0 7.978724,3.810343 7.978724,8.510639 z"
       transform="translate(123.66488,841.84912)" />
    <path
       sodipodi:type="arc"
       style="fill:none;stroke:#000000;stroke-opacity:1"
       id="path6529-6-0-9-5-9"
       sodipodi:cx="60.106384"
       sodipodi:cy="29.25532"
       sodipodi:rx="7.9787235"
       sodipodi:ry="8.5106382"
       d="m 68.085108,29.25532 c 0,4.700295 -3.572196,8.510638 -7.978724,8.510638 -4.406527,0 -7.978723,-3.810343 -7.978723,-8.510638 0,-4.700296 3.572196,-8.510639 7.978723,-8.510639 4.406528,0 7.978724,3.810343 7.978724,8.510639 z"
       transform="translate(123.66489,876.42358)" />
    <path
       style="fill:none;stroke:#000000;stroke-width:1px;stroke-linecap:butt;stroke-linejoin:miter;stroke-opacity:1;marker-end:url(#Arrow2Mend)"
       d="m 128.98403,889.72147 45.74468,14.3617"
       id="path7261-3-2-2"
       inkscape:connector-type="polyline"
       inkscape:connector-curvature="0" />
    <path
       style="fill:none;stroke:#000000;stroke-width:1px;stroke-linecap:butt;stroke-linejoin:miter;stroke-opacity:1;marker-end:url(#Arrow2Mend)"
       d="m 191.74999,901.95551 45.74468,-13.29787"
       id="path7039-8-3-2-8"
       inkscape:connector-type="polyline"
       inkscape:connector-curvature="0" />
    <path
       sodipodi:type="arc"
       style="fill:none;stroke:#000000;stroke-opacity:1"
       id="path6529-6-9-3-6-3"
       sodipodi:cx="60.106384"
       sodipodi:cy="29.25532"
       sodipodi:rx="7.9787235"
       sodipodi:ry="8.5106382"
       d="m 68.085108,29.25532 c 0,4.700295 -3.572196,8.510638 -7.978724,8.510638 -4.406527,0 -7.978723,-3.810343 -7.978723,-8.510638 0,-4.700296 3.572196,-8.510639 7.978723,-8.510639 4.406528,0 7.978724,3.810343 7.978724,8.510639 z"
       transform="translate(185.89893,858.33848)" />
    <path
       sodipodi:type="arc"
       style="fill:none;stroke:#000000;stroke-opacity:1"
       id="path6529-6-0-9-4-0-9"
       sodipodi:cx="60.106384"
       sodipodi:cy="29.25532"
       sodipodi:rx="7.9787235"
       sodipodi:ry="8.5106382"
       d="m 68.085108,29.25532 c 0,4.700295 -3.572196,8.510638 -7.978724,8.510638 -4.406527,0 -7.978723,-3.810343 -7.978723,-8.510638 0,-4.700296 3.572196,-8.510639 7.978723,-8.510639 4.406528,0 7.978724,3.810343 7.978724,8.510639 z"
       transform="translate(187.49468,892.91295)" />
    <path
       style="fill:none;stroke:#000000;stroke-width:1px;stroke-linecap:butt;stroke-linejoin:miter;stroke-opacity:1;marker-end:url(#Arrow2Mend)"
       d="m 192.81382,906.21083 45.74468,14.3617"
       id="path7261-3-1-6-7"
       inkscape:connector-type="polyline"
       inkscape:connector-curvature="0" />
    <path
       style="fill:none;stroke:#000000;stroke-width:1;stroke-linecap:butt;stroke-linejoin:miter;stroke-miterlimit:4;stroke-opacity:1;stroke-dasharray:4, 1;stroke-dashoffset:0;marker-end:url(#Arrow1Mend)"
       d="m 30.845748,867.91295 21.27659,0.53192"
       id="path7530-2-5"
       inkscape:connector-type="polyline"
       inkscape:connector-curvature="0" />
    <path
       style="fill:none;stroke:#000000;stroke-width:1px;stroke-linecap:butt;stroke-linejoin:miter;stroke-opacity:1;marker-end:url(#Arrow2Mend)"
       d="m 191.61702,867.38103 45.74467,-13.29787"
       id="path7039-4-9-9"
       inkscape:connector-type="polyline"
       inkscape:connector-curvature="0" />
    <path
       sodipodi:type="arc"
       style="fill:#000000;fill-opacity:1;stroke:#000000;stroke-opacity:1"
       id="path6529-6-7-7-7"
       sodipodi:cx="60.106384"
       sodipodi:cy="29.25532"
       sodipodi:rx="7.9787235"
       sodipodi:ry="8.5106382"
       d="m 68.085108,29.25532 c 0,4.700295 -3.572196,8.510638 -7.978724,8.510638 -4.406527,0 -7.978723,-3.810343 -7.978723,-8.510638 0,-4.700296 3.572196,-8.510639 7.978723,-8.510639 4.406528,0 7.978724,3.810343 7.978724,8.510639 z"
       transform="translate(185.23404,823.23209)" />
    <path
       style="fill:none;stroke:#000000;stroke-width:0.9894858px;stroke-linecap:butt;stroke-linejoin:miter;stroke-opacity:1;marker-end:url(#Arrow2Mend-7)"
       d="m 25.441909,643.8312 0.204572,101.08106"
       id="path8089"
       inkscape:connector-type="polyline"
       inkscape:connector-curvature="0" />
    <path
       style="fill:none;stroke:#000000;stroke-width:0.9894858px;stroke-linecap:butt;stroke-linejoin:miter;stroke-opacity:1;marker-end:url(#Arrow2Mend-7)"
       d="m 24.796396,758.85819 0.204572,101.08106"
       id="path8089-2"
       inkscape:connector-type="polyline"
       inkscape:connector-curvature="0" />
  </g>
</svg>
